<?xml version="1.0" encoding="UTF-8"?>
<svg id="_레이어_2" xmlns="http://www.w3.org/2000/svg" xmlns:xlink="http://www.w3.org/1999/xlink" version="1.1" viewBox="0 0 1281 726">
  <!-- Generator: Adobe Illustrator 30.0.0, SVG Export Plug-In . SVG Version: 2.1.1 Build 123)  -->
  <defs>
    <style>
      .st0, .st1, .st2, .st3, .st4, .st5, .st6 {
        fill: none;
      }

      .st7 {
        fill: #6bbbff;
      }

      .st8 {
        fill: #d3ebff;
      }

      .st1, .st2, .st3 {
        stroke: #fff;
      }

      .st1, .st2, .st3, .st4, .st6 {
        stroke-miterlimit: 10;
      }

      .st1, .st4, .st6 {
        stroke-width: 11.6px;
      }

      .st9 {
        fill: #ff9bac;
      }

      .st2 {
        stroke-width: 12.7px;
      }

      .st3 {
        stroke-width: 25.2px;
      }

      .st10 {
        fill: #9fe54d;
      }

      .st11 {
        clip-path: url(#clippath-1);
      }

      .st12 {
        fill: #e1f1ff;
      }

      .st13 {
        fill: #fff;
      }

      .st14 {
        fill: #a6d6ff;
      }

      .st4 {
        stroke: #e7f8d2;
      }

      .st15 {
        fill: #87de20;
      }

      .st5 {
        stroke: #ff9bac;
        stroke-linejoin: bevel;
        stroke-width: 1.8px;
      }

      .st16 {
        fill: #b9dfff;
      }

      .st17 {
        fill: #cff2a6;
      }

      .st18 {
        fill: #b5ddff;
      }

      .st19 {
        fill: #e6f3ff;
      }

      .st20 {
        fill: #575b5d;
      }

      .st21 {
        clip-path: url(#clippath);
      }

      .st6 {
        stroke: #d3ebff;
      }
    </style>
    <clipPath id="clippath">
      <rect class="st0" width="1281" height="726"/>
    </clipPath>
    <clipPath id="clippath-1">
      <rect class="st0" x="-51.3" y="-305" width="1362.8" height="1440.4"/>
    </clipPath>
  </defs>
  <g id="_레이어_1-2">
    <g class="st21">
      <g>
        <g>
          <g class="st11">
            <g>
              <g>
                <polygon class="st17" points="679 430.6 778 430.6 913 430.6 1048 430.6 1131.4 430.6 1131.4 137.3 679 137.3 679 384.7 679 430.6"/>
                <polygon class="st17" points="1048 430.6 1048 568.1 778 568.1 778 430.6 491.8 430.6 491.8 568.1 185.6 568.1 185.6 726 1131.4 726 1131.4 430.6 1048 430.6"/>
                <polygon class="st8" points="1131.4 -11.1 815.8 -182.1 679 137.3 1131.4 137.3 1131.4 -11.1"/>
                <polygon class="st12" points="1131.4 -11.1 1131.4 146.9 1131.4 430.6 1131.4 582.9 1131.4 726 1311.5 726 1311.5 582.9 1311.5 86.4 1131.4 -11.1"/>
                <polygon class="st8" points="-51.3 430.6 -51.3 582.9 -51.3 726 185.6 726 185.6 582.9 185.6 430.6 -51.3 430.6"/>
                <polygon class="st12" points="356.2 142.9 180.3 -157.6 -51.3 63.4 -51.3 430.6 185.6 430.6 356.2 142.9"/>
                <polygon class="st12" points="96.2 -305 -51.3 -305 -51.3 63.4 180.3 -157.6 96.2 -305"/>
                <polygon class="st12" points="1131.4 -11.1 1311.5 86.4 1311.5 -86.9 1131.4 -190.4 1131.4 -11.1"/>
                <polygon class="st16" points="356.2 142.9 395.1 146.9 633.2 146.9 679 146.9 815.8 -182.1 588.8 -305 334.8 -305 180.3 -157.6 356.2 142.9"/>
              </g>
              <g>
                <line class="st4" x1="679" y1="137.3" x2="1131.4" y2="137.3"/>
                <line class="st4" x1="185.7" y1="568.1" x2="268.5" y2="568.1"/>
                <line class="st6" x1="913" y1="430.6" x2="913" y2="568.1"/>
                <line class="st3" x1="-635.5" y1="430.6" x2="1131.4" y2="430.6"/>
                <line class="st1" x1="353.9" y1="146.9" x2="679" y2="146.9"/>
                <polyline class="st1" points="879.5 -335.3 679 135.2 679 430.6"/>
                <polyline class="st1" points="185.6 726 185.6 430.6 353.9 134.1 -79.4 -613"/>
                <line class="st1" x1="1131.4" y1="-305" x2="1131.4" y2="1235.6"/>
                <rect class="st1" x="778" y="430.6" width="270.1" height="137.5"/>
                <line class="st1" x1="1048" y1="499.3" x2="778" y2="499.3"/>
                <polyline class="st1" points="395.1 146.9 395.1 192.7 286 384.7 286 568.1"/>
                <line class="st1" x1="679" y1="384.7" x2="286" y2="384.7"/>
                <line class="st1" x1="633.2" y1="192.7" x2="395.1" y2="192.7"/>
                <line class="st1" x1="633.2" y1="146.9" x2="633.2" y2="384.7"/>
                <line class="st1" x1="562.5" y1="192.7" x2="562.5" y2="384.7"/>
                <line class="st1" x1="491.8" y1="192.7" x2="491.8" y2="568.1"/>
                <rect class="st1" x="227.1" y="487.3" width="264.7" height="80.8"/>
                <line class="st1" x1="349.9" y1="272.3" x2="491.8" y2="272.3"/>
                <line class="st1" x1="407" y1="922.1" x2="1131.4" y2="922.1"/>
                <path class="st1" d="M249.5,700.9"/>
                <path class="st1" d="M753.4,1235.6"/>
                <path class="st1" d="M753.4,701.2"/>
                <path class="st1" d="M550,1235.6"/>
                <path class="st1" d="M550,701.2"/>
                <line class="st1" x1="236.3" y1="-495.9" x2="1674.4" y2="283"/>
                <line class="st1" x1="589.2" y1="-547.8" x2="-104.4" y2="114.1"/>
                <line class="st1" x1="369.1" y1="-628.7" x2="1776.8" y2="180.6"/>
                <polyline class="st1" points="134.3 1061.5 194.8 1141.2 293.5 1082.4 407 1082.4 407 922.1"/>
                <path class="st1" d="M134.3,701.2"/>
                <path class="st1" d="M942.4,922.1"/>
                <path class="st1" d="M942.4,700.9"/>
                <line class="st2" x1="778" y1="430.6" x2="778" y2="394.3"/>
                <line class="st2" x1="879.6" y1="430.6" x2="879.6" y2="342.1"/>
              </g>
            </g>
          </g>
          <g>
            <g>
              <rect class="st13" x="933.8" y="240" width="143.3" height="68.4"/>
              <rect class="st13" x="909.8" y="295.9" width="62.3" height="38.8"/>
              <rect class="st13" x="1040" y="313.8" width="57.7" height="20.9"/>
              <rect class="st7" x="972.1" y="313.8" width="67.9" height="20.9"/>
              <rect class="st7" x="917.3" y="334.6" width="172.9" height="7.5"/>
              <rect class="st7" x="972.1" y="306.2" width="105" height="7.5"/>
              <rect class="st13" x="909.8" y="331.7" width="7.5" height="10.4"/>
              <rect class="st13" x="930.3" y="331.7" width="7.5" height="10.4"/>
              <rect class="st13" x="950.7" y="331.7" width="7.5" height="10.4"/>
              <rect class="st13" x="1065.1" y="331.7" width="7.5" height="10.4"/>
              <rect class="st13" x="1040" y="331.7" width="7.5" height="10.4"/>
              <rect class="st13" x="1090.2" y="331.7" width="7.5" height="10.4"/>
              <g>
                <rect class="st7" x="956.6" y="251.6" width="7.5" height="38.6"/>
                <rect class="st7" x="971.6" y="251.6" width="7.5" height="38.6"/>
                <rect class="st7" x="986.7" y="251.6" width="7.5" height="38.6"/>
                <rect class="st7" x="1001.7" y="251.6" width="7.5" height="38.6"/>
                <rect class="st7" x="1016.7" y="251.6" width="7.5" height="38.6"/>
                <rect class="st7" x="1031.8" y="251.6" width="7.5" height="38.6"/>
                <rect class="st7" x="1046.8" y="251.6" width="7.5" height="38.6"/>
              </g>
            </g>
            <g>
              <rect class="st13" x="706.3" y="244.1" width="143.3" height="68.4"/>
              <rect class="st7" x="706.3" y="310.4" width="143.3" height="31.8"/>
              <g>
                <rect class="st7" x="729.1" y="255.8" width="7.5" height="38.6"/>
                <rect class="st7" x="744.1" y="255.8" width="7.5" height="38.6"/>
                <rect class="st7" x="759.2" y="255.8" width="7.5" height="38.6"/>
                <rect class="st7" x="774.2" y="255.8" width="7.5" height="38.6"/>
                <rect class="st7" x="789.2" y="255.8" width="7.5" height="38.6"/>
                <rect class="st7" x="804.3" y="255.8" width="7.5" height="38.6"/>
                <rect class="st7" x="819.3" y="255.8" width="7.5" height="38.6"/>
              </g>
              <g>
                <rect class="st13" x="845.4" y="331.7" width="7.5" height="10.4"/>
                <rect class="st13" x="808.7" y="317.9" width="44.3" height="16.7"/>
                <rect class="st13" x="808.7" y="331.7" width="7.5" height="10.4"/>
              </g>
              <g>
                <rect class="st13" x="739.7" y="331.7" width="7.5" height="10.4"/>
                <rect class="st13" x="703" y="317.9" width="44.3" height="16.7"/>
                <rect class="st13" x="703" y="331.7" width="7.5" height="10.4"/>
              </g>
            </g>
            <g>
              <rect class="st7" x="515.9" y="477.8" width="117.7" height="43.8"/>
              <rect class="st13" x="504.7" y="477.8" width="56.3" height="36.2"/>
              <rect class="st13" x="655.6" y="494" width="37.4" height="27.6"/>
              <rect class="st13" x="576.9" y="477.8" width="78.7" height="43.8"/>
              <rect class="st13" x="576.9" y="463" width="56.7" height="14.8"/>
              <rect class="st7" x="655.6" y="501.5" width="29.9" height="20.1"/>
              <rect class="st7" x="585.6" y="486.5" width="61.6" height="7.5"/>
              <rect class="st13" x="585.6" y="494" width="61.6" height="7.5"/>
              <rect class="st7" x="571.8" y="501.5" width="61.8" height="20.1"/>
              <rect class="st13" x="600" y="499.7" width="7.5" height="21.9"/>
              <rect class="st13" x="688.3" y="477.8" width="15.2" height="43.8"/>
            </g>
            <g>
              <g>
                <path class="st5" d="M201.6,718.3v-94.4c.1,0,19.2,16,19.1,46.3,0,30.3-19.1,48.1-19.1,48.1h0Z"/>
                <line class="st5" x1="212.4" y1="636.6" x2="201.6" y2="636.9"/>
                <line class="st5" x1="216.4" y1="646.2" x2="201.7" y2="646.5"/>
                <line class="st5" x1="218.8" y1="655.8" x2="201.8" y2="656.2"/>
                <line class="st5" x1="219.6" y1="665.4" x2="201.9" y2="665.8"/>
                <line class="st5" x1="220.5" y1="675" x2="201.9" y2="675.5"/>
                <line class="st5" x1="218.5" y1="684.7" x2="202" y2="685.1"/>
                <line class="st5" x1="216.3" y1="694.4" x2="202.1" y2="694.8"/>
                <line class="st5" x1="211.7" y1="704.2" x2="202.2" y2="704.4"/>
              </g>
              <g>
                <path class="st5" d="M167.8,718.3v-94.4c.1,0,19.2,16,19.1,46.3,0,30.3-19.1,48.1-19.1,48.1h0Z"/>
                <line class="st5" x1="178.6" y1="636.6" x2="167.8" y2="636.9"/>
                <line class="st5" x1="182.6" y1="646.2" x2="167.9" y2="646.5"/>
                <line class="st5" x1="185" y1="655.8" x2="168" y2="656.2"/>
                <line class="st5" x1="185.9" y1="665.4" x2="168.1" y2="665.8"/>
                <line class="st5" x1="186.7" y1="675" x2="168.2" y2="675.5"/>
                <line class="st5" x1="184.8" y1="684.7" x2="168.2" y2="685.1"/>
                <line class="st5" x1="182.6" y1="694.4" x2="168.3" y2="694.8"/>
                <line class="st5" x1="177.9" y1="704.2" x2="168.4" y2="704.4"/>
              </g>
            </g>
            <g>
              <rect class="st9" x="1031" y="167.4" width="11.4" height="25.3"/>
              <rect class="st9" x="1081.7" y="167.4" width="11.4" height="25.3"/>
              <ellipse class="st15" cx="1036.7" cy="158.4" rx="21.8" ry="15.1"/>
              <ellipse class="st10" cx="1036.7" cy="137.3" rx="21.8" ry="15.1"/>
              <ellipse class="st15" cx="1087.4" cy="158.4" rx="21.8" ry="15.1"/>
              <ellipse class="st10" cx="1087.4" cy="137.3" rx="21.8" ry="15.1"/>
              <ellipse class="st15" cx="1087.4" cy="116.2" rx="21.8" ry="15.1"/>
            </g>
            <g>
              <rect class="st9" x="504.5" y="671.1" width="11.4" height="25.3"/>
              <rect class="st9" x="555.3" y="671.1" width="11.4" height="25.3"/>
              <ellipse class="st15" cx="510.2" cy="662.2" rx="21.8" ry="15.1"/>
              <ellipse class="st10" cx="510.2" cy="641" rx="21.8" ry="15.1"/>
              <rect class="st9" x="452.2" y="671.1" width="11.4" height="25.3"/>
              <ellipse class="st15" cx="457.9" cy="662.2" rx="21.8" ry="15.1"/>
              <ellipse class="st10" cx="457.9" cy="641" rx="21.8" ry="15.1"/>
              <ellipse class="st15" cx="561" cy="662.2" rx="21.8" ry="15.1"/>
              <ellipse class="st10" cx="561" cy="641" rx="21.8" ry="15.1"/>
              <ellipse class="st15" cx="561" cy="619.9" rx="21.8" ry="15.1"/>
            </g>
            <g>
              <rect class="st13" x="-19.5" y="465.2" width="33.3" height="56.4"/>
              <rect class="st13" x="106.8" y="465.2" width="25.7" height="56.4"/>
              <g>
                <rect class="st13" x="-2.8" y="474" width="150.1" height="47.6"/>
                <g>
                  <rect class="st7" x="17.7" y="484.6" width="50.8" height="7.5"/>
                  <rect class="st7" x="17.7" y="499.4" width="50.8" height="7.5"/>
                  <rect class="st7" x="76.1" y="484.6" width="50.8" height="7.5"/>
                  <rect class="st7" x="76.1" y="499.4" width="50.8" height="7.5"/>
                </g>
              </g>
            </g>
            <g>
              <g>
                <rect class="st19" x="551.4" y="7.4" width="52.6" height="101.5"/>
                <g>
                  <g>
                    <rect class="st18" x="560.1" y="23.3" width="7.5" height="7.5"/>
                    <rect class="st18" x="560.1" y="37.2" width="7.5" height="7.5"/>
                    <rect class="st18" x="560.1" y="51" width="7.5" height="7.5"/>
                    <rect class="st18" x="560.1" y="64.9" width="7.5" height="7.5"/>
                    <rect class="st18" x="560.1" y="78.8" width="7.5" height="7.5"/>
                    <rect class="st18" x="560.1" y="92.6" width="7.5" height="7.5"/>
                  </g>
                  <g>
                    <rect class="st18" x="574" y="23.3" width="7.5" height="7.5"/>
                    <rect class="st18" x="574" y="37.2" width="7.5" height="7.5"/>
                    <rect class="st18" x="574" y="51" width="7.5" height="7.5"/>
                    <rect class="st18" x="574" y="64.9" width="7.5" height="7.5"/>
                    <rect class="st18" x="574" y="78.8" width="7.5" height="7.5"/>
                    <rect class="st18" x="574" y="92.6" width="7.5" height="7.5"/>
                  </g>
                  <g>
                    <rect class="st18" x="587.8" y="23.3" width="7.5" height="7.5"/>
                    <rect class="st18" x="587.8" y="37.2" width="7.5" height="7.5"/>
                    <rect class="st18" x="587.8" y="51" width="7.5" height="7.5"/>
                    <rect class="st18" x="587.8" y="64.9" width="7.5" height="7.5"/>
                    <rect class="st18" x="587.8" y="78.8" width="7.5" height="7.5"/>
                    <rect class="st18" x="587.8" y="92.6" width="7.5" height="7.5"/>
                  </g>
                </g>
              </g>
              <g>
                <rect class="st19" x="433.4" y="-6.7" width="52.6" height="115.5"/>
                <g>
                  <g>
                    <rect class="st18" x="442.1" y="23.3" width="7.5" height="7.5"/>
                    <rect class="st18" x="442.1" y="37.2" width="7.5" height="7.5"/>
                    <rect class="st18" x="442.1" y="51" width="7.5" height="7.5"/>
                    <rect class="st18" x="442.1" y="64.9" width="7.5" height="7.5"/>
                    <rect class="st18" x="442.1" y="78.8" width="7.5" height="7.5"/>
                    <rect class="st18" x="442.1" y="92.6" width="7.5" height="7.5"/>
                  </g>
                  <g>
                    <rect class="st18" x="456" y="23.3" width="7.5" height="7.5"/>
                    <rect class="st18" x="456" y="37.2" width="7.5" height="7.5"/>
                    <rect class="st18" x="456" y="51" width="7.5" height="7.5"/>
                    <rect class="st18" x="456" y="64.9" width="7.5" height="7.5"/>
                    <rect class="st18" x="456" y="78.8" width="7.5" height="7.5"/>
                    <rect class="st18" x="456" y="92.6" width="7.5" height="7.5"/>
                  </g>
                  <g>
                    <rect class="st18" x="469.8" y="23.3" width="7.5" height="7.5"/>
                    <rect class="st18" x="469.8" y="37.2" width="7.5" height="7.5"/>
                    <rect class="st18" x="442.1" y="9.5" width="7.5" height="7.5"/>
                    <rect class="st18" x="456" y="9.5" width="7.5" height="7.5"/>
                    <rect class="st18" x="469.8" y="9.5" width="7.5" height="7.5"/>
                    <rect class="st18" x="469.8" y="51" width="7.5" height="7.5"/>
                    <rect class="st18" x="469.8" y="64.9" width="7.5" height="7.5"/>
                    <rect class="st18" x="469.8" y="78.8" width="7.5" height="7.5"/>
                    <rect class="st18" x="469.8" y="92.6" width="7.5" height="7.5"/>
                  </g>
                </g>
              </g>
              <g>
                <rect class="st19" x="492.4" y="-32.5" width="52.6" height="141.4"/>
                <g>
                  <g>
                    <rect class="st18" x="501.1" y="23.3" width="7.5" height="7.5"/>
                    <rect class="st18" x="501.1" y="37.2" width="7.5" height="7.5"/>
                    <rect class="st18" x="501.1" y="51" width="7.5" height="7.5"/>
                    <rect class="st18" x="501.1" y="64.9" width="7.5" height="7.5"/>
                    <rect class="st18" x="501.1" y="78.8" width="7.5" height="7.5"/>
                    <rect class="st18" x="501.1" y="92.6" width="7.5" height="7.5"/>
                  </g>
                  <g>
                    <rect class="st18" x="515" y="23.3" width="7.5" height="7.5"/>
                    <rect class="st18" x="515" y="37.2" width="7.5" height="7.5"/>
                    <rect class="st18" x="515" y="51" width="7.5" height="7.5"/>
                    <rect class="st18" x="515" y="64.9" width="7.5" height="7.5"/>
                    <rect class="st18" x="515" y="78.8" width="7.5" height="7.5"/>
                    <rect class="st18" x="515" y="92.6" width="7.5" height="7.5"/>
                  </g>
                  <g>
                    <rect class="st18" x="528.8" y="23.3" width="7.5" height="7.5"/>
                    <rect class="st18" x="528.8" y="37.2" width="7.5" height="7.5"/>
                    <rect class="st18" x="528.8" y="51" width="7.5" height="7.5"/>
                    <rect class="st18" x="528.8" y="64.9" width="7.5" height="7.5"/>
                    <rect class="st18" x="501.1" y="-4.4" width="7.5" height="7.5"/>
                    <rect class="st18" x="501.1" y="9.5" width="7.5" height="7.5"/>
                    <rect class="st18" x="501.1" y="23.3" width="7.5" height="7.5"/>
                    <rect class="st18" x="515" y="-4.4" width="7.5" height="7.5"/>
                    <rect class="st18" x="515" y="9.5" width="7.5" height="7.5"/>
                    <rect class="st18" x="515" y="23.3" width="7.5" height="7.5"/>
                    <rect class="st18" x="528.8" y="-4.4" width="7.5" height="7.5"/>
                    <rect class="st18" x="528.8" y="9.5" width="7.5" height="7.5"/>
                    <rect class="st18" x="528.8" y="23.3" width="7.5" height="7.5"/>
                    <rect class="st18" x="528.8" y="78.8" width="7.5" height="7.5"/>
                    <rect class="st18" x="528.8" y="92.6" width="7.5" height="7.5"/>
                  </g>
                </g>
              </g>
              <g>
                <rect class="st14" x="33.1" y="266.9" width="52.6" height="141.4"/>
                <g>
                  <g>
                    <rect class="st19" x="41.8" y="322.8" width="7.5" height="7.5"/>
                    <rect class="st19" x="41.8" y="336.6" width="7.5" height="7.5"/>
                    <rect class="st19" x="41.8" y="350.5" width="7.5" height="7.5"/>
                    <rect class="st19" x="41.8" y="364.4" width="7.5" height="7.5"/>
                    <rect class="st19" x="41.8" y="378.2" width="7.5" height="7.5"/>
                    <rect class="st19" x="41.8" y="392.1" width="7.5" height="7.5"/>
                  </g>
                  <g>
                    <rect class="st19" x="55.7" y="322.8" width="7.5" height="7.5"/>
                    <rect class="st19" x="55.7" y="336.6" width="7.5" height="7.5"/>
                    <rect class="st19" x="55.7" y="350.5" width="7.5" height="7.5"/>
                    <rect class="st19" x="55.7" y="364.4" width="7.5" height="7.5"/>
                    <rect class="st19" x="55.7" y="378.2" width="7.5" height="7.5"/>
                    <rect class="st19" x="55.7" y="392.1" width="7.5" height="7.5"/>
                  </g>
                  <g>
                    <rect class="st19" x="69.5" y="322.8" width="7.5" height="7.5"/>
                    <rect class="st19" x="69.5" y="336.6" width="7.5" height="7.5"/>
                    <rect class="st19" x="69.5" y="350.5" width="7.5" height="7.5"/>
                    <rect class="st19" x="69.5" y="364.4" width="7.5" height="7.5"/>
                    <rect class="st19" x="41.8" y="281.2" width="7.5" height="7.5"/>
                    <rect class="st19" x="41.8" y="295.1" width="7.5" height="7.5"/>
                    <rect class="st19" x="41.8" y="308.9" width="7.5" height="7.5"/>
                    <rect class="st19" x="41.8" y="322.8" width="7.5" height="7.5"/>
                    <rect class="st19" x="55.7" y="281.2" width="7.5" height="7.5"/>
                    <rect class="st19" x="55.7" y="295.1" width="7.5" height="7.5"/>
                    <rect class="st19" x="55.7" y="308.9" width="7.5" height="7.5"/>
                    <rect class="st19" x="55.7" y="322.8" width="7.5" height="7.5"/>
                    <rect class="st19" x="69.5" y="281.2" width="7.5" height="7.5"/>
                    <rect class="st19" x="69.5" y="295.1" width="7.5" height="7.5"/>
                    <rect class="st19" x="69.5" y="308.9" width="7.5" height="7.5"/>
                    <rect class="st19" x="69.5" y="322.8" width="7.5" height="7.5"/>
                    <rect class="st19" x="69.5" y="378.2" width="7.5" height="7.5"/>
                    <rect class="st19" x="69.5" y="392.1" width="7.5" height="7.5"/>
                  </g>
                </g>
              </g>
              <g>
                <rect class="st14" x="93.3" y="306.8" width="52.6" height="101.5"/>
                <g>
                  <g>
                    <rect class="st19" x="102" y="322.8" width="7.5" height="7.5"/>
                    <rect class="st19" x="102" y="336.6" width="7.5" height="7.5"/>
                    <rect class="st19" x="102" y="350.5" width="7.5" height="7.5"/>
                    <rect class="st19" x="102" y="364.4" width="7.5" height="7.5"/>
                    <rect class="st19" x="102" y="378.2" width="7.5" height="7.5"/>
                    <rect class="st19" x="102" y="392.1" width="7.5" height="7.5"/>
                  </g>
                  <g>
                    <rect class="st19" x="115.9" y="322.8" width="7.5" height="7.5"/>
                    <rect class="st19" x="115.9" y="336.6" width="7.5" height="7.5"/>
                    <rect class="st19" x="115.9" y="350.5" width="7.5" height="7.5"/>
                    <rect class="st19" x="115.9" y="364.4" width="7.5" height="7.5"/>
                    <rect class="st19" x="115.9" y="378.2" width="7.5" height="7.5"/>
                    <rect class="st19" x="115.9" y="392.1" width="7.5" height="7.5"/>
                  </g>
                  <g>
                    <rect class="st19" x="129.8" y="322.8" width="7.5" height="7.5"/>
                    <rect class="st19" x="129.8" y="336.6" width="7.5" height="7.5"/>
                    <rect class="st19" x="129.8" y="350.5" width="7.5" height="7.5"/>
                    <rect class="st19" x="129.8" y="364.4" width="7.5" height="7.5"/>
                    <rect class="st19" x="129.8" y="378.2" width="7.5" height="7.5"/>
                    <rect class="st19" x="129.8" y="392.1" width="7.5" height="7.5"/>
                  </g>
                </g>
              </g>
            </g>
            <g>
              <rect class="st7" x="743.5" y="514.1" width="15.6" height="7.5"/>
              <rect class="st13" x="709.3" y="477.8" width="53.5" height="36.3"/>
              <rect class="st7" x="713.1" y="481.6" width="45.9" height="28.8"/>
              <rect class="st13" x="713.1" y="514.1" width="30.4" height="7.5"/>
            </g>
          </g>
        </g>
        <rect class="st13" x="778" y="430.6" width="270.1" height="137.5"/>
        <polygon class="st13" points="353.9 134.1 185.6 430.6 185.6 568.1 491.8 568.1 491.8 430.6 679 430.6 679 134.1 353.9 134.1"/>
        <g>
          <path class="st20" d="M569.1,534.9c1-.6,1.7-1.1,2.1-1.7.5-.6.7-1.2.7-2v-.5h1.2s0,.5,0,.5c0,1-.2,1.8-.8,2.6s-1.4,1.4-2.6,2.1l-.6-1h0ZM569.5,531.2v-1.1h6c0,0,0,1,0,1h-6ZM573.6,540.8c-.5,0-1,0-1.4-.3-.4-.2-.7-.5-.9-.8s-.3-.7-.3-1.2c0-.4,0-.8.3-1.2.2-.3.5-.6.9-.8.4-.2.9-.3,1.4-.3h2.4c.5,0,1,0,1.4.2.4.2.7.5.9.8.2.3.3.7.3,1.2s0,.8-.3,1.2c-.2.3-.5.6-.9.8-.4.2-.9.3-1.4.3h-2.4s0,0,0,0ZM575.4,535.6l-3.6-2.3.6-.9,3.6,2.2-.6,1h0ZM575.9,539.7c.5,0,.9-.1,1.2-.3.3-.2.4-.5.4-.9s-.2-.7-.4-.9c-.3-.2-.7-.3-1.2-.3h-2c-.5,0-1,.2-1.2.4-.3.2-.4.5-.4.9s.2.7.4.9c.3.2.7.3,1.2.3h2s0,0,0,0ZM575.1,533v-1h2.8s0,1,0,1h-2.8ZM577.3,535.6v-6.1c0,0,1.1,0,1.1,0v6.1c0,0-1.1,0-1.1,0Z"/>
          <path class="st20" d="M583.6,535.3c-.9,0-1.6-.2-2.1-.7-.5-.5-.8-1.1-.8-2v-.2c0-.6.1-1.1.4-1.5s.6-.7,1-.9c.4-.2.9-.3,1.5-.3.5,0,1,0,1.5.3s.8.5,1,.9.4.9.4,1.5v.2c0,.6-.1,1.1-.4,1.5s-.6.7-1,.9c-.4.2-.9.3-1.5.3h0ZM583.6,534.2c.5,0,.9-.2,1.2-.4s.5-.7.5-1.2v-.2c0-.5-.2-.9-.5-1.2-.3-.3-.7-.4-1.2-.4-.5,0-.9.2-1.2.4s-.5.7-.5,1.2v.2c0,.5.2.9.5,1.2.3.3.8.4,1.3.4h0ZM588.4,540.7v-3.2s-6.1,0-6.1,0v-1.1h7.2c0,0,0,4.2,0,4.2h-1.2,0ZM588.3,535.7v-6.2c0,0,1.1,0,1.1,0v6.2c0,0-1.1,0-1.1,0h0ZM589,531.7v-1h2.1s0,1,0,1h-2.1ZM589.1,533.9v-1h2.1s0,1,0,1h-2.1Z"/>
          <path class="st20" d="M592.2,535.6v-1h10.5c0-.1,0,.9,0,.9h-10.5ZM595,533.3c-.5-.1-.9-.4-1.2-.7s-.4-.7-.5-1.2c0-.7.3-1.2.8-1.5.6-.3,1.3-.5,2.3-.5h1.8c1,0,1.7.1,2.3.5.6.3.8.8.9,1.5,0,.5-.1.9-.4,1.2-.3.3-.7.5-1.2.7v1.8s-1.1,0-1.1,0v-1.6c-.4,0-.8,0-1.2,0h-1.2v1.6s-1.1,0-1.1,0v-1.7s0,0,0,0ZM596.2,540.6c-.6,0-1.1,0-1.5-.2s-.8-.4-1-.7-.3-.7-.3-1,0-.7.3-1,.5-.5,1-.7.9-.3,1.5-.3h2.5c.6,0,1.1,0,1.5.2s.8.4,1,.7.3.7.3,1,0,.7-.3,1-.5.5-1,.7-.9.3-1.5.3h-2.5ZM598.1,532.5c.7,0,1.2,0,1.6-.3.4-.2.5-.4.5-.8s-.2-.6-.6-.8-.9-.2-1.6-.2h-1.3c-.7,0-1.2.1-1.6.3-.4.2-.5.4-.5.8,0,.3.2.6.6.8s.9.2,1.6.2h1.3s0,0,0,0ZM598.5,539.5c.6,0,1.1,0,1.4-.3.3-.2.5-.4.5-.7s-.2-.5-.5-.7c-.3-.2-.8-.2-1.4-.2h-2.1c-.6,0-1.1.1-1.4.3s-.5.4-.5.7.2.5.5.7c.3.2.8.2,1.4.2h2.1s0,0,0,0Z"/>
          <path class="st20" d="M603.9,539.5v-1.1h10.5c0-.1,0,1,0,1h-10.5ZM612.8,529.8v1.1h-6.6c0,0,0,3.8,0,3.8h6.7c0,0,0,1,0,1h-7.9c0,0,0-5.8,0-5.8h7.8c0,0,0,0,0,0ZM608.5,539.2v-4s1.1,0,1.1,0v4s-1.1,0-1.1,0Z"/>
          <path class="st20" d="M615.5,537.9c1-1,1.7-2.1,2.2-3.2.5-1.1.7-2.3.7-3.6v-1.5s1.1,0,1.1,0v1.4c0,1.4-.2,2.8-.7,4s-1.3,2.4-2.4,3.5l-.8-.8ZM621.7,538.5l-3.5-4.2.9-.8,3.6,4.1-.9.8h0ZM621.1,533.9v-1.1h3.2s0,1.1,0,1.1h-3.2ZM623.8,540.1v-11.1c-.1,0,1.1,0,1.1,0v11.1c.1,0-1.1,0-1.1,0Z"/>
          <path class="st20" d="M627,535.9v-1.1c0,0,1.8,0,1.8,0,.7,0,1.5,0,2.5-.1,1,0,1.8-.2,2.7-.3v1c-.7.1-1.6.2-2.5.3s-1.9.1-2.7.1h-1.8s0,0,0,0ZM631.7,533.6c0-.6.2-1.2.2-1.7s0-1,0-1.4v-.5l.4.5h-4.8c0,0,0-1,0-1h5.6c0,0,0,.5,0,.5,0,1.2,0,2.4-.3,3.7h-1.1c0-.1,0-.1,0-.1ZM628.9,540v-3s1.2,0,1.2,0v1.9s6.7,0,6.7,0v1.1h-7.8q0,0,0,.1ZM629.2,535v-2.9s1.2,0,1.2,0v2.9s-1.2,0-1.2,0h0ZM634.9,537.4v-8.6c-.1,0,1.1,0,1.1,0v8.6c.1,0-1.1,0-1.1,0ZM635.6,533.3v-1.1h2.1s0,1.1,0,1.1h-2.1Z"/>
        </g>
        <g>
          <path class="st20" d="M708.6,534.7c1.4-.4,2.5-1,3.2-1.6.8-.7,1.1-1.3,1.1-2v-.3l.4.5h-4.5c0,0,0-1,0-1h5.3c0,0,0,.5,0,.5,0,1.2-.4,2.2-1.3,3s-2.1,1.5-3.8,2l-.5-1.1h0ZM712.7,540.8c-.5,0-1,0-1.4-.3-.4-.2-.7-.5-.9-.8-.2-.3-.3-.7-.3-1.2s0-.8.3-1.2.5-.6.9-.8c.4-.2.9-.3,1.4-.3h2.4c.5,0,1,0,1.4.2.4.2.7.5,1,.8.2.3.3.7.3,1.2,0,.5,0,.8-.3,1.2-.2.3-.5.6-.9.8-.4.2-.9.3-1.4.3h-2.4s0,0,0,0ZM715,539.7c.5,0,1-.1,1.2-.3.3-.2.4-.5.4-.9s-.2-.7-.4-.9c-.3-.2-.7-.3-1.2-.3h-2c-.5,0-1,.2-1.2.4-.3.2-.4.5-.4.9s.2.7.4.9c.3.2.7.3,1.2.3h2ZM713.7,532.2v-1h3.3s0,.9,0,.9h-3.3ZM713.9,534.3v-1h3.1s0,.9,0,.9h-3.1ZM716.4,535.5v-6.1c0,0,1.1,0,1.1,0v6.1c0,0-1.1,0-1.1,0h0Z"/>
          <path class="st20" d="M720.2,538.3c.9-.6,1.7-1.3,2.4-2.1.7-.8,1.1-1.5,1.5-2.3.3-.8.5-1.6.5-2.4v-.5l.4.4h-4.6c0,0,0-1,0-1h5.4c0,0,0,.9,0,.9,0,1.6-.4,3-1.2,4.4s-2,2.6-3.6,3.6l-.7-.9h0ZM728.1,540.5v-11.1c-.1,0,1,0,1,0v11.1c.1,0-1,0-1,0h0Z"/>
          <path class="st20" d="M731.3,538.1c1-1,1.7-2.1,2.2-3.2s.7-2.3.7-3.6v-1.5s1.1,0,1.1,0v1.4c0,1.4-.2,2.8-.7,4s-1.3,2.4-2.4,3.5l-.8-.8ZM737.5,538.7l-3.5-4.2.9-.8,3.6,4.1-.9.8h0ZM739.7,540.3v-11.1c-.1,0,1.1,0,1.1,0v11.1c.1,0-1.1,0-1.1,0h0Z"/>
          <path class="st20" d="M743,534.6c1-.5,1.7-1,2.1-1.6s.7-1.2.7-1.8v-.3h1.2s0,.3,0,.3c0,.9-.3,1.8-.8,2.5-.6.7-1.4,1.3-2.6,1.9l-.5-1h0ZM743.4,531.4v-1.1h6.1c0,0,0,1,0,1h-6.1ZM747.6,540.3c-.5,0-1,0-1.4-.3s-.7-.4-.9-.8-.3-.7-.3-1.1c0-.4,0-.8.3-1.1s.5-.6.9-.8c.4-.2.9-.3,1.4-.3h2.4c.5,0,1,0,1.4.2s.7.4.9.8.3.7.3,1.1c0,.4,0,.8-.3,1.1s-.5.6-.9.8c-.4.2-.9.3-1.4.3h-2.4ZM745.8,530.7v-1.8s1.1,0,1.1,0v1.8s-1.1,0-1.1,0h0ZM749.3,535.3l-3.5-2.2.6-.9,3.5,2.1-.6,1h0ZM749.8,539.2c.5,0,1-.1,1.2-.3s.4-.5.4-.8-.2-.6-.4-.8-.7-.3-1.2-.3h-2c-.5,0-1,.1-1.2.4-.3.2-.4.5-.4.8s.2.6.4.8.7.3,1.2.3h2ZM749.1,532.9v-1h2.8s0,1,0,1h-2.8ZM751.3,535.3v-6.3c0,0,1.1,0,1.1,0v6.3c0,0-1.1,0-1.1,0h0Z"/>
          <path class="st20" d="M754.4,537.8c.6-.7,1.1-1.4,1.5-2s.7-1.3.9-2.1.3-1.5.3-2.3v-.9h1.2s0,.9,0,.9c0,1.3-.2,2.6-.7,3.8s-1.3,2.3-2.3,3.5l-.9-.8h0ZM754.7,531v-1.1h5.9c0,0,0,1,0,1h-5.9ZM760.3,538.4l-3.4-4.1.9-.8,3.4,4.1-.9.8h0ZM762.3,540v-11.1c-.1,0,1.1,0,1.1,0v11.1c.1,0-1.1,0-1.1,0ZM763,534.2v-1.1h2.1s0,1.1,0,1.1h-2.1Z"/>
          <path class="st20" d="M708.9,554.9v-8.5c-.1,0,5.4,0,5.4,0v8.5c.1,0-5.4,0-5.4,0ZM710,553.8h3.1s0-6.3,0-6.3h-3.1s0,6.3,0,6.3ZM716.7,556.6v-11.1c-.1,0,1,0,1,0v11.1c.1,0-1,0-1,0h0Z"/>
          <path class="st20" d="M720.7,554.7v-8.5c-.1,0,5.4,0,5.4,0v1.1h-4.3s0,6.4,0,6.4h.9c.6,0,1.3,0,2.1-.1s1.5-.2,2.2-.3l.2,1.1c-.7.1-1.4.2-2.2.3s-1.6.1-2.4.1h-1.9s0,0,0,0ZM728.3,556.5v-11.1c-.1,0,1,0,1,0v11.1c.1,0-1,0-1,0h0Z"/>
          <path class="st20" d="M734.9,554.9c-.9,0-1.6-.3-2.2-.9s-.8-1.5-.9-2.8v-1.7c0-1.3.2-2.2.8-2.8.5-.6,1.2-.9,2.1-.9.9,0,1.6.3,2.1.9.5.6.8,1.5.8,2.8v1.7c0,1.3-.2,2.2-.8,2.8s-1.2.9-2.1.9h0ZM734.9,553.8c.5,0,1-.2,1.3-.7s.5-1.1.5-2v-1.7c0-.9-.2-1.6-.5-2-.3-.4-.8-.6-1.3-.6-.5,0-1,.2-1.3.7-.3.4-.5,1.1-.5,2v1.7c0,.9.2,1.6.5,2s.8.6,1.3.6h0ZM737.2,550.6v-1.1h3.2s0,1.1,0,1.1h-3.2ZM739.9,556.3v-11.1c-.1,0,1.1,0,1.1,0v11.1c.1,0-1.1,0-1.1,0h0Z"/>
          <path class="st20" d="M743,551c.8-.7,1.3-1.4,1.7-2.1s.5-1.6.5-2.5v-.9h1.1s0,.9,0,.9c0,1.1-.2,2.1-.6,3-.4.9-1.1,1.7-2,2.5l-.7-.8h0ZM747.9,551.5l-2.7-2.6.8-.8,2.7,2.6-.7.8h0ZM745.4,556.2v-3.5s1.2,0,1.2,0v2.4s6.8,0,6.8,0v1.1h-8q0,0,0,0ZM747.6,548.6v-1.1h2.1s0,1,0,1h-2.1ZM749.4,553v-7.9c0,0,1,0,1,0v7.9c0,0-1,0-1,0h0ZM751.7,553.4v-8.3c0,0,1,0,1,0v8.3c0,0-1,0-1,0h0Z"/>
          <path class="st20" d="M755.4,554.5v-8.7c-.1,0,5.4,0,5.4,0v1.1h-4.3s0,6.6,0,6.6h1.1c.7,0,1.3,0,2.1-.1.7,0,1.4-.2,2.1-.3l.2,1c-.6.1-1.3.2-2.1.3-.8,0-1.6.1-2.4.1h-2.1s0,0,0,0ZM755.9,550.6v-1.1h4.8c0,0,0,1,0,1h-4.8ZM761.2,550.3v-1.1h2.4s0,1.1,0,1.1h-2.4ZM763.2,556v-11.1c-.1,0,1,0,1,0v11.1c.1,0-1,0-1,0Z"/>
        </g>
        <g>
          <path class="st20" d="M966.6,360.6v-1.1c0,0,2,0,2,0,.7,0,1.5,0,2.5-.1,1,0,1.9-.1,2.8-.2v1.1c-.7.1-1.6.2-2.6.3s-1.9.1-2.8.1h-1.9ZM970.1,357.9c-.6,0-1.1-.1-1.5-.3s-.8-.5-1.1-1-.4-1-.4-1.6v-.2c0-.6.1-1.2.4-1.6s.6-.8,1.1-1,1-.3,1.5-.3,1.1.1,1.5.3.8.5,1.1,1,.4,1,.4,1.6v.2c0,.6-.1,1.2-.4,1.6s-.6.8-1.1,1-1,.3-1.5.3ZM970.1,356.8c.5,0,1-.2,1.3-.5.3-.3.5-.8.5-1.4v-.2c0-.6-.2-1.1-.5-1.4s-.8-.5-1.3-.5-1,.2-1.3.5-.5.8-.5,1.4v.2c0,.6.2,1.1.5,1.4s.8.5,1.3.5ZM974.8,362.3v-11.1h1.2v11.1h-1.2Z"/>
          <path class="st20" d="M978.2,356.4c1-.5,1.7-1.1,2.2-1.7.5-.6.7-1.2.7-2v-.5h1.2v.5c0,1-.3,1.8-.8,2.5s-1.4,1.4-2.6,2.1l-.6-1ZM978.6,352.8v-1.1h6v1.1h-6ZM982.7,362.5c-.5,0-1-.1-1.4-.3-.4-.2-.7-.5-.9-.8s-.3-.8-.3-1.2.1-.8.3-1.2c.2-.4.5-.6.9-.8.4-.2.9-.3,1.4-.3h2.4c.5,0,1,.1,1.4.3.4.2.7.5.9.8s.3.7.3,1.2-.1.9-.3,1.2c-.2.4-.5.6-.9.8-.4.2-.9.3-1.4.3h-2.4ZM984.5,357.2l-3.6-2.4.6-.9,3.6,2.3-.6,1h0ZM984.9,361.4c.5,0,.9-.1,1.2-.3.3-.2.4-.5.4-.9s-.1-.7-.4-.9c-.3-.2-.7-.3-1.2-.3h-2c-.5,0-1,.1-1.2.3-.3.2-.4.5-.4.9s.1.7.4.9c.3.2.7.3,1.2.3h2ZM984.2,354.6v-1h2.8v1h-2.8ZM986.4,357.3v-6.1h1.2v6.1h-1.2Z"/>
          <path class="st20" d="M989.7,359.3v-1.1h10.5v1.1h-10.5ZM991,356.8v-5.1h1.2v4.1h5.5v-4.1h1.2v5.1h-7.9ZM991.6,354.3v-1h6.6v1h-6.6ZM994.3,362.5v-3.9h1.2v3.9h-1.2Z"/>
          <path class="st20" d="M1001.4,360c.7-.7,1.2-1.3,1.6-2s.8-1.3,1-2,.3-1.5.3-2.3v-.9h1.2v.9c0,1.4-.3,2.6-.8,3.8-.5,1.2-1.3,2.3-2.5,3.4l-.8-.8h0ZM1001.9,353.2v-1.1h6.2v1.1h-6.2ZM1007.6,360.7l-3.5-4.2.8-.8,3.5,4.2-.9.8ZM1009.6,362.3v-11.1h1.2v11.1h-1.2Z"/>
          <path class="st20" d="M1013.1,356.8v-5.2h1.2v4.1h3.1v-4.1h1.2v5.2h-5.4ZM1013.7,354.2v-1.1h4.3v1.1h-4.3ZM1017.1,362.5c-.5,0-1-.1-1.4-.3s-.7-.5-.9-.8c-.2-.3-.3-.7-.3-1.2s.1-.8.3-1.2c.2-.3.5-.6.9-.8.4-.2.9-.3,1.4-.3h2.3c.5,0,1,.1,1.4.3s.7.5.9.8c.2.3.3.7.3,1.2s-.1.8-.3,1.2c-.2.3-.5.6-.9.8-.4.2-.9.3-1.4.3h-2.3ZM1019.3,361.4c.5,0,.9-.1,1.2-.3.3-.2.4-.5.4-.9s-.1-.6-.4-.9c-.3-.2-.7-.3-1.2-.3h-2c-.5,0-.9.1-1.2.3-.3.2-.4.5-.4.9s.1.7.4.9.7.3,1.2.3h2ZM1020.6,357.3v-6.1h1.2v6.1h-1.2ZM1021.4,354.6v-1.1h2.2v1.1h-2.2Z"/>
          <path class="st20" d="M1025.1,356.7v-5h1.2v4h3.2v-4h1.2v5h-5.5ZM1025.6,354.2v-1.1h4.4v1.1h-4.4ZM1026.7,362.3v-4.7h1.2v3.6h5v-3.6h1.2v4.7h-7.4,0ZM1027.5,359.9v-1h5.8v1h-5.8ZM1030.2,354.6v-1.1h3.3v1.1h-3.3ZM1032.9,357v-5.8h1.2v5.8h-1.2Z"/>
          <path class="st20" d="M1036.3,357.6v-1c0,0,1.9,0,1.9,0,.7,0,1.6,0,2.5-.1,1,0,1.9-.1,2.8-.2v1c-.7.1-1.6.2-2.6.3-1,0-1.9.1-2.8.1h-1.9,0ZM1039.8,355.7c-.9,0-1.6-.2-2.2-.5-.6-.4-.8-.9-.8-1.5h0c0-.8.3-1.3.8-1.7.6-.4,1.3-.5,2.2-.5s1.6.2,2.2.5c.6.4.8.9.8,1.5h0c0,.8-.3,1.3-.8,1.7-.6.4-1.3.5-2.2.5h0ZM1039.8,354.7c.6,0,1-.1,1.3-.3s.5-.5.5-.8h0c0-.4-.2-.7-.5-.9s-.8-.3-1.3-.3-1,.1-1.3.3-.5.5-.5.8h0c0,.4.2.7.5.9.3.2.8.3,1.3.3ZM1038.2,362.3v-2.6h1.2v1.5h6.8v1.1h-7.9ZM1038.9,359.3c0-1,.2-1.7.2-2.2h1.2c0,.8,0,1.5-.2,2.3h-1.2ZM1041.4,359.1v-.9h3.7v.9h-3.7ZM1044.5,360.1v-8.9h1.2v8.9h-1.2Z"/>
          <path class="st20" d="M978.3,372.8v-5.1h1.2v4h.9c.6,0,1.3,0,2,0,.7,0,1.5-.1,2.2-.3v1.1c-.6.1-1.3.2-2.1.3s-1.6.1-2.3.1h-1.9,0ZM979.9,378.3v-4.4h7.1v4.4h-7.1ZM981,377.2h4.7v-2.3h-4.7v2.3ZM985.8,373.2v-6h1.2v6h-1.2ZM986.6,370.6v-1.1h2.2v1.1h-2.2Z"/>
          <path class="st20" d="M992.7,372.9c-.9,0-1.6-.2-2.1-.7-.5-.5-.8-1.1-.8-2v-.2c0-.6.1-1.1.4-1.5s.6-.7,1-.9,1-.3,1.5-.3,1,.1,1.5.3c.4.2.8.5,1,.9s.4.9.4,1.5v.2c0,.6-.1,1-.4,1.5s-.6.7-1,.9-.9.3-1.5.3h0ZM992.7,371.9c.5,0,.9-.1,1.2-.4s.5-.7.5-1.2v-.2c0-.5-.2-.9-.5-1.2-.3-.3-.7-.4-1.2-.4s-.9.1-1.3.4c-.3.3-.5.7-.5,1.2v.2c0,.5.2.9.5,1.2.3.3.7.4,1.3.4h0ZM993.9,378.5c-.5,0-1-.1-1.4-.3-.4-.2-.7-.5-.9-.8s-.3-.8-.3-1.2.1-.8.3-1.2.5-.6.9-.8c.4-.2.9-.3,1.4-.3h2.3c.5,0,1,.1,1.4.3.4.2.7.5.9.8s.3.7.3,1.2-.1.9-.3,1.2-.5.6-.9.8c-.4.2-.9.3-1.4.3h-2.3ZM996,377.4c.5,0,.9-.1,1.2-.3.3-.2.4-.5.4-.9s-.1-.7-.4-.9c-.3-.2-.7-.3-1.2-.3h-2c-.5,0-.9.1-1.2.3-.3.2-.4.5-.4.9s.1.7.4.9c.3.2.7.3,1.2.3h2ZM997.4,373.3v-6.1h1.2v6.1h-1.2ZM998.2,369.4v-1h2.2v1h-2.2ZM998.2,371.7v-1h2.2v1h-2.2Z"/>
          <path class="st20" d="M1001.3,375.2v-1.1h10.5v1.1h-10.5ZM1002.1,372c1.3-.5,2.3-1,3-1.5.6-.5,1-1.1,1-1.7v-.7h1.2v.6c0,.9-.4,1.7-1.1,2.4-.8.7-1.9,1.3-3.5,1.9l-.4-1h0ZM1002.7,368.8v-1.1h7.7v1.1h-7.7ZM1010.4,373l-4.6-2.3.5-1,4.6,2.3-.5,1h0ZM1005.9,378.5v-4.1h1.2v4.1h-1.2Z"/>
          <path class="st20" d="M1013,376c.7-.7,1.2-1.3,1.6-2s.8-1.3,1-2,.3-1.5.3-2.3v-.9h1.2v.9c0,1.4-.3,2.6-.8,3.8-.5,1.2-1.3,2.3-2.5,3.4l-.8-.8h0ZM1013.5,369.2v-1.1h6.2v1.1h-6.2ZM1019.2,376.7l-3.5-4.2.8-.8,3.5,4.2-.9.8ZM1021.3,378.3v-11.1h1.2v11.1h-1.2Z"/>
          <path class="st20" d="M1024.7,373.6v-1c0,0,1.9,0,1.9,0,.7,0,1.6,0,2.5-.1,1,0,1.9-.1,2.8-.2v1c-.7.1-1.6.2-2.6.3-1,0-1.9.1-2.8.1h-1.9,0ZM1028.2,371.7c-.9,0-1.6-.2-2.2-.5-.6-.4-.8-.9-.8-1.5h0c0-.8.3-1.3.8-1.7.6-.4,1.3-.5,2.2-.5s1.6.2,2.2.5c.6.4.8.9.8,1.5h0c0,.8-.3,1.3-.8,1.7-.6.4-1.3.5-2.2.5h0ZM1028.2,370.7c.6,0,1-.1,1.3-.3s.5-.5.5-.8h0c0-.4-.2-.7-.5-.9s-.8-.3-1.3-.3-1,.1-1.3.3-.5.5-.5.8h0c0,.4.2.7.5.9.3.2.8.3,1.3.3ZM1026.6,378.3v-2.6h1.2v1.5h6.8v1.1h-7.9ZM1027.3,375.3c0-1,.2-1.7.2-2.2h1.2c0,.8,0,1.5-.2,2.3h-1.2ZM1029.8,375.1v-.9h3.7v.9h-3.7ZM1032.9,376.1v-8.9h1.2v8.9h-1.2Z"/>
        </g>
        <g>
          <path class="st20" d="M732.2,360.6v-1.1c0,0,2,0,2,0,.7,0,1.5,0,2.5-.1,1,0,1.9-.1,2.8-.2v1.1c-.7.1-1.6.2-2.6.3s-1.9.1-2.8.1h-1.9ZM735.7,357.9c-.6,0-1.1-.1-1.5-.3s-.8-.5-1.1-1-.4-1-.4-1.6v-.2c0-.6.1-1.2.4-1.6s.6-.8,1.1-1,1-.3,1.5-.3,1.1.1,1.5.3.8.5,1.1,1,.4,1,.4,1.6v.2c0,.6-.1,1.2-.4,1.6s-.6.8-1.1,1-1,.3-1.5.3ZM735.7,356.8c.5,0,1-.2,1.3-.5.3-.3.5-.8.5-1.4v-.2c0-.6-.2-1.1-.5-1.4s-.8-.5-1.3-.5-1,.2-1.3.5-.5.8-.5,1.4v.2c0,.6.2,1.1.5,1.4s.8.5,1.3.5ZM740.4,362.3v-11.1h1.2v11.1h-1.2Z"/>
          <path class="st20" d="M743.8,356.4c1-.5,1.7-1.1,2.2-1.7.5-.6.7-1.2.7-2v-.5h1.2v.5c0,1-.3,1.8-.8,2.5s-1.4,1.4-2.6,2.1l-.6-1ZM744.2,352.8v-1.1h6v1.1h-6ZM748.3,362.5c-.5,0-1-.1-1.4-.3-.4-.2-.7-.5-.9-.8s-.3-.8-.3-1.2.1-.8.3-1.2c.2-.4.5-.6.9-.8.4-.2.9-.3,1.4-.3h2.4c.5,0,1,.1,1.4.3.4.2.7.5.9.8s.3.7.3,1.2-.1.9-.3,1.2c-.2.4-.5.6-.9.8-.4.2-.9.3-1.4.3h-2.4ZM750.1,357.2l-3.6-2.4.6-.9,3.6,2.3-.6,1h0ZM750.5,361.4c.5,0,.9-.1,1.2-.3.3-.2.4-.5.4-.9s-.1-.7-.4-.9c-.3-.2-.7-.3-1.2-.3h-2c-.5,0-1,.1-1.2.3-.3.2-.4.5-.4.9s.1.7.4.9c.3.2.7.3,1.2.3h2ZM749.8,354.6v-1h2.8v1h-2.8ZM752,357.3v-6.1h1.2v6.1h-1.2Z"/>
          <path class="st20" d="M755.3,359.3v-1.1h10.5v1.1h-10.5ZM756.6,356.8v-5.1h1.2v4.1h5.5v-4.1h1.2v5.1h-7.9ZM757.2,354.3v-1h6.6v1h-6.6ZM759.9,362.5v-3.9h1.2v3.9h-1.2Z"/>
          <path class="st20" d="M767,360c.7-.7,1.2-1.3,1.6-2s.8-1.3,1-2,.3-1.5.3-2.3v-.9h1.2v.9c0,1.4-.3,2.6-.8,3.8-.5,1.2-1.3,2.3-2.5,3.4l-.8-.8h0ZM767.5,353.2v-1.1h6.2v1.1h-6.2ZM773.2,360.7l-3.5-4.2.8-.8,3.5,4.2-.9.8ZM775.2,362.3v-11.1h1.2v11.1h-1.2Z"/>
          <path class="st20" d="M778.7,356.8v-5.2h1.2v4.1h3.1v-4.1h1.2v5.2h-5.4ZM779.3,354.2v-1.1h4.3v1.1h-4.3ZM782.7,362.5c-.5,0-1-.1-1.4-.3s-.7-.5-.9-.8c-.2-.3-.3-.7-.3-1.2s.1-.8.3-1.2c.2-.3.5-.6.9-.8.4-.2.9-.3,1.4-.3h2.3c.5,0,1,.1,1.4.3s.7.5.9.8c.2.3.3.7.3,1.2s-.1.8-.3,1.2c-.2.3-.5.6-.9.8-.4.2-.9.3-1.4.3h-2.3ZM784.9,361.4c.5,0,.9-.1,1.2-.3.3-.2.4-.5.4-.9s-.1-.6-.4-.9c-.3-.2-.7-.3-1.2-.3h-2c-.5,0-.9.1-1.2.3-.3.2-.4.5-.4.9s.1.7.4.9.7.3,1.2.3h2ZM786.2,357.3v-6.1h1.2v6.1h-1.2ZM787,354.6v-1.1h2.2v1.1h-2.2Z"/>
          <path class="st20" d="M790.7,356.2c1.4-.4,2.5-.9,3.2-1.5.8-.6,1.2-1.3,1.2-2v-.3l.4.5h-4.6v-1.1h5.4v.6c0,1.2-.5,2.1-1.3,3s-2.2,1.5-3.8,2l-.4-1.1h0ZM792.3,362.3v-4.4h7.4v4.4h-7.4ZM793.5,361.2h5v-2.3h-5v2.3ZM795.1,355.1v-1.1h3.9v1.1h-3.9ZM798.5,357.2v-6h1.2v6h-1.2Z"/>
          <path class="st20" d="M801.5,356.1c1-.4,1.7-.8,2.1-1.3s.7-1,.7-1.6v-.2h1.1v.2c0,.9-.3,1.7-.9,2.3s-1.5,1.2-2.7,1.7l-.4-1h0ZM801.9,353.4v-1h6.1v1h-6.1ZM803.5,362.4v-2.9h5.9v-.9h-6v-1h7.2v2.9h-5.9v1h6.3v1h-7.5ZM807.8,356.9l-3.5-1.9.5-.9,3.5,1.8-.5,1ZM804.4,352.7v-1.7h1.1v1.7h-1.1ZM809.5,356.9v-5.7h1.2v5.7h-1.2ZM810.2,354.5v-1.1h2.1v1.1h-2.1Z"/>
          <path class="st20" d="M813.5,356.6c1-.5,1.7-1,2.1-1.5s.7-1.1.7-1.8v-.3h1.2v.3c0,.9-.3,1.8-.9,2.5-.6.7-1.5,1.3-2.6,1.9l-.5-1h0ZM813.9,353.5v-1.1h6.1v1.1h-6.1ZM818,362.5c-.5,0-1,0-1.4-.3-.4-.2-.7-.4-.9-.8-.2-.3-.3-.7-.3-1.1s.1-.8.3-1.1c.2-.3.5-.6.9-.8.4-.2.9-.3,1.4-.3h2.4c.5,0,1,0,1.4.3.4.2.7.4.9.8.2.3.3.7.3,1.1s-.1.8-.3,1.1c-.2.3-.5.6-.9.8-.4.2-.9.3-1.4.3h-2.4ZM819.8,357.4l-3.5-2.2.6-.9,3.5,2.1-.6,1h0ZM816.3,352.8v-1.8h1.2v1.8h-1.2ZM820.2,361.4c.5,0,1-.1,1.2-.3.3-.2.4-.5.4-.8s-.1-.6-.4-.8c-.3-.2-.7-.3-1.2-.3h-2c-.5,0-1,.1-1.2.3s-.4.5-.4.8.1.6.4.8.7.3,1.2.3h2ZM819.5,355v-1h2.8v1h-2.8ZM821.7,357.5v-6.3h1.2v6.3h-1.2Z"/>
          <path class="st20" d="M749.8,372.8v-5.1h1.2v4h.9c.6,0,1.3,0,2,0,.7,0,1.5-.1,2.2-.3v1.1c-.6.1-1.3.2-2.1.3s-1.6.1-2.3.1h-1.9,0ZM751.3,378.3v-4.4h7.1v4.4h-7.1ZM752.5,377.2h4.7v-2.3h-4.7v2.3ZM757.2,373.2v-6h1.2v6h-1.2ZM758,370.6v-1.1h2.2v1.1h-2.2Z"/>
          <path class="st20" d="M764.1,372.9c-.9,0-1.6-.2-2.1-.7-.5-.5-.8-1.1-.8-2v-.2c0-.6.1-1.1.4-1.5s.6-.7,1-.9,1-.3,1.5-.3,1,.1,1.5.3c.4.2.8.5,1,.9s.4.9.4,1.5v.2c0,.6-.1,1-.4,1.5s-.6.7-1,.9-.9.3-1.5.3h0ZM764.1,371.9c.5,0,.9-.1,1.2-.4s.5-.7.5-1.2v-.2c0-.5-.2-.9-.5-1.2-.3-.3-.7-.4-1.2-.4s-.9.1-1.3.4c-.3.3-.5.7-.5,1.2v.2c0,.5.2.9.5,1.2.3.3.7.4,1.3.4h0ZM765.3,378.5c-.5,0-1-.1-1.4-.3-.4-.2-.7-.5-.9-.8s-.3-.8-.3-1.2.1-.8.3-1.2.5-.6.9-.8c.4-.2.9-.3,1.4-.3h2.3c.5,0,1,.1,1.4.3.4.2.7.5.9.8s.3.7.3,1.2-.1.9-.3,1.2-.5.6-.9.8c-.4.2-.9.3-1.4.3h-2.3ZM767.5,377.4c.5,0,.9-.1,1.2-.3.3-.2.4-.5.4-.9s-.1-.7-.4-.9c-.3-.2-.7-.3-1.2-.3h-2c-.5,0-.9.1-1.2.3-.3.2-.4.5-.4.9s.1.7.4.9c.3.2.7.3,1.2.3h2ZM768.8,373.3v-6.1h1.2v6.1h-1.2ZM769.6,369.4v-1h2.2v1h-2.2ZM769.6,371.7v-1h2.2v1h-2.2Z"/>
          <path class="st20" d="M772.7,375.2v-1.1h10.5v1.1h-10.5ZM773.5,372c1.3-.5,2.3-1,3-1.5.6-.5,1-1.1,1-1.7v-.7h1.2v.6c0,.9-.4,1.7-1.1,2.4-.8.7-1.9,1.3-3.5,1.9l-.4-1h0ZM774.1,368.8v-1.1h7.7v1.1h-7.7ZM781.9,373l-4.6-2.3.5-1,4.6,2.3-.5,1h0ZM777.4,378.5v-4.1h1.2v4.1h-1.2Z"/>
          <path class="st20" d="M784.5,376c.7-.7,1.2-1.3,1.6-2s.8-1.3,1-2,.3-1.5.3-2.3v-.9h1.2v.9c0,1.4-.3,2.6-.8,3.8-.5,1.2-1.3,2.3-2.5,3.4l-.8-.8h0ZM784.9,369.2v-1.1h6.2v1.1h-6.2ZM790.6,376.7l-3.5-4.2.8-.8,3.5,4.2-.9.8ZM792.7,378.3v-11.1h1.2v11.1h-1.2Z"/>
          <path class="st20" d="M796.1,372.6c1-.5,1.7-1,2.1-1.5s.7-1.1.7-1.8v-.3h1.2v.3c0,.9-.3,1.8-.9,2.5-.6.7-1.5,1.3-2.6,1.9l-.5-1h0ZM796.5,369.5v-1.1h6.1v1.1h-6.1ZM800.5,378.5c-.5,0-1,0-1.4-.3-.4-.2-.7-.4-.9-.8-.2-.3-.3-.7-.3-1.1s.1-.8.3-1.1c.2-.3.5-.6.9-.8.4-.2.9-.3,1.4-.3h2.4c.5,0,1,0,1.4.3.4.2.7.4.9.8.2.3.3.7.3,1.1s-.1.8-.3,1.1c-.2.3-.5.6-.9.8-.4.2-.9.3-1.4.3h-2.4ZM802.4,373.4l-3.5-2.2.6-.9,3.5,2.1-.6,1h0ZM798.9,368.8v-1.8h1.2v1.8h-1.2ZM802.8,377.4c.5,0,1-.1,1.2-.3.3-.2.4-.5.4-.8s-.1-.6-.4-.8c-.3-.2-.7-.3-1.2-.3h-2c-.5,0-1,.1-1.2.3s-.4.5-.4.8.1.6.4.8.7.3,1.2.3h2ZM802.1,371v-1h2.8v1h-2.8ZM804.3,373.5v-6.3h1.2v6.3h-1.2Z"/>
        </g>
        <g>
          <path class="st20" d="M43.8,539.3v-1.1h10.5v1.1h-10.5ZM52.9,529.7v1.1h-6.6v3.7h6.7v1.1h-7.9v-5.9h7.8ZM48.5,539v-4h1.2v4h-1.2Z"/>
          <path class="st20" d="M55.4,535.2v-1h10.5v1h-10.5ZM59.4,540.2c-.6,0-1.1,0-1.5-.3s-.7-.4-1-.7c-.2-.3-.3-.7-.3-1s.1-.7.3-1,.5-.5,1-.7.9-.3,1.5-.3h2.5c.6,0,1.1,0,1.5.3s.7.4,1,.7c.2.3.3.7.3,1s-.1.7-.3,1-.5.5-1,.7-.9.3-1.5.3h-2.5ZM64.6,532v1.1h-7.7v-3.9h1.2v2.8h6.5ZM61.7,539.2c.6,0,1.1,0,1.4-.3.3-.2.5-.4.5-.7s-.2-.5-.5-.7c-.3-.2-.8-.3-1.4-.3h-2.1c-.6,0-1.1,0-1.4.3s-.5.4-.5.7.2.6.5.7c.3.2.8.3,1.4.3h2.1ZM60.1,534.6v-2.2h1.2v2.2h-1.2Z"/>
          <path class="st20" d="M67.1,535.1v-1h10.5v1h-10.5ZM67.9,532.5c1.3-.3,2.2-.7,2.9-1.1.6-.4,1-.9,1-1.4v-.5h1.2v.5c0,.8-.4,1.5-1.1,2.1-.8.6-1.9,1-3.6,1.4l-.3-1h0ZM71,540.2c-.6,0-1.1,0-1.5-.3s-.7-.4-1-.7-.3-.7-.3-1,.1-.7.3-1,.5-.5,1-.7.9-.3,1.5-.3h2.5c.6,0,1.1,0,1.5.3s.7.4,1,.7c.2.3.3.7.3,1s-.1.7-.3,1-.5.5-1,.7-.9.3-1.5.3h-2.5ZM68.5,530.2v-1h7.6v1h-7.6ZM73.3,539.2c.6,0,1.1,0,1.4-.3.3-.2.5-.4.5-.7s-.2-.5-.5-.7c-.3-.2-.8-.3-1.4-.3h-2.1c-.6,0-1.1,0-1.4.3-.3.2-.5.4-.5.7s.2.6.5.7c.3.2.8.3,1.4.3h2.1ZM76.2,533.5l-4.8-1.7.5-.9,4.6,1.6-.4,1h0ZM71.7,536.8v-2.3h1.2v2.3h-1.2Z"/>
          <path class="st20" d="M78.7,531v-1h6.5v1h-6.5ZM82,535.5c-.8,0-1.5-.2-2-.5-.5-.3-.8-.8-.8-1.4v-.2c0-.6.3-1.1.8-1.4.5-.3,1.2-.5,2-.5s1.5.2,2,.5c.5.3.8.8.8,1.4v.2c0,.6-.3,1.1-.8,1.4-.5.3-1.2.5-2,.5ZM86.4,540.2v-2.8h-6.1v-1.1h7.2v3.9h-1.2ZM82,534.5c.5,0,.8,0,1.1-.3.3-.2.4-.4.4-.7h0c0-.4-.2-.6-.4-.8-.3-.2-.7-.3-1.1-.3s-.8,0-1.1.3c-.3.2-.4.4-.4.7h0c0,.4.2.6.4.8s.7.3,1.1.3ZM81.3,530.6v-1.8h1.2v1.8h-1.2ZM86.4,535.6v-6.6h1.2v6.6h-1.2ZM87.2,532.8v-1.1h2.2v1.1h-2.2Z"/>
          <path class="st20" d="M90.3,539.3v-1.1h10.5v1.1h-10.5ZM97.8,536.2c.2-.9.3-1.8.4-2.8,0-.9.2-1.7.2-2.3v-.7l.4.5h-7.4v-1.1h8.1v1c0,.8,0,1.7-.2,2.7,0,1-.2,2-.4,2.9l-1.2-.2h0ZM92.7,539v-5.2h1.1v5.2h-1.1ZM95.5,539v-5.2h1.1v5.2h-1.1Z"/>
        </g>
      </g>
    </g>
  </g>
</svg>