<svg width="453" height="557" viewBox="0 0 453 557" fill="none" xmlns="http://www.w3.org/2000/svg">
<g clip-path="url(#clip0_108_96165)">
<path d="M453 379.081C453 298.558 361.444 299.262 361.444 299.262V275.423C361.444 218.721 315.494 172.757 258.811 172.757C202.127 172.757 156.178 218.721 156.178 275.423V299.262C156.178 299.262 99.8727 314.71 94.7853 227.654L110.102 210.565C114.973 204.591 114.035 195.767 107.955 190.984C101.983 186.274 93.2699 187.574 88.453 193.439L86.0356 196.398C84.015 198.871 80.0281 197.824 79.4868 194.666L73.8401 161.623C72.5412 154.837 65.794 150.47 58.9927 152.221C52.7867 153.827 49.0884 160.233 50.2791 166.532L55.0598 191.598L52.3177 192.193L47.3024 165.882C46.1117 159.584 40.3026 154.982 33.9523 155.776C26.9886 156.642 22.2981 163.193 23.597 169.978L28.7927 197.264L26.5917 197.734L23.7594 182.809C22.4965 176.168 15.9838 171.53 9.36294 172.92C3.01264 174.255 0.252426 179.976 0.0359384 186.942C-0.180549 193.8 -0.162501 372.891 156.196 381.77V524.733C139.237 525.708 125.779 539.766 125.779 556.982H252.677V464.458H264.962V556.982H391.86C391.86 539.766 378.402 525.708 361.444 524.733V461.372L371.565 473.987C377.085 480.881 387.224 482.469 394.224 477.073C401.35 471.569 402.54 461.318 396.948 454.334L389.316 444.806C404.2 446.611 453.018 447.314 453.018 379.063L453 379.081ZM361.949 391.353L361.462 391.281V360.331C368.245 361.883 377.013 365.998 377.013 376.934C377.013 394.781 361.949 391.353 361.949 391.353Z" fill="#6BBBFF"/>
<path d="M281.686 234.963C288.013 234.963 293.142 229.833 293.142 223.504C293.142 217.175 288.013 212.044 281.686 212.044C275.36 212.044 270.231 217.175 270.231 223.504C270.231 229.833 275.36 234.963 281.686 234.963Z" fill="#3A4149"/>
<path d="M235.953 234.963C242.28 234.963 247.409 229.833 247.409 223.504C247.409 217.175 242.28 212.044 235.953 212.044C229.626 212.044 224.497 217.175 224.497 223.504C224.497 229.833 229.626 234.963 235.953 234.963Z" fill="#3A4149"/>
<path d="M238.948 249.599C238.948 265.191 243.585 277.823 258.811 277.823C274.037 277.823 278.674 265.191 278.674 249.599H238.948Z" fill="white"/>
<path d="M299.456 124.863L355.851 157.707L343.746 177.54L293.918 146.987L299.456 124.863Z" fill="#87DE20"/>
<path d="M257.476 186.617C284.876 186.617 307.088 164.398 307.088 136.99C307.088 109.581 284.876 87.3623 257.476 87.3623C230.076 87.3623 207.864 109.581 207.864 136.99C207.864 164.398 230.076 186.617 257.476 186.617Z" fill="#87DE20"/>
<path d="M291.663 151.21C291.663 162.76 282.931 172.144 272.143 172.144C261.355 172.144 252.623 162.778 252.623 151.21H291.663Z" fill="#3A4149"/>
<path d="M268.751 133.254H256.862V140.707H268.751V133.254Z" fill="#3A4149"/>
<path d="M289.318 133.254H278.349V140.707H289.318V133.254Z" fill="#3A4149"/>
<path d="M215.153 124.863L158.758 157.707L170.863 177.54L227.673 142.71L215.153 124.863Z" fill="#87DE20"/>
<path d="M299.456 38.7634L355.851 71.6078L343.746 91.4407L293.918 60.8882L299.456 38.7634Z" fill="#FF9BAC"/>
<path d="M257.476 99.2548C284.876 99.2548 307.088 77.0359 307.088 49.6274C307.088 22.2189 284.876 0 257.476 0C230.076 0 207.864 22.2189 207.864 49.6274C207.864 77.0359 230.076 99.2548 257.476 99.2548Z" fill="#FF9BAC"/>
<path d="M290.4 67.0784C290.4 77.0219 281.236 85.0706 269.942 85.0706C258.649 85.0706 249.484 77.0219 249.484 67.0784H290.382H290.4Z" fill="#3A4149"/>
<path d="M265.161 38.7634H257.819V55.1134H265.161V38.7634Z" fill="#3A4149"/>
<path d="M282.083 38.7634H274.741V55.1134H282.083V38.7634Z" fill="#3A4149"/>
<path d="M215.153 38.7634L158.758 71.6078L170.863 91.4407L227.673 56.6113L215.153 38.7634Z" fill="#FF9BAC"/>
</g>
<defs>
<clipPath id="clip0_108_96165">
<rect width="453" height="557" fill="white"/>
</clipPath>
</defs>
</svg>
