<?xml version="1.0" encoding="UTF-8"?>
<svg id="_레이어_2" data-name="레이어 2" xmlns="http://www.w3.org/2000/svg" viewBox="0 0 960 412.35">
  <defs>
    <style>
      .cls-1 {
        fill: #6bbbff;
      }

      .cls-2 {
        fill: #ff9bac;
      }

      .cls-3 {
        fill: #87de20;
      }

      .cls-4 {
        fill: #575b5d;
      }
    </style>
  </defs>
  <g id="_레이어_1-2" data-name="레이어 1">
    <g id="Layer_1" data-name="Layer 1">
      <g>
        <path class="cls-2" d="M380.01,211.85l59.09-29.54-12.74-25.48-32.06,16.03-25.12-58.62c-6.96,6.53-15.55,11.34-25.1,13.74l35.95,83.87h-.02Z"/>
        <path class="cls-1" d="M301.03,216.49l12.74-25.48-32.05-16.03,28.27-48.99c-9.14-3.47-17.15-9.21-23.34-16.55l-44.71,77.5,59.1,29.55h-.01Z"/>
        <path class="cls-3" d="M309.98,125.99c6.28,2.38,13.09,3.7,20.21,3.7,4.79,0,9.44-.6,13.88-1.71,9.56-2.39,18.15-7.2,25.1-13.74,11.06-10.39,17.98-25.14,17.98-41.52,0-31.46-25.51-56.97-56.97-56.97s-56.97,25.51-56.97,56.97c0,13.99,5.05,26.8,13.43,36.72,6.19,7.34,14.2,13.08,23.34,16.55h0Z"/>
        <path class="cls-1" d="M156.67,159.52c-3.93,0-7.74-.34-11.39-.96v46.54h22.79v-46.54c-3.66.62-7.47.96-11.39.96h-.01Z"/>
        <path class="cls-3" d="M168.06,158.56c21.24-3.62,37.03-17.11,37.03-33.22,0-8.76-4.67-16.74-12.34-22.79-8.87,6.99-21.74,11.39-36.08,11.39s-27.22-4.4-36.08-11.39c-7.67,6.05-12.34,14.03-12.34,22.79,0,16.11,15.79,29.6,37.03,33.22,3.66.62,7.47.96,11.39.96s7.74-.34,11.39-.96Z"/>
        <path class="cls-2" d="M192.75,102.55c7.67-6.05,12.34-14.03,12.34-22.79s-4.67-16.74-12.34-22.79c-8.87,6.99-21.74,11.39-36.08,11.39s-27.22-4.4-36.08-11.39c-7.67,6.05-12.34,14.03-12.34,22.79s4.67,16.74,12.34,22.79c8.87,6.99,21.74,11.39,36.08,11.39s27.22-4.4,36.08-11.39Z"/>
        <path class="cls-3" d="M192.75,56.97c7.67-6.05,12.34-14.03,12.34-22.79,0-18.88-21.68-34.18-48.42-34.18s-48.42,15.3-48.42,34.18c0,8.76,4.67,16.74,12.34,22.79,8.87,6.99,21.74,11.39,36.08,11.39s27.22-4.4,36.08-11.39Z"/>
        <path class="cls-1" d="M37.03,158.56v46.54h22.79v-46.54c-3.66.62-7.47.96-11.39.96s-7.74-.34-11.39-.96h-.01Z"/>
        <path class="cls-2" d="M0,125.34c0,16.11,15.79,29.6,37.03,33.22,3.66.62,7.47.96,11.39.96s7.74-.34,11.39-.96c21.24-3.62,37.03-17.11,37.03-33.22,0-8.76-4.67-16.74-12.34-22.79-8.87,6.99-21.74,11.39-36.08,11.39s-27.22-4.4-36.08-11.39C4.67,108.6,0,116.58,0,125.34Z"/>
        <path class="cls-3" d="M84.51,102.55c7.67-6.05,12.34-14.03,12.34-22.79,0-18.88-21.68-34.18-48.42-34.18S.01,60.88.01,79.76c0,8.76,4.67,16.74,12.34,22.79,8.87,6.99,21.74,11.39,36.08,11.39s27.22-4.4,36.08-11.39Z"/>
        <polygon class="cls-2" points="499.61 29.73 479.13 39.72 515.33 113.94 540.69 113.94 499.61 29.73"/>
        <polygon class="cls-1" points="530.34 14.75 509.86 24.74 553.36 113.94 578.72 113.94 530.34 14.75"/>
        <path class="cls-3" d="M694.45,113.94h-227.88c0,56.63,45.8,102.54,113.94,102.54s113.94-45.91,113.94-102.54h0Z"/>
        <rect class="cls-3" x="883.44" y="22.79" width="74.06" height="182.3"/>
        <polygon class="cls-1" points="883.44 205.09 883.44 22.79 843.56 96.85 843.56 205.09 883.44 205.09"/>
        <polygon class="cls-2" points="843.56 205.09 843.56 96.85 843.56 62.67 769.5 62.67 769.5 205.09 843.56 205.09"/>
        <polygon class="cls-1" points="769.5 62.67 729.62 125.34 729.62 205.09 769.5 205.09 769.5 62.67"/>
        <rect class="cls-4" x="2.87" y="262.25" width="138.73" height="23.79"/>
        <polygon class="cls-4" points="205.17 256.94 176.72 256.94 176.72 411.21 205.17 411.21 205.17 334.62 225.46 334.62 225.46 310.83 205.17 310.83 205.17 256.94"/>
        <polygon class="cls-4" points="31.32 300.37 2.87 300.37 2.87 403.55 143.34 403.55 143.34 379.76 31.32 379.76 31.32 300.37"/>
        <path class="cls-4" d="M331.71,280.91c28.92,0,52.45,21.75,52.45,48.47h28.45c0-39.84-36.29-72.26-80.9-72.26s-80.9,32.42-80.9,72.26h28.45c0-26.73,23.53-48.47,52.45-48.47h0Z"/>
        <polygon class="cls-4" points="456.52 256.94 428.07 256.94 428.07 335.12 456.52 335.12 456.52 310.93 475.43 310.93 475.43 287.14 456.52 287.14 456.52 256.94"/>
        <polygon class="cls-4" points="284.38 343.71 255.93 343.71 255.93 411.21 460.35 411.21 460.35 387.42 284.38 387.42 284.38 343.71"/>
        <polygon class="cls-4" points="869.03 311.05 897.48 311.05 897.48 259.81 751.04 259.81 751.04 283.6 869.03 283.6 869.03 311.05"/>
        <rect class="cls-4" x="929.16" y="256.94" width="28.45" height="55.82"/>
        <polygon class="cls-4" points="781.89 389.85 781.89 378.42 957.61 378.42 957.51 325.38 753.04 325.38 753.04 346.73 929.16 346.73 929.16 358.17 753.44 358.17 753.44 411.21 960 411.21 960 389.85 781.89 389.85"/>
        <polygon class="cls-4" points="689.19 287.14 679.67 287.14 679.67 257.17 652.95 257.17 652.95 330.27 679.67 330.27 679.67 310.93 689.19 310.93 689.19 331.1 715.84 331.1 715.84 256.94 689.19 256.94 689.19 287.14"/>
        <polygon class="cls-4" points="516.43 367.5 687.39 367.5 687.39 412.35 715.84 412.35 715.84 343.71 516.43 343.71 516.43 367.5"/>
        <path class="cls-4" d="M530.6,329.38c.11-23.79,16.67-42.73,40.77-42.73s40.66,18.94,40.77,42.73h27.29c0-16.33-6.76-31.18-17.61-42.26h18.2v-22.73h-54.36v-11.8h-28.59v11.8h-54.36v22.73h18.2c-10.84,11.08-17.61,25.92-17.61,42.26h27.3Z"/>
      </g>
    </g>
  </g>
</svg>