<svg width="36" height="36" viewBox="0 0 36 36" fill="none" xmlns="http://www.w3.org/2000/svg">
<rect width="36" height="36" fill="white"/>
<path fill-rule="evenodd" clip-rule="evenodd" d="M34.5566 26.0038C33.2653 23.5626 29.1426 21.0986 28.6619 20.8166C27.7038 20.2708 26.6874 20.1035 25.8055 20.3502C25.1122 20.5415 24.545 20.9683 24.158 21.5877C23.618 22.2314 22.9503 22.9885 22.81 23.1117C21.7213 23.8504 21.0037 23.7725 20.0638 22.8326L13.1673 15.934C12.2147 14.9814 12.1438 14.2894 12.8513 13.2419C13.0127 13.0504 13.7698 12.3814 14.4119 11.8411C15.0316 11.4541 15.4568 10.8872 15.6496 10.1952C15.895 9.3091 15.7304 8.29427 15.1748 7.32292C14.9026 6.8581 12.4357 2.73405 9.99742 1.44247C8.52303 0.66265 6.73521 0.930686 5.55574 2.11174L4.03334 3.63416C1.27872 6.38752 -2.07263 12.2738 6.41072 20.7567L15.2427 29.5888C19.3055 33.652 22.772 35 25.5848 35C28.6454 35 30.9307 33.4024 32.3651 31.9676L33.8878 30.4436C35.0686 29.2641 35.3382 27.4792 34.5568 26.0035" fill="#575B5D"/>
</svg>
