<svg width="149" height="69" viewBox="0 0 149 69" fill="none" xmlns="http://www.w3.org/2000/svg">
<rect width="149" height="69" fill="white"/>
<path d="M59.269 35.3592L68.0243 30.9823L66.1366 27.207L61.3863 29.5821L57.6643 20.8965C56.6331 21.864 55.3603 22.5767 53.9453 22.9323L59.272 35.3592H59.269Z" fill="#FF9BAC"/>
<path d="M47.5665 36.0465L49.4542 32.2712L44.7054 29.896L48.8941 22.6372C47.5399 22.1231 46.353 21.2726 45.4359 20.1851L38.8113 31.6681L47.568 36.0465H47.5665Z" fill="#6BBBFF"/>
<path d="M48.8927 22.6373C49.8232 22.9899 50.8323 23.1855 51.8872 23.1855C52.5969 23.1855 53.2859 23.0966 53.9438 22.9322C55.3603 22.578 56.6331 21.8653 57.6628 20.8963C59.3016 19.3569 60.3269 17.1714 60.3269 14.7444C60.3269 10.083 56.5471 6.30322 51.8857 6.30322C47.2244 6.30322 43.4446 10.083 43.4446 14.7444C43.4446 16.8173 44.1928 18.7153 45.4345 20.1851C46.3516 21.2727 47.5385 22.1232 48.8927 22.6373Z" fill="#87DE20"/>
<path d="M26.1771 27.6051C25.5948 27.6051 25.0303 27.5548 24.4895 27.4629V34.3586H27.8663V27.4629C27.324 27.5548 26.7594 27.6051 26.1786 27.6051H26.1771Z" fill="#6BBBFF"/>
<path d="M27.8646 27.463C31.0117 26.9266 33.3513 24.9278 33.3513 22.5408C33.3513 21.2429 32.6594 20.0605 31.5229 19.1641C30.2087 20.1998 28.3017 20.8517 26.177 20.8517C24.0523 20.8517 22.1439 20.1998 20.8311 19.1641C19.6946 20.0605 19.0027 21.2429 19.0027 22.5408C19.0027 24.9278 21.3423 26.9266 24.4894 27.463C25.0317 27.5548 25.5962 27.6052 26.177 27.6052C26.7578 27.6052 27.3238 27.5548 27.8646 27.463Z" fill="#87DE20"/>
<path d="M31.5229 19.1642C32.6594 18.2677 33.3513 17.0854 33.3513 15.7874C33.3513 14.4894 32.6594 13.3071 31.5229 12.4106C30.2087 13.4463 28.3017 14.0983 26.177 14.0983C24.0523 14.0983 22.1439 13.4463 20.8311 12.4106C19.6946 13.3071 19.0027 14.4894 19.0027 15.7874C19.0027 17.0854 19.6946 18.2677 20.8311 19.1642C22.1453 20.1999 24.0523 20.8518 26.177 20.8518C28.3017 20.8518 30.2101 20.1999 31.5229 19.1642Z" fill="#FF9BAC"/>
<path d="M31.5229 12.4109C32.6594 11.5145 33.3513 10.3321 33.3513 9.03412C33.3513 6.2367 30.139 3.96973 26.177 3.96973C22.215 3.96973 19.0027 6.2367 19.0027 9.03412C19.0027 10.3321 19.6946 11.5145 20.8311 12.4109C22.1453 13.4466 24.0523 14.0985 26.177 14.0985C28.3017 14.0985 30.2101 13.4466 31.5229 12.4109Z" fill="#87DE20"/>
<path d="M8.44995 27.4629V34.3586H11.8267V27.4629C11.2844 27.5548 10.7199 27.6051 10.1391 27.6051C9.55825 27.6051 8.99225 27.5548 8.45143 27.4629H8.44995Z" fill="#6BBBFF"/>
<path d="M2.96338 22.5408C2.96338 24.9278 5.30296 26.9266 8.45006 27.463C8.99235 27.5548 9.55687 27.6052 10.1377 27.6052C10.7185 27.6052 11.2845 27.5548 11.8253 27.463C14.9724 26.9266 17.312 24.9278 17.312 22.5408C17.312 21.2429 16.6201 20.0605 15.4836 19.1641C14.1694 20.1998 12.2624 20.8517 10.1377 20.8517C8.01296 20.8517 6.10455 20.1998 4.79178 19.1641C3.65533 20.0605 2.96338 21.2429 2.96338 22.5408Z" fill="#FF9BAC"/>
<path d="M15.4851 19.1643C16.6215 18.2679 17.3135 17.0855 17.3135 15.7875C17.3135 12.9901 14.1012 10.7231 10.1392 10.7231C6.17713 10.7231 2.96484 12.9901 2.96484 15.7875C2.96484 17.0855 3.65679 18.2679 4.79324 19.1643C6.1075 20.2 8.01442 20.8519 10.1392 20.8519C12.2639 20.8519 14.1723 20.2 15.4851 19.1643Z" fill="#87DE20"/>
<path d="M76.9898 8.37451L73.9553 9.85471L79.319 20.8518H83.0766L76.9898 8.37451Z" fill="#FF9BAC"/>
<path d="M81.5433 6.15479L78.5088 7.63499L84.9541 20.8516H88.7117L81.5433 6.15479Z" fill="#6BBBFF"/>
<path d="M105.859 20.8516H72.0945C72.0945 29.2423 78.8806 36.0447 88.9768 36.0447C99.073 36.0447 105.859 29.2423 105.859 20.8516Z" fill="#87DE20"/>
<path d="M144.834 7.34619H133.861V34.3573H144.834V7.34619Z" fill="#87DE20"/>
<path d="M133.861 34.3573V7.34619L127.952 18.3195V34.3573H133.861Z" fill="#6BBBFF"/>
<path d="M127.952 34.3575V18.3198V13.2554H116.979V34.3575H127.952Z" fill="#FF9BAC"/>
<path d="M116.979 13.2554L111.07 22.5411V34.3575H116.979V13.2554Z" fill="#6BBBFF"/>
<path d="M23.9441 42.8271H3.38867V46.3521H23.9441V42.8271Z" fill="#575B5D"/>
<path d="M33.3631 42.0396H29.1477V64.8975H33.3631V53.5493H36.3694V50.0243H33.3631V42.0396Z" fill="#575B5D"/>
<path d="M7.60406 48.4746H3.38867V63.7626H24.2019V60.2377H7.60406V48.4746Z" fill="#575B5D"/>
<path d="M52.1123 45.5913C56.3973 45.5913 59.8837 48.814 59.8837 52.7731H64.0991C64.0991 46.87 58.7221 42.0664 52.1123 42.0664C45.5025 42.0664 40.1255 46.87 40.1255 52.7731H44.3409C44.3409 48.8125 47.8273 45.5913 52.1123 45.5913Z" fill="#575B5D"/>
<path d="M70.6053 42.0396H66.3899V53.6234H70.6053V50.0392H73.4071V46.5142H70.6053V42.0396Z" fill="#575B5D"/>
<path d="M45.0994 54.8965H40.884V64.8979H71.1726V61.3729H45.0994V54.8965Z" fill="#575B5D"/>
<path d="M131.726 50.057H135.941V42.4648H114.244V45.9898H131.726V50.057Z" fill="#575B5D"/>
<path d="M144.851 42.0396H140.636V50.3103H144.851V42.0396Z" fill="#575B5D"/>
<path d="M118.815 61.7331V60.0395H144.851L144.836 52.1807H114.54V55.3441H140.636V57.0391H114.6V64.898H145.205V61.7331H118.815Z" fill="#575B5D"/>
<path d="M105.08 46.5142H103.669V42.0736H99.71V52.9047H103.669V50.0392H105.08V53.0277H109.028V42.0396H105.08V46.5142Z" fill="#575B5D"/>
<path d="M79.4819 58.4214H104.813V65.0668H109.028V54.8965H79.4819V58.4214Z" fill="#575B5D"/>
<path d="M81.5814 52.7734C81.5977 49.2484 84.0514 46.4421 87.6222 46.4421C91.1931 46.4421 93.6467 49.2484 93.663 52.7734H97.7066C97.7066 50.3538 96.7049 48.1535 95.0973 46.5118H97.794V43.1439H89.7395V41.3955H85.5034V43.1439H77.449V46.5118H80.1456C78.5395 48.1535 77.5364 50.3523 77.5364 52.7734H81.5799H81.5814Z" fill="#575B5D"/>
</svg>
