<?xml version="1.0" encoding="UTF-8"?>
<svg id="_레이어_2" data-name="레이어 2" xmlns="http://www.w3.org/2000/svg" viewBox="0 0 469.42 201.63">
  <defs>
    <style>
      .cls-1 {
        fill: #6bbbff;
      }

      .cls-2 {
        fill: #ff9bac;
      }

      .cls-3 {
        fill: #87de20;
      }

      .cls-4 {
        fill: #87de20;
      }

      .cls-5 {
        fill: #575b5d;
      }

      .cls-6 {
        fill: #6bbbff;
      }
    </style>
  </defs>
  <g id="Layer_1" data-name="Layer 1">
    <g>
      <path class="cls-2" d="M185.82,103.59l28.89-14.45-6.23-12.46-15.68,7.84-12.29-28.66c-3.4,3.19-7.6,5.55-12.27,6.72l17.58,41.01Z"/>
      <path class="cls-6" d="M147.19,105.85l6.23-12.46-15.67-7.84,13.82-23.96c-4.47-1.7-8.38-4.5-11.41-8.09l-21.86,37.9,28.9,14.45Z"/>
      <path class="cls-4" d="M151.57,61.6c3.07,1.17,6.4,1.81,9.88,1.81,2.34,0,4.62-.29,6.79-.84,4.67-1.17,8.87-3.52,12.27-6.72,5.41-5.08,8.79-12.29,8.79-20.3,0-15.38-12.47-27.86-27.86-27.86s-27.86,12.47-27.86,27.86c0,6.84,2.47,13.11,6.56,17.95,3.03,3.59,6.94,6.4,11.41,8.09Z"/>
      <path class="cls-6" d="M76.61,78c-1.92,0-3.78-.17-5.57-.47v22.76h11.14v-22.76c-1.79.3-3.65.47-5.57.47Z"/>
      <path class="cls-3" d="M82.18,77.53c10.39-1.77,18.11-8.37,18.11-16.24,0-4.28-2.28-8.19-6.03-11.14-4.34,3.42-10.63,5.57-17.64,5.57s-13.31-2.15-17.64-5.57c-3.75,2.96-6.03,6.86-6.03,11.14,0,7.88,7.72,14.48,18.11,16.24,1.79.3,3.65.47,5.57.47s3.78-.17,5.57-.47Z"/>
      <path class="cls-2" d="M94.25,50.14c3.75-2.96,6.03-6.86,6.03-11.14s-2.28-8.19-6.03-11.14c-4.34,3.42-10.63,5.57-17.64,5.57s-13.31-2.15-17.64-5.57c-3.75,2.96-6.03,6.86-6.03,11.14s2.28,8.19,6.03,11.14c4.34,3.42,10.63,5.57,17.64,5.57s13.31-2.15,17.64-5.57Z"/>
      <path class="cls-3" d="M94.25,27.86c3.75-2.96,6.03-6.86,6.03-11.14,0-9.23-10.6-16.71-23.68-16.71s-23.68,7.48-23.68,16.71c0,4.28,2.28,8.19,6.03,11.14,4.34,3.42,10.63,5.57,17.64,5.57s13.31-2.15,17.64-5.57Z"/>
      <path class="cls-6" d="M18.11,77.53v22.76h11.14v-22.76c-1.79.3-3.65.47-5.57.47s-3.78-.17-5.57-.47Z"/>
      <path class="cls-2" d="M0,61.28c0,7.88,7.72,14.48,18.11,16.24,1.79.3,3.65.47,5.57.47s3.78-.17,5.57-.47c10.39-1.77,18.11-8.37,18.11-16.24,0-4.28-2.28-8.19-6.03-11.14-4.34,3.42-10.63,5.57-17.64,5.57s-13.31-2.15-17.64-5.57c-3.75,2.96-6.03,6.86-6.03,11.14Z"/>
      <path class="cls-3" d="M41.32,50.14c3.75-2.96,6.03-6.86,6.03-11.14,0-9.23-10.6-16.71-23.68-16.71S0,29.77,0,39c0,4.28,2.28,8.19,6.03,11.14,4.34,3.42,10.63,5.57,17.64,5.57s13.31-2.15,17.64-5.57Z"/>
      <polygon class="cls-2" points="244.3 14.54 234.28 19.42 251.98 55.71 264.38 55.71 244.3 14.54"/>
      <polygon class="cls-6" points="259.32 7.21 249.31 12.09 270.58 55.71 282.98 55.71 259.32 7.21"/>
      <path class="cls-4" d="M339.57,55.71h-111.43c0,27.69,22.4,50.14,55.71,50.14s55.71-22.45,55.71-50.14Z"/>
      <rect class="cls-3" x="431.98" y="11.14" width="36.21" height="89.14"/>
      <polygon class="cls-6" points="431.98 100.28 431.98 11.14 412.48 47.36 412.48 100.28 431.98 100.28"/>
      <polygon class="cls-2" points="412.48 100.28 412.48 47.36 412.48 30.64 376.27 30.64 376.27 100.28 412.48 100.28"/>
      <polygon class="cls-1" points="376.27 30.64 356.77 61.28 356.77 100.28 376.27 100.28 376.27 30.64"/>
      <rect class="cls-5" x="1.4" y="128.23" width="67.84" height="11.63"/>
      <polygon class="cls-5" points="100.32 125.64 86.41 125.64 86.41 201.07 100.32 201.07 100.32 163.62 110.24 163.62 110.24 151.99 100.32 151.99 100.32 125.64"/>
      <polygon class="cls-5" points="15.31 146.87 1.4 146.87 1.4 197.32 70.09 197.32 70.09 185.69 15.31 185.69 15.31 146.87"/>
      <path class="cls-5" d="M162.2,137.35c14.14,0,25.65,10.63,25.65,23.7h13.91c0-19.48-17.75-35.33-39.56-35.33s-39.56,15.85-39.56,35.33h13.91c0-13.07,11.5-23.7,25.65-23.7Z"/>
      <polygon class="cls-5" points="223.23 125.64 209.32 125.64 209.32 163.86 223.23 163.86 223.23 152.03 232.48 152.03 232.48 140.4 223.23 140.4 223.23 125.64"/>
      <polygon class="cls-5" points="139.06 168.06 125.14 168.06 125.14 201.07 225.1 201.07 225.1 189.44 139.06 189.44 139.06 168.06"/>
      <polygon class="cls-5" points="424.93 152.09 438.84 152.09 438.84 127.04 367.24 127.04 367.24 138.67 424.93 138.67 424.93 152.09"/>
      <rect class="cls-5" x="454.34" y="125.64" width="13.91" height="27.3"/>
      <polygon class="cls-5" points="382.33 190.63 382.33 185.03 468.25 185.03 468.2 159.1 368.22 159.1 368.22 169.54 454.34 169.54 454.34 175.13 368.41 175.13 368.41 201.07 469.42 201.07 469.42 190.63 382.33 190.63"/>
      <polygon class="cls-5" points="337 140.4 332.34 140.4 332.34 125.75 319.28 125.75 319.28 161.49 332.34 161.49 332.34 152.03 337 152.03 337 161.9 350.03 161.9 350.03 125.64 337 125.64 337 140.4"/>
      <polygon class="cls-5" points="252.52 179.7 336.12 179.7 336.12 201.63 350.03 201.63 350.03 168.06 252.52 168.06 252.52 179.7"/>
      <path class="cls-5" d="M259.45,161.06c.05-11.63,8.15-20.89,19.94-20.89s19.88,9.26,19.94,20.89h13.34c0-7.99-3.31-15.24-8.61-20.66h8.9v-11.11h-26.58v-5.77h-13.98v5.77h-26.58v11.11h8.9c-5.3,5.42-8.61,12.68-8.61,20.66h13.34Z"/>
    </g>
  </g>
</svg>