<?xml version="1.0" encoding="UTF-8"?>
<svg id="_레이어_2" xmlns="http://www.w3.org/2000/svg" xmlns:xlink="http://www.w3.org/1999/xlink" version="1.1" viewBox="0 0 1278.2 841.2">
  <!-- Generator: Adobe Illustrator 30.0.0, SVG Export Plug-In . SVG Version: 2.1.1 Build 123)  -->
  <defs>
    <style>
      .st0, .st1, .st2, .st3, .st4, .st5, .st6 {
        fill: none;
      }

      .st7 {
        fill: #6bbbff;
      }

      .st8 {
        fill: #d3ebff;
      }

      .st1, .st2, .st3 {
        stroke: #fff;
      }

      .st1, .st2, .st3, .st4, .st5 {
        stroke-miterlimit: 10;
      }

      .st1, .st4, .st5 {
        stroke-width: 13.6px;
      }

      .st9 {
        fill: #ff9bac;
      }

      .st2 {
        stroke-width: 15px;
      }

      .st10 {
        fill: #9fe54d;
      }

      .st3 {
        stroke-width: 29.7px;
      }

      .st11 {
        clip-path: url(#clippath-1);
      }

      .st12 {
        fill: #e1f1ff;
      }

      .st13 {
        fill: #fff;
      }

      .st4 {
        stroke: #e7f8d2;
      }

      .st14 {
        fill: #a6d6ff;
      }

      .st15 {
        fill: #87de20;
      }

      .st16 {
        fill: #b9dfff;
      }

      .st17 {
        fill: #cff2a6;
      }

      .st18 {
        fill: #b5ddff;
      }

      .st19 {
        fill: #e6f3ff;
      }

      .st20 {
        fill: #575b5d;
      }

      .st21 {
        clip-path: url(#clippath);
      }

      .st5 {
        stroke: #d3ebff;
      }

      .st6 {
        stroke: #ff9bac;
        stroke-linejoin: bevel;
        stroke-width: 2.1px;
      }
    </style>
    <clipPath id="clippath">
      <rect class="st0" width="1278.2" height="841.2"/>
    </clipPath>
    <clipPath id="clippath-1">
      <rect class="st0" x="-150.9" y="-358.5" width="1601.6" height="1692.8"/>
    </clipPath>
  </defs>
  <g id="_레이어_1-2">
    <g class="st21">
      <g>
        <g>
          <g class="st11">
            <g>
              <g>
                <polygon class="st17" points="707.5 506 823.7 506 982.4 506 1141.2 506 1239.1 506 1239.1 161.4 707.5 161.4 707.5 452.1 707.5 506"/>
                <polygon class="st17" points="1141.2 506 1141.2 667.7 823.7 667.7 823.7 506 487.5 506 487.5 667.7 127.6 667.7 127.6 842.3 1239.1 842.7 1239.1 506 1141.2 506"/>
                <polygon class="st12" points="1239.1 1083.7 1239.1 1334.3 1450.7 1334.3 1450.7 823.7 1239.1 823.7 1239.1 1083.7"/>
                <polygon class="st8" points="1239.1 -13.1 868.2 -214 707.5 161.4 1239.1 161.4 1239.1 -13.1"/>
                <polygon class="st12" points="1239.1 -13.1 1239.1 178.6 1239.1 522.8 1239.1 707.6 1239.1 850.7 1450.7 850.7 1450.7 707.6 1450.7 105.2 1239.1 -13.1"/>
                <polygon class="st8" points="-150.9 506 -150.9 698.8 -150.9 848.1 127.6 848.1 127.6 698.8 127.6 506 -150.9 506"/>
                <polygon class="st12" points="328.1 167.9 121.3 -185.2 -150.9 74.6 -150.9 506 127.6 506 328.1 167.9"/>
                <polygon class="st12" points="22.5 -358.5 -150.9 -358.5 -150.9 74.6 121.3 -185.2 22.5 -358.5"/>
                <polygon class="st12" points="1239.1 -13.1 1450.7 101.5 1450.7 -102.2 1239.1 -223.8 1239.1 -13.1"/>
                <polygon class="st16" points="328.1 167.9 373.8 172.6 653.6 172.6 707.5 172.6 868.2 -214 601.4 -358.5 302.9 -358.5 121.3 -185.2 328.1 167.9"/>
              </g>
              <g>
                <line class="st4" x1="707.5" y1="161.4" x2="1239.1" y2="161.4"/>
                <line class="st4" x1="127.7" y1="667.7" x2="225" y2="667.7"/>
                <line class="st5" x1="982.4" y1="506" x2="982.4" y2="667.7"/>
                <path class="st1" d="M1895.8,823.7"/>
                <path class="st1" d="M-847.2,823.7"/>
                <line class="st3" x1="-837.4" y1="506" x2="1239.1" y2="506"/>
                <line class="st1" x1="325.3" y1="172.6" x2="707.5" y2="172.6"/>
                <polyline class="st1" points="943.1 -394 707.5 158.9 707.5 506"/>
                <polyline class="st1" points="127.6 842 127.6 506 325.3 157.6 -183.9 -720.5"/>
                <line class="st1" x1="1239.1" y1="-358.5" x2="1239.1" y2="1452.1"/>
                <rect class="st1" x="823.7" y="506" width="317.4" height="161.6"/>
                <line class="st1" x1="1141.2" y1="586.8" x2="823.7" y2="586.8"/>
                <polyline class="st1" points="373.8 172.6 373.8 226.5 245.6 452.1 245.6 667.7"/>
                <line class="st1" x1="707.5" y1="452.1" x2="245.6" y2="452.1"/>
                <line class="st1" x1="653.6" y1="226.5" x2="373.8" y2="226.5"/>
                <line class="st1" x1="653.6" y1="172.6" x2="653.6" y2="452.1"/>
                <line class="st1" x1="570.5" y1="226.5" x2="570.5" y2="452.1"/>
                <line class="st1" x1="487.5" y1="226.5" x2="487.5" y2="667.7"/>
                <rect class="st1" x="176.4" y="572.7" width="311.1" height="94.9"/>
                <line class="st1" x1="320.7" y1="320" x2="487.5" y2="320"/>
                <line class="st1" x1="387.8" y1="1083.7" x2="1239.1" y2="1083.7"/>
                <path class="st1" d="M202.7,823.7"/>
                <path class="st1" d="M794.9,1452.1"/>
                <path class="st1" d="M555.8,1452.1"/>
                <line class="st1" x1="187.2" y1="-582.8" x2="1877.3" y2="332.5"/>
                <line class="st1" x1="601.9" y1="-643.7" x2="-213.2" y2="134.1"/>
                <line class="st1" x1="343.2" y1="-738.9" x2="1997.6" y2="212.2"/>
                <polyline class="st1" points="67.2 1247.6 138.3 1341.2 254.4 1272.1 387.8 1272.1 387.8 1083.7"/>
                <path class="st1" d="M67.2,824"/>
                <path class="st1" d="M1017,1083.7"/>
                <line class="st2" x1="823.7" y1="506" x2="823.7" y2="463.5"/>
                <line class="st2" x1="943.2" y1="506" x2="943.2" y2="402.1"/>
              </g>
            </g>
          </g>
          <g>
            <g>
              <rect class="st13" x="1006.9" y="282" width="168.4" height="80.4"/>
              <rect class="st13" x="978.7" y="347.7" width="73.2" height="45.5"/>
              <rect class="st13" x="1131.7" y="368.7" width="67.8" height="24.5"/>
              <rect class="st7" x="1051.9" y="368.7" width="79.8" height="24.5"/>
              <rect class="st7" x="987.5" y="393.3" width="203.2" height="8.8"/>
              <rect class="st7" x="1051.9" y="359.9" width="123.4" height="8.8"/>
              <rect class="st13" x="978.7" y="389.9" width="8.8" height="12.2"/>
              <rect class="st13" x="1002.7" y="389.9" width="8.8" height="12.2"/>
              <rect class="st13" x="1026.8" y="389.9" width="8.8" height="12.2"/>
              <rect class="st13" x="1161.2" y="389.9" width="8.8" height="12.2"/>
              <rect class="st13" x="1131.7" y="389.9" width="8.8" height="12.2"/>
              <rect class="st13" x="1190.7" y="389.9" width="8.8" height="12.2"/>
              <g>
                <rect class="st7" x="1033.7" y="295.7" width="8.8" height="45.4"/>
                <rect class="st7" x="1051.3" y="295.7" width="8.8" height="45.4"/>
                <rect class="st7" x="1069" y="295.7" width="8.8" height="45.4"/>
                <rect class="st7" x="1086.7" y="295.7" width="8.8" height="45.4"/>
                <rect class="st7" x="1104.3" y="295.7" width="8.8" height="45.4"/>
                <rect class="st7" x="1122" y="295.7" width="8.8" height="45.4"/>
                <rect class="st7" x="1139.7" y="295.7" width="8.8" height="45.4"/>
              </g>
            </g>
            <g>
              <rect class="st13" x="739.5" y="286.9" width="168.4" height="80.4"/>
              <rect class="st7" x="739.5" y="364.8" width="168.4" height="37.3"/>
              <g>
                <rect class="st7" x="766.3" y="300.6" width="8.8" height="45.4"/>
                <rect class="st7" x="784" y="300.6" width="8.8" height="45.4"/>
                <rect class="st7" x="801.7" y="300.6" width="8.8" height="45.4"/>
                <rect class="st7" x="819.3" y="300.6" width="8.8" height="45.4"/>
                <rect class="st7" x="837" y="300.6" width="8.8" height="45.4"/>
                <rect class="st7" x="854.7" y="300.6" width="8.8" height="45.4"/>
                <rect class="st7" x="872.3" y="300.6" width="8.8" height="45.4"/>
              </g>
              <g>
                <rect class="st13" x="903" y="389.9" width="8.8" height="12.2"/>
                <rect class="st13" x="859.8" y="373.6" width="52" height="19.6"/>
                <rect class="st13" x="859.8" y="389.9" width="8.8" height="12.2"/>
              </g>
              <g>
                <rect class="st13" x="778.8" y="389.9" width="8.8" height="12.2"/>
                <rect class="st13" x="735.6" y="373.6" width="52" height="19.6"/>
                <rect class="st13" x="735.6" y="389.9" width="8.8" height="12.2"/>
              </g>
            </g>
            <g>
              <rect class="st7" x="515.8" y="561.5" width="138.3" height="51.5"/>
              <rect class="st13" x="502.6" y="561.6" width="66.2" height="42.6"/>
              <rect class="st13" x="679.9" y="580.6" width="44" height="32.4"/>
              <rect class="st13" x="587.5" y="561.6" width="92.5" height="51.4"/>
              <rect class="st13" x="587.5" y="544.2" width="66.6" height="17.4"/>
              <rect class="st7" x="679.9" y="589.4" width="35.2" height="23.6"/>
              <rect class="st7" x="597.7" y="571.8" width="72.4" height="8.8"/>
              <rect class="st13" x="597.7" y="580.6" width="72.4" height="8.8"/>
              <rect class="st7" x="581.4" y="589.4" width="72.7" height="23.6"/>
              <rect class="st13" x="614.6" y="587.3" width="8.8" height="25.7"/>
              <rect class="st13" x="718.3" y="561.6" width="17.8" height="51.4"/>
            </g>
            <g>
              <g>
                <path class="st6" d="M146.4,812.7l.2-110.9s22.4,18.8,22.3,54.4c0,35.6-22.4,56.5-22.4,56.5Z"/>
                <line class="st6" x1="159" y1="716.7" x2="146.4" y2="717"/>
                <line class="st6" x1="163.7" y1="728" x2="146.5" y2="728.3"/>
                <line class="st6" x1="166.6" y1="739.2" x2="146.6" y2="739.7"/>
                <line class="st6" x1="167.6" y1="750.5" x2="146.7" y2="751"/>
                <line class="st6" x1="168.6" y1="761.9" x2="146.8" y2="762.4"/>
                <line class="st6" x1="166.3" y1="773.3" x2="146.9" y2="773.7"/>
                <line class="st6" x1="163.7" y1="784.7" x2="147" y2="785"/>
                <line class="st6" x1="158.3" y1="796.1" x2="147.1" y2="796.4"/>
              </g>
              <g>
                <path class="st6" d="M106.6,812.7l.2-110.9s22.4,18.8,22.3,54.4c0,35.6-22.4,56.5-22.4,56.5Z"/>
                <line class="st6" x1="119.3" y1="716.7" x2="106.7" y2="717"/>
                <line class="st6" x1="124" y1="728" x2="106.8" y2="728.3"/>
                <line class="st6" x1="126.9" y1="739.2" x2="106.9" y2="739.7"/>
                <line class="st6" x1="127.9" y1="750.5" x2="107" y2="751"/>
                <line class="st6" x1="128.9" y1="761.9" x2="107.1" y2="762.4"/>
                <line class="st6" x1="126.6" y1="773.3" x2="107.2" y2="773.7"/>
                <line class="st6" x1="124" y1="784.7" x2="107.3" y2="785"/>
                <line class="st6" x1="118.6" y1="796.1" x2="107.4" y2="796.4"/>
              </g>
            </g>
            <g>
              <rect class="st9" x="1121.2" y="196.7" width="13.4" height="29.7"/>
              <rect class="st9" x="1180.8" y="196.7" width="13.4" height="29.7"/>
              <ellipse class="st15" cx="1127.9" cy="186.2" rx="25.7" ry="17.8"/>
              <ellipse class="st10" cx="1127.9" cy="161.4" rx="25.7" ry="17.8"/>
              <ellipse class="st15" cx="1187.5" cy="186.2" rx="25.7" ry="17.8"/>
              <ellipse class="st10" cx="1187.5" cy="161.4" rx="25.7" ry="17.8"/>
              <ellipse class="st15" cx="1187.5" cy="136.6" rx="25.7" ry="17.8"/>
            </g>
            <g>
              <rect class="st9" x="502.4" y="763.9" width="13.4" height="29.7"/>
              <rect class="st9" x="562" y="763.9" width="13.4" height="29.7"/>
              <ellipse class="st15" cx="509.1" cy="753.4" rx="25.7" ry="17.8"/>
              <ellipse class="st10" cx="509.1" cy="728.6" rx="25.7" ry="17.8"/>
              <rect class="st9" x="440.9" y="763.9" width="13.4" height="29.7"/>
              <ellipse class="st15" cx="447.6" cy="753.4" rx="25.6" ry="17.8"/>
              <ellipse class="st10" cx="447.6" cy="728.6" rx="25.6" ry="17.8"/>
              <ellipse class="st15" cx="568.7" cy="753.4" rx="25.7" ry="17.8"/>
              <ellipse class="st10" cx="568.7" cy="728.6" rx="25.7" ry="17.8"/>
              <ellipse class="st15" cx="568.7" cy="703.8" rx="25.7" ry="17.8"/>
            </g>
            <g>
              <g>
                <rect class="st19" x="557.5" y="8.6" width="61.8" height="119.3"/>
                <g>
                  <g>
                    <rect class="st18" x="567.7" y="27.4" width="8.8" height="8.8"/>
                    <rect class="st18" x="567.7" y="43.7" width="8.8" height="8.8"/>
                    <rect class="st18" x="567.7" y="60" width="8.8" height="8.8"/>
                    <rect class="st18" x="567.7" y="76.3" width="8.8" height="8.8"/>
                    <rect class="st18" x="567.7" y="92.6" width="8.8" height="8.8"/>
                    <rect class="st18" x="567.7" y="108.9" width="8.8" height="8.8"/>
                  </g>
                  <g>
                    <rect class="st18" x="584" y="27.4" width="8.8" height="8.8"/>
                    <rect class="st18" x="584" y="43.7" width="8.8" height="8.8"/>
                    <rect class="st18" x="584" y="60" width="8.8" height="8.8"/>
                    <rect class="st18" x="584" y="76.3" width="8.8" height="8.8"/>
                    <rect class="st18" x="584" y="92.6" width="8.8" height="8.8"/>
                    <rect class="st18" x="584" y="108.9" width="8.8" height="8.8"/>
                  </g>
                  <g>
                    <rect class="st18" x="600.3" y="27.4" width="8.8" height="8.8"/>
                    <rect class="st18" x="600.3" y="43.7" width="8.8" height="8.8"/>
                    <rect class="st18" x="600.3" y="60" width="8.8" height="8.8"/>
                    <rect class="st18" x="600.3" y="76.3" width="8.8" height="8.8"/>
                    <rect class="st18" x="600.3" y="92.6" width="8.8" height="8.8"/>
                    <rect class="st18" x="600.3" y="108.9" width="8.8" height="8.8"/>
                  </g>
                </g>
              </g>
              <g>
                <rect class="st19" x="418.8" y="-7.9" width="61.8" height="135.8"/>
                <g>
                  <g>
                    <rect class="st18" x="429" y="27.4" width="8.8" height="8.8"/>
                    <rect class="st18" x="429" y="43.7" width="8.8" height="8.8"/>
                    <rect class="st18" x="429" y="60" width="8.8" height="8.8"/>
                    <rect class="st18" x="429" y="76.3" width="8.8" height="8.8"/>
                    <rect class="st18" x="429" y="92.6" width="8.8" height="8.8"/>
                    <rect class="st18" x="429" y="108.9" width="8.8" height="8.8"/>
                  </g>
                  <g>
                    <rect class="st18" x="445.3" y="27.4" width="8.8" height="8.8"/>
                    <rect class="st18" x="445.3" y="43.7" width="8.8" height="8.8"/>
                    <rect class="st18" x="445.3" y="60" width="8.8" height="8.8"/>
                    <rect class="st18" x="445.3" y="76.3" width="8.8" height="8.8"/>
                    <rect class="st18" x="445.3" y="92.6" width="8.8" height="8.8"/>
                    <rect class="st18" x="445.3" y="108.9" width="8.8" height="8.8"/>
                  </g>
                  <g>
                    <rect class="st18" x="461.6" y="27.4" width="8.8" height="8.8"/>
                    <rect class="st18" x="461.6" y="43.7" width="8.8" height="8.8"/>
                    <rect class="st18" x="429" y="11.1" width="8.8" height="8.8"/>
                    <rect class="st18" x="445.3" y="11.1" width="8.8" height="8.8"/>
                    <rect class="st18" x="461.6" y="11.1" width="8.8" height="8.8"/>
                    <rect class="st18" x="461.6" y="60" width="8.8" height="8.8"/>
                    <rect class="st18" x="461.6" y="76.3" width="8.8" height="8.8"/>
                    <rect class="st18" x="461.6" y="92.6" width="8.8" height="8.8"/>
                    <rect class="st18" x="461.6" y="108.9" width="8.8" height="8.8"/>
                  </g>
                </g>
              </g>
              <g>
                <rect class="st19" x="488.2" y="-38.2" width="61.8" height="166.2"/>
                <g>
                  <g>
                    <rect class="st18" x="498.4" y="27.4" width="8.8" height="8.8"/>
                    <rect class="st18" x="498.4" y="43.7" width="8.8" height="8.8"/>
                    <rect class="st18" x="498.4" y="60" width="8.8" height="8.8"/>
                    <rect class="st18" x="498.4" y="76.3" width="8.8" height="8.8"/>
                    <rect class="st18" x="498.4" y="92.6" width="8.8" height="8.8"/>
                    <rect class="st18" x="498.4" y="108.9" width="8.8" height="8.8"/>
                  </g>
                  <g>
                    <rect class="st18" x="514.7" y="27.4" width="8.8" height="8.8"/>
                    <rect class="st18" x="514.7" y="43.7" width="8.8" height="8.8"/>
                    <rect class="st18" x="514.7" y="60" width="8.8" height="8.8"/>
                    <rect class="st18" x="514.7" y="76.3" width="8.8" height="8.8"/>
                    <rect class="st18" x="514.7" y="92.6" width="8.8" height="8.8"/>
                    <rect class="st18" x="514.7" y="108.9" width="8.8" height="8.8"/>
                  </g>
                  <g>
                    <rect class="st18" x="531" y="27.4" width="8.8" height="8.8"/>
                    <rect class="st18" x="531" y="43.7" width="8.8" height="8.8"/>
                    <rect class="st18" x="531" y="60" width="8.8" height="8.8"/>
                    <rect class="st18" x="531" y="76.3" width="8.8" height="8.8"/>
                    <rect class="st18" x="498.4" y="-5.2" width="8.8" height="8.8"/>
                    <rect class="st18" x="498.4" y="11.1" width="8.8" height="8.8"/>
                    <rect class="st18" x="498.4" y="27.4" width="8.8" height="8.8"/>
                    <rect class="st18" x="514.7" y="-5.2" width="8.8" height="8.8"/>
                    <rect class="st18" x="514.7" y="11.1" width="8.8" height="8.8"/>
                    <rect class="st18" x="514.7" y="27.4" width="8.8" height="8.8"/>
                    <rect class="st18" x="531" y="-5.2" width="8.8" height="8.8"/>
                    <rect class="st18" x="531" y="11.1" width="8.8" height="8.8"/>
                    <rect class="st18" x="531" y="27.4" width="8.8" height="8.8"/>
                    <rect class="st18" x="531" y="92.6" width="8.8" height="8.8"/>
                    <rect class="st18" x="531" y="108.9" width="8.8" height="8.8"/>
                  </g>
                </g>
              </g>
              <rect class="st14" x="-51.6" y="313.7" width="61.8" height="166.2"/>
              <g>
                <rect class="st14" x="19.1" y="360.5" width="61.8" height="119.3"/>
                <g>
                  <g>
                    <rect class="st19" x="29.4" y="379.3" width="8.8" height="8.8"/>
                    <rect class="st19" x="29.4" y="395.6" width="8.8" height="8.8"/>
                    <rect class="st19" x="29.4" y="411.9" width="8.8" height="8.8"/>
                    <rect class="st19" x="29.4" y="428.2" width="8.8" height="8.8"/>
                    <rect class="st19" x="29.4" y="444.5" width="8.8" height="8.8"/>
                    <rect class="st19" x="29.4" y="460.8" width="8.8" height="8.8"/>
                  </g>
                  <g>
                    <rect class="st19" x="45.7" y="379.3" width="8.8" height="8.8"/>
                    <rect class="st19" x="45.7" y="395.6" width="8.8" height="8.8"/>
                    <rect class="st19" x="45.7" y="411.9" width="8.8" height="8.8"/>
                    <rect class="st19" x="45.7" y="428.2" width="8.8" height="8.8"/>
                    <rect class="st19" x="45.7" y="444.5" width="8.8" height="8.8"/>
                    <rect class="st19" x="45.7" y="460.8" width="8.8" height="8.8"/>
                  </g>
                  <g>
                    <rect class="st19" x="61.9" y="379.3" width="8.8" height="8.8"/>
                    <rect class="st19" x="61.9" y="395.6" width="8.8" height="8.8"/>
                    <rect class="st19" x="61.9" y="411.9" width="8.8" height="8.8"/>
                    <rect class="st19" x="61.9" y="428.2" width="8.8" height="8.8"/>
                    <rect class="st19" x="61.9" y="444.5" width="8.8" height="8.8"/>
                    <rect class="st19" x="61.9" y="460.8" width="8.8" height="8.8"/>
                  </g>
                </g>
              </g>
            </g>
            <g>
              <rect class="st7" x="783.2" y="604.2" width="18.3" height="8.8"/>
              <rect class="st13" x="743.1" y="561.5" width="62.8" height="42.6"/>
              <rect class="st7" x="747.5" y="565.9" width="54" height="33.8"/>
              <rect class="st13" x="747.5" y="604.2" width="35.7" height="8.8"/>
            </g>
          </g>
        </g>
        <rect class="st13" x="823.7" y="506" width="317.4" height="161.6"/>
        <polygon class="st13" points="325.3 157.6 127.6 506 127.6 667.7 487.5 667.7 487.5 506 707.5 506 707.5 157.6 325.3 157.6"/>
        <g>
          <path class="st20" d="M578.3,628.6c1.1-.7,2-1.3,2.5-2,.5-.7.8-1.5.8-2.3v-.6h1.4s0,.6,0,.6c0,1.1-.3,2.1-.9,3s-1.7,1.7-3,2.5l-.7-1.1ZM578.7,624.3v-1.3h7c0,0,0,1.2,0,1.2h-7ZM583.6,635.6c-.6,0-1.2,0-1.7-.3-.5-.2-.8-.5-1.1-1s-.4-.9-.4-1.4c0-.5.1-1,.4-1.4.2-.4.6-.7,1.1-1,.5-.2,1-.4,1.6-.4h2.8c.6,0,1.2,0,1.7.3.5.2.8.5,1.1,1,.3.4.4.9.4,1.4,0,.5-.1,1-.4,1.4s-.6.7-1.1,1c-.5.2-1,.4-1.7.4h-2.8s0,0,0,0ZM585.7,629.4l-4.2-2.7.7-1,4.2,2.6-.7,1.2h0ZM586.2,634.3c.6,0,1.1-.2,1.4-.4.3-.3.5-.6.5-1,0-.4-.2-.8-.5-1-.3-.3-.8-.4-1.4-.4h-2.4c-.6,0-1.1.2-1.4.4-.3.3-.5.6-.5,1s.2.8.5,1c.3.3.8.4,1.5.4h2.4s0,0,0,0ZM585.3,626.4v-1.2h3.3s0,1.2,0,1.2h-3.3ZM587.9,629.5v-7.1c0,0,1.3,0,1.3,0v7.1c0,0-1.3,0-1.3,0Z"/>
          <path class="st20" d="M595.3,629.1c-1,0-1.8-.2-2.5-.8s-1-1.3-1-2.3v-.2c0-.7.1-1.3.4-1.8.3-.5.7-.8,1.2-1.1.5-.2,1.1-.4,1.8-.4s1.2,0,1.8.3c.5.2.9.6,1.2,1s.5,1,.5,1.8v.2c0,.7-.1,1.3-.4,1.8s-.7.8-1.2,1.1c-.5.2-1.1.4-1.7.4h0ZM595.3,627.8c.6,0,1.1-.2,1.4-.5s.5-.8.5-1.5v-.2c0-.6-.2-1.1-.6-1.4s-.9-.5-1.5-.5c-.6,0-1.1.2-1.5.5s-.5.8-.5,1.5v.2c0,.6.2,1.1.6,1.4.4.3.9.5,1.5.5ZM600.9,635.4v-3.8s-7.2,0-7.2,0v-1.3s8.5-.1,8.5-.1v5.1c0,0-1.3,0-1.3,0h0ZM600.9,629.5v-7.3c0,0,1.3,0,1.3,0v7.3c0,0-1.3,0-1.3,0ZM601.7,624.8v-1.2h2.5s0,1.2,0,1.2h-2.5ZM601.8,627.5v-1.2h2.5s0,1.2,0,1.2h-2.5Z"/>
          <path class="st20" d="M605.5,629.5v-1.2l12.3-.2v1.2l-12.3.2ZM608.8,626.8c-.6-.2-1.1-.4-1.4-.8-.3-.4-.5-.8-.5-1.4,0-.8.3-1.4,1-1.8.7-.4,1.5-.6,2.7-.6h2.1c1.1,0,2,.1,2.7.5.7.4,1,1,1,1.8,0,.5-.2,1-.5,1.4-.3.4-.8.7-1.4.8v2.1s-1.3,0-1.3,0v-1.9c-.5,0-1,0-1.5,0h-1.5v1.9s-1.3,0-1.3,0v-2.1s0,0,0,0ZM610.2,635.3c-.7,0-1.3,0-1.8-.3-.5-.2-.9-.5-1.1-.8-.3-.4-.4-.8-.4-1.2s.1-.9.4-1.2.6-.7,1.1-.8,1.1-.3,1.8-.3h3c.7,0,1.3,0,1.8.2s.9.5,1.1.8c.3.3.4.8.4,1.2s-.1.9-.4,1.2-.6.7-1.1.9c-.5.2-1.1.3-1.8.3h-3ZM612.3,625.8c.8,0,1.4-.1,1.9-.3.4-.2.7-.5.6-.9,0-.4-.2-.7-.7-.9s-1.1-.3-1.9-.3h-1.6c-.8,0-1.4.1-1.9.4s-.6.5-.6.9.2.7.7.9c.4.2,1.1.3,1.9.3h1.6s0,0,0,0ZM612.9,634c.7,0,1.3-.1,1.6-.3.3-.2.5-.5.5-.9s-.2-.6-.5-.8-.9-.3-1.6-.3h-2.4c-.7,0-1.3.2-1.6.4s-.5.5-.5.8c0,.4.2.7.5.8.4.2.9.3,1.6.3h2.4s0,0,0,0Z"/>
          <path class="st20" d="M619.2,634.1v-1.3s12.3-.2,12.3-.2v1.3s-12.3.2-12.3.2ZM629.7,622.7v1.3s-7.7,0-7.7,0v4.3s7.9,0,7.9,0v1.3s-9.3.1-9.3.1v-6.9c0,0,9.1-.1,9.1-.1h0ZM624.6,633.7v-4.7c0,0,1.3,0,1.3,0v4.7c0,0-1.3,0-1.3,0Z"/>
          <path class="st20" d="M632.8,632.1c1.2-1.2,2-2.5,2.6-3.7.5-1.3.8-2.7.8-4.2v-1.7s1.3,0,1.3,0v1.7c0,1.7-.2,3.3-.9,4.7s-1.6,2.8-2.9,4.2l-1-.9h0ZM640,632.9l-4.2-4.9,1-.9,4.2,4.9-1,.9h0ZM639.4,627.5v-1.3s3.7,0,3.7,0v1.3s-3.7,0-3.7,0ZM642.6,634.7l-.2-13.1h1.4s.2,13.1.2,13.1h-1.4Z"/>
          <path class="st20" d="M646.3,629.8v-1.3c0,0,2.2,0,2.2,0,.8,0,1.8,0,2.9-.1s2.2-.2,3.1-.3l.2,1.2c-1,.2-2,.3-3.2.4s-2.2.1-3.2.2h-2.1s0,0,0,0ZM651.8,627.1c.1-.7.2-1.4.3-2s0-1.2,0-1.6v-.6l.5.6h-5.7c0,0,0-1.1,0-1.1h6.5c0,0,0,.6,0,.6,0,1.3,0,2.8-.4,4.4l-1.3-.2h0ZM648.6,634.7v-3.5s1.4,0,1.4,0v2.3s7.8,0,7.8,0v1.3s-9.2.1-9.2.1h0ZM648.9,628.8v-3.4s1.4,0,1.4,0v3.4s-1.4,0-1.4,0ZM655.6,631.6v-10.1c-.1,0,1.3,0,1.3,0v10.1c.1,0-1.3,0-1.3,0ZM656.4,626.7v-1.3s2.4,0,2.4,0v1.3s-2.4,0-2.4,0Z"/>
        </g>
        <g>
          <path class="st20" d="M742.2,628.4c1.6-.5,2.9-1.2,3.8-1.9.9-.8,1.3-1.6,1.3-2.4v-.4l.5.6h-5.3c0,0,0-1.2,0-1.2h6.2c0,0,0,.6,0,.6,0,1.4-.5,2.5-1.5,3.5s-2.5,1.8-4.4,2.4l-.5-1.2ZM747.1,635.5c-.6,0-1.2,0-1.6-.3-.5-.2-.8-.5-1.1-1-.3-.4-.4-.9-.4-1.4,0-.5.1-1,.4-1.4s.6-.7,1.1-1c.5-.2,1-.4,1.6-.4h2.9c.6,0,1.2,0,1.7.3.5.2.8.5,1.1,1,.3.4.4.9.4,1.4,0,.5-.1,1-.4,1.4s-.6.7-1.1,1c-.5.2-1,.4-1.6.4h-2.9ZM749.7,634.2c.6,0,1.1-.2,1.4-.4.3-.3.5-.6.5-1s-.2-.8-.5-1c-.3-.3-.8-.4-1.5-.4h-2.4c-.6,0-1.1.2-1.4.4-.3.3-.5.6-.5,1s.2.8.5,1c.3.3.8.4,1.5.4h2.4ZM748.2,625.4v-1.1h3.8s0,1.1,0,1.1h-3.8ZM748.5,628v-1.1h3.7s0,1.1,0,1.1h-3.7ZM751.4,629.4v-7.1c0,0,1.3,0,1.3,0v7.1c0,0-1.3,0-1.3,0Z"/>
          <path class="st20" d="M755.9,632.6c1.1-.7,2-1.5,2.8-2.4.8-.9,1.3-1.8,1.7-2.8.4-1,.6-1.9.6-2.8v-.6l.5.5h-5.4c0,0,0-1.2,0-1.2h6.3c0,0,0,1.1,0,1.1,0,1.8-.4,3.5-1.4,5.2s-2.4,3-4.2,4.3l-.9-1.1h0ZM765.2,635.2l-.2-13.1h1.4s.2,13.1.2,13.1h-1.4Z"/>
          <path class="st20" d="M769,632.4c1.2-1.2,2-2.5,2.6-3.7s.8-2.7.8-4.2v-1.7s1.3,0,1.3,0v1.7c0,1.7-.2,3.3-.9,4.7s-1.6,2.8-2.9,4.2l-1-.9h0ZM776.2,633.1l-4.2-4.9,1-.9,4.2,4.9-1,.9h0ZM778.8,635l-.2-13.1h1.4s.2,13.1.2,13.1h-1.4Z"/>
          <path class="st20" d="M782.7,628.2c1.1-.6,1.9-1.2,2.5-1.8s.8-1.4.8-2.2v-.3h1.4s0,.3,0,.3c0,1.1-.3,2.1-1,2.9-.7.8-1.7,1.6-3,2.3l-.6-1.2ZM783.1,624.5v-1.3s7.2,0,7.2,0v1.3s-7.2,0-7.2,0ZM788,635c-.6,0-1.2,0-1.7-.3s-.8-.5-1.1-.9c-.3-.4-.4-.8-.4-1.3,0-.5.1-1,.4-1.3.2-.4.6-.7,1.1-.9.5-.2,1-.3,1.6-.3h2.9c.6,0,1.2,0,1.7.3s.8.5,1.1.9c.3.4.4.8.4,1.3,0,.5-.1,1-.4,1.3s-.6.7-1.1.9c-.5.2-1,.3-1.6.3h-2.9s0,0,0,0ZM786,623.7v-2.1s1.3,0,1.3,0v2.1s-1.3,0-1.3,0ZM790.1,629.1l-4.1-2.5.7-1.1,4.2,2.5-.7,1.2h0ZM790.7,633.7c.6,0,1.1-.1,1.4-.4s.5-.6.5-1-.2-.7-.5-1c-.3-.2-.8-.3-1.5-.3h-2.4c-.6,0-1.1.2-1.4.4-.3.2-.5.6-.5,1s.2.7.5,1c.3.2.8.3,1.5.3h2.4ZM789.8,626.3v-1.2h3.3s0,1.2,0,1.2h-3.3ZM792.4,629.2v-7.4c0,0,1.3,0,1.3,0v7.4c0,0-1.3,0-1.3,0Z"/>
          <path class="st20" d="M796,632.1c.7-.8,1.3-1.6,1.8-2.4.5-.8.8-1.6,1.1-2.4s.3-1.8.3-2.8v-1.1h1.3s0,1.1,0,1.1c0,1.6-.2,3.1-.8,4.4s-1.5,2.7-2.7,4l-1-.9h0ZM796.4,624v-1.3s7,0,7,0v1.3s-7,0-7,0ZM803,632.8l-4-4.8,1-.9,4,4.8-1,.9ZM805.4,634.7l-.2-13.1h1.4s.2,13.1.2,13.1h-1.4ZM806.2,627.8v-1.3s2.5,0,2.5,0v1.3s-2.5,0-2.5,0Z"/>
          <path class="st20" d="M742.5,652.1v-10c-.1,0,6.4,0,6.4,0v10c.1,0-6.4,0-6.4,0ZM743.9,650.8h3.7s0-7.5,0-7.5h-3.7s0,7.5,0,7.5ZM751.8,654.1l-.2-13.1h1.4s.2,13.1.2,13.1h-1.4Z"/>
          <path class="st20" d="M756.4,652v-10c-.1,0,6.4,0,6.4,0v1.3s-5,0-5,0v7.4h1.2c.7,0,1.5,0,2.4-.2s1.7-.2,2.6-.3l.2,1.2c-.8.2-1.7.3-2.6.4-1,0-1.9.1-2.8.2h-2.3s0,0,0,0ZM765.4,654l-.2-13.1h1.4s.2,13.1.2,13.1h-1.4Z"/>
          <path class="st20" d="M773.2,652.2c-1,0-1.9-.3-2.5-1s-1-1.8-1-3.3v-2c0-1.5.3-2.6.9-3.3.6-.7,1.5-1.1,2.5-1.1,1,0,1.9.3,2.5,1,.7.7,1,1.8,1,3.3v2c0,1.5-.3,2.6-.9,3.3s-1.5,1.1-2.5,1.1ZM773.2,650.9c.6,0,1.1-.3,1.5-.8.4-.5.5-1.3.5-2.4v-2c0-1.1-.2-1.9-.6-2.4s-.9-.7-1.5-.7c-.6,0-1.1.3-1.5.8-.4.5-.5,1.3-.5,2.4v2c0,1.1.2,1.9.6,2.4.4.5.9.7,1.5.7h0ZM775.8,647.1v-1.3s3.8,0,3.8,0v1.3s-3.8,0-3.8,0ZM779,653.8l-.2-13.1h1.4s.2,13.1.2,13.1h-1.4Z"/>
          <path class="st20" d="M782.7,647.5c.9-.8,1.5-1.6,2-2.5.4-.9.6-1.8.6-2.9v-1h1.3s0,1,0,1c0,1.3-.2,2.4-.7,3.5-.5,1-1.3,2-2.3,2.9l-.9-1h0ZM788.4,648.2l-3.2-3.1.9-1,3.1,3.1-.9,1h0ZM785.5,653.7v-4.1s1.4,0,1.4,0v2.8s8,0,8,0v1.3s-9.4.1-9.4.1h0ZM788,644.7v-1.3s2.5,0,2.5,0v1.3s-2.5,0-2.5,0ZM790.2,650v-9.3c-.1,0,1.2,0,1.2,0v9.3c.1,0-1.2,0-1.2,0ZM792.9,650.3v-9.8c-.1,0,1.2,0,1.2,0v9.8c.1,0-1.2,0-1.2,0Z"/>
          <path class="st20" d="M797.2,651.7v-10.3c-.1,0,6.3,0,6.3,0v1.3s-5,0-5,0v7.7c0,0,1.4,0,1.4,0,.8,0,1.6,0,2.4-.1s1.7-.2,2.4-.3l.2,1.2c-.7.2-1.6.3-2.5.4-.9,0-1.8.1-2.8.2h-2.4s0,0,0,0ZM797.8,647.1v-1.2s5.6,0,5.6,0v1.2s-5.6,0-5.6,0ZM804.1,646.7v-1.3s2.9,0,2.9,0v1.3s-2.9,0-2.9,0ZM806.3,653.5l-.2-13.1h1.4s.2,13.1.2,13.1h-1.4Z"/>
        </g>
        <g>
          <path class="st20" d="M1045.5,423.8v-1.3c0,0,2.3,0,2.3,0,.8,0,1.8,0,2.9-.1,1.2,0,2.2-.2,3.3-.3l.2,1.2c-1,.1-2,.2-3.2.3s-2.3.1-3.3.1h-2.2,0ZM1049.6,420.6c-.7,0-1.3-.1-1.8-.4s-.9-.6-1.3-1.2c-.3-.5-.5-1.2-.5-1.9v-.2c0-.8.2-1.4.5-1.9s.7-.9,1.3-1.2,1.1-.4,1.8-.4,1.3.1,1.8.4.9.6,1.3,1.2.5,1.2.5,1.9v.2c0,.8-.2,1.4-.5,1.9-.3.5-.7.9-1.3,1.2-.5.3-1.1.4-1.8.4ZM1049.6,419.3c.6,0,1.1-.2,1.5-.6.4-.4.6-.9.6-1.6v-.2c0-.7-.2-1.3-.6-1.6s-.9-.6-1.5-.6-1.1.2-1.5.6-.6.9-.6,1.6v.2c0,.7.2,1.3.6,1.6s.9.6,1.5.6ZM1055.1,425.8v-13.1h1.4v13.1h-1.4Z"/>
          <path class="st20" d="M1059.1,418.9c1.2-.6,2-1.3,2.5-2s.8-1.4.8-2.3v-.6h1.4v.6c0,1.1-.3,2.1-1,3s-1.7,1.7-3.1,2.4l-.7-1.1h0ZM1059.6,414.6v-1.3h7.1v1.3h-7.1ZM1064.3,426c-.6,0-1.2-.1-1.6-.4-.5-.2-.8-.5-1.1-1s-.4-.9-.4-1.4.1-1,.4-1.4.6-.7,1.1-1c.5-.2,1-.4,1.6-.4h2.8c.6,0,1.2.1,1.7.4s.8.5,1.1,1,.4.9.4,1.4-.1,1-.4,1.4-.6.7-1.1,1c-.5.2-1,.4-1.7.4h-2.8ZM1066.4,419.8l-4.2-2.8.7-1,4.2,2.6-.7,1.2h0ZM1067,424.7c.6,0,1.1-.1,1.4-.4.3-.3.5-.6.5-1s-.2-.8-.5-1c-.3-.3-.8-.4-1.4-.4h-2.4c-.6,0-1.1.1-1.4.4-.3.3-.5.6-.5,1s.2.8.5,1,.8.4,1.4.4h2.4ZM1066.2,416.8v-1.2h3.3v1.2h-3.3ZM1068.7,419.9v-7.1h1.4v7.1h-1.4Z"/>
          <path class="st20" d="M1072.6,422.3v-1.3h12.3v1.3h-12.3ZM1074.1,419.3v-6h1.4v4.8h6.5v-4.8h1.4v6h-9.3ZM1074.9,416.4v-1.2h7.7v1.2h-7.7ZM1078,426v-4.6h1.4v4.6h-1.4Z"/>
          <path class="st20" d="M1086.4,423.1c.8-.8,1.4-1.6,1.9-2.3s.9-1.6,1.1-2.4c.3-.9.4-1.8.4-2.8v-1.1h1.4v1.1c0,1.6-.3,3.1-.9,4.4-.6,1.4-1.6,2.7-2.9,4l-1-.9h0ZM1086.9,415v-1.3h7.2v1.3h-7.2ZM1093.6,423.9l-4.1-4.9,1-.9,4.2,4.9-1,.9ZM1096,425.8v-13.1h1.4v13.1h-1.4Z"/>
          <path class="st20" d="M1100.1,419.4v-6.1h1.3v4.8h3.7v-4.8h1.3v6.1h-6.4,0ZM1100.8,416.3v-1.2h5.1v1.2h-5.1ZM1104.8,426c-.6,0-1.2-.1-1.6-.3-.5-.2-.8-.5-1.1-1-.2-.4-.4-.9-.4-1.4s.1-1,.4-1.4.6-.7,1.1-.9c.5-.2,1-.3,1.6-.3h2.8c.6,0,1.2.1,1.6.3s.8.5,1.1.9c.2.4.4.9.4,1.4s-.1,1-.4,1.4-.6.7-1.1,1-1,.3-1.6.3h-2.8ZM1107.3,424.7c.6,0,1.1-.1,1.4-.4.3-.2.5-.6.5-1s-.2-.8-.5-1c-.3-.2-.8-.4-1.4-.4h-2.3c-.6,0-1.1.1-1.4.4-.3.2-.5.6-.5,1s.2.8.5,1,.8.4,1.4.4h2.3ZM1108.9,419.9v-7.2h1.4v7.2h-1.4ZM1109.9,416.8v-1.3h2.5v1.3h-2.5Z"/>
          <path class="st20" d="M1114.2,419.2v-5.9h1.3v4.6h3.8v-4.6h1.3v5.9h-6.5,0ZM1114.8,416.2v-1.2h5.2v1.2h-5.2ZM1116.1,425.8v-5.5h1.4v4.3h5.8v-4.3h1.4v5.5h-8.7ZM1117,423v-1.2h6.8v1.2h-6.8ZM1120.2,416.7v-1.2h3.9v1.2h-3.9ZM1123.3,419.6v-6.9h1.4v6.9h-1.4Z"/>
          <path class="st20" d="M1127.4,420.2v-1.2c0,0,2.3,0,2.3,0,.8,0,1.8,0,3-.1,1.2,0,2.2-.2,3.3-.3v1.2c-.8.1-1.9.2-3.1.3-1.2,0-2.3.1-3.3.1h-2.2ZM1131.5,418c-1,0-1.9-.2-2.5-.6s-1-1-1-1.8v-.2c0-.8.3-1.4,1-1.8.7-.4,1.5-.6,2.5-.6s1.9.2,2.5.6,1,1,1,1.8v.2c0,.8-.3,1.4-1,1.8-.7.4-1.5.6-2.5.6ZM1131.5,416.8c.7,0,1.2-.1,1.6-.3s.6-.5.6-.9h0c0-.5-.2-.8-.6-1s-.9-.3-1.6-.3-1.2.1-1.6.3c-.4.2-.6.5-.6.9h0c0,.5.2.8.6,1,.4.2.9.3,1.6.3ZM1129.6,425.8v-3h1.4v1.7h7.9v1.3h-9.3ZM1130.5,422.2c.1-1.1.2-2,.2-2.6h1.3c0,.9-.1,1.8-.2,2.7h-1.3ZM1133.3,422v-1.1h4.3v1.1h-4.3ZM1137,423.2v-10.4h1.4v10.4h-1.4Z"/>
          <path class="st20" d="M1059.2,438.1v-6h1.4v4.7h1.1c.7,0,1.5,0,2.4-.1.9,0,1.7-.2,2.6-.3l.2,1.2c-.8.1-1.7.2-2.6.3s-1.8.1-2.7.1h-2.3ZM1061,444.6v-5.2h8.4v5.2h-8.4ZM1062.4,443.4h5.6v-2.7h-5.6v2.7ZM1068,438.6v-7.1h1.4v7.1h-1.4ZM1068.9,435.6v-1.3h2.5v1.3h-2.5Z"/>
          <path class="st20" d="M1076.1,438.2c-1,0-1.8-.3-2.5-.8-.7-.5-1-1.3-1-2.3v-.2c0-.7.2-1.2.4-1.7s.7-.8,1.2-1,1.1-.4,1.8-.4,1.2.1,1.8.4.9.6,1.2,1,.4,1,.4,1.7v.2c0,.7-.2,1.2-.4,1.7s-.7.8-1.2,1-1.1.4-1.8.4h0ZM1076.1,437c.6,0,1.1-.2,1.4-.5.4-.3.6-.8.6-1.4v-.2c0-.6-.2-1.1-.6-1.4-.4-.3-.9-.5-1.5-.5s-1.1.2-1.5.5c-.4.3-.6.8-.6,1.4v.2c0,.6.2,1.1.6,1.4.4.3.9.5,1.5.5h0ZM1077.5,444.8c-.6,0-1.2-.1-1.6-.4-.5-.2-.8-.5-1.1-1s-.4-.9-.4-1.4.1-1,.4-1.4.6-.7,1.1-1c.5-.2,1-.4,1.6-.4h2.8c.6,0,1.2.1,1.6.4s.8.5,1.1,1,.4.9.4,1.4-.1,1-.4,1.4-.6.7-1.1,1c-.5.2-1,.4-1.6.4h-2.8ZM1080,443.5c.6,0,1.1-.1,1.4-.4.3-.3.5-.6.5-1s-.2-.8-.5-1-.8-.4-1.4-.4h-2.3c-.6,0-1.1.1-1.4.4-.3.3-.5.6-.5,1s.2.8.5,1,.8.4,1.4.4h2.3ZM1081.6,438.7v-7.1h1.4v7.1h-1.4ZM1082.6,434.2v-1.2h2.5v1.2h-2.5ZM1082.6,436.8v-1.2h2.5v1.2h-2.5Z"/>
          <path class="st20" d="M1086.2,441v-1.3h12.3v1.3h-12.3ZM1087.2,437.2c1.6-.5,2.7-1.1,3.5-1.8.8-.6,1.1-1.3,1.1-2v-.8h1.4v.8c0,1.1-.4,2-1.3,2.8s-2.3,1.6-4.2,2.2l-.5-1.2h0ZM1087.9,433.4v-1.2h9v1.2h-9ZM1097,438.4l-5.5-2.8.6-1.2,5.5,2.7-.6,1.2h0ZM1091.7,444.8v-4.9h1.4v4.9h-1.4Z"/>
          <path class="st20" d="M1100,441.9c.8-.8,1.4-1.6,1.9-2.3s.9-1.6,1.1-2.4c.3-.9.4-1.8.4-2.8v-1.1h1.4v1.1c0,1.6-.3,3.1-.9,4.4-.6,1.4-1.6,2.7-2.9,4l-1-.9h0ZM1100.5,433.9v-1.3h7.2v1.3h-7.2ZM1107.3,442.7l-4.1-4.9,1-.9,4.2,4.9-1,.9ZM1109.7,444.6v-13.1h1.4v13.1h-1.4Z"/>
          <path class="st20" d="M1113.7,439v-1.2c0,0,2.3,0,2.3,0,.8,0,1.8,0,3-.1,1.2,0,2.2-.2,3.3-.3v1.2c-.8.1-1.9.2-3.1.3-1.2,0-2.3.1-3.3.1h-2.2ZM1117.8,436.8c-1,0-1.9-.2-2.5-.6s-1-1-1-1.8v-.2c0-.8.3-1.4,1-1.8.7-.4,1.5-.6,2.5-.6s1.9.2,2.5.6,1,1,1,1.8v.2c0,.8-.3,1.4-1,1.8-.7.4-1.5.6-2.5.6ZM1117.8,435.6c.7,0,1.2-.1,1.6-.3s.6-.5.6-.9h0c0-.5-.2-.8-.6-1s-.9-.3-1.6-.3-1.2.1-1.6.3c-.4.2-.6.5-.6.9h0c0,.5.2.8.6,1,.4.2.9.3,1.6.3ZM1116,444.6v-3h1.4v1.7h7.9v1.3h-9.3ZM1116.8,441c.1-1.1.2-2,.2-2.6h1.3c0,.9-.1,1.8-.2,2.7h-1.3ZM1119.7,440.9v-1.1h4.3v1.1h-4.3ZM1123.3,442v-10.4h1.4v10.4h-1.4Z"/>
        </g>
        <g>
          <path class="st20" d="M770,423.8v-1.3c0,0,2.3,0,2.3,0,.8,0,1.8,0,2.9-.1,1.2,0,2.2-.2,3.3-.3l.2,1.2c-1,.1-2,.2-3.2.3s-2.3.1-3.3.1h-2.2,0ZM774.1,420.6c-.7,0-1.3-.1-1.8-.4-.5-.3-1-.6-1.3-1.2-.3-.5-.5-1.2-.5-1.9v-.2c0-.8.2-1.4.5-1.9s.7-.9,1.3-1.2,1.1-.4,1.8-.4,1.3.1,1.8.4c.5.3,1,.6,1.3,1.2s.5,1.2.5,1.9v.2c0,.8-.2,1.4-.5,1.9-.3.5-.7.9-1.3,1.2-.5.3-1.1.4-1.8.4ZM774.1,419.3c.6,0,1.1-.2,1.5-.6.4-.4.6-.9.6-1.6v-.2c0-.7-.2-1.3-.6-1.6s-.9-.6-1.5-.6-1.1.2-1.5.6-.6.9-.6,1.6v.2c0,.7.2,1.3.6,1.6s.9.6,1.5.6ZM779.6,425.8v-13.1h1.4v13.1h-1.4Z"/>
          <path class="st20" d="M783.6,418.9c1.2-.6,2-1.3,2.5-2,.5-.7.8-1.4.8-2.3v-.6h1.4v.6c0,1.1-.3,2.1-1,3s-1.7,1.7-3.1,2.4l-.7-1.1h0ZM784.1,414.6v-1.3h7v1.3h-7ZM788.9,426c-.6,0-1.2-.1-1.6-.4-.5-.2-.8-.5-1.1-1s-.4-.9-.4-1.4.1-1,.4-1.4.6-.7,1.1-1c.5-.2,1-.4,1.6-.4h2.8c.6,0,1.2.1,1.7.4.5.2.8.5,1.1,1s.4.9.4,1.4-.1,1-.4,1.4-.6.7-1.1,1c-.5.2-1,.4-1.7.4h-2.8ZM791,419.8l-4.2-2.8.7-1,4.2,2.6-.7,1.2h0ZM791.5,424.7c.6,0,1.1-.1,1.4-.4.3-.3.5-.6.5-1s-.2-.8-.5-1c-.3-.3-.8-.4-1.4-.4h-2.4c-.6,0-1.1.1-1.5.4-.3.3-.5.6-.5,1s.2.8.5,1,.8.4,1.5.4h2.4ZM790.7,416.8v-1.2h3.3v1.2h-3.3ZM793.3,419.9v-7.1h1.4v7.1h-1.4Z"/>
          <path class="st20" d="M797.1,422.3v-1.3h12.3v1.3h-12.3ZM798.6,419.3v-6h1.4v4.8h6.5v-4.8h1.4v6h-9.3,0ZM799.4,416.4v-1.2h7.7v1.2h-7.7ZM802.6,426v-4.6h1.4v4.6h-1.4Z"/>
          <path class="st20" d="M810.9,423.1c.8-.8,1.4-1.6,1.9-2.3s.9-1.6,1.1-2.4c.3-.9.4-1.8.4-2.8v-1.1h1.4v1.1c0,1.6-.3,3.1-.9,4.4-.6,1.4-1.6,2.7-2.9,4l-1-.9h0ZM811.4,415v-1.3h7.2v1.3h-7.2ZM818.2,423.9l-4.1-4.9,1-.9,4.2,4.9-1,.9ZM820.6,425.8v-13.1h1.4v13.1h-1.4Z"/>
          <path class="st20" d="M824.7,419.4v-6.1h1.3v4.8h3.7v-4.8h1.3v6.1h-6.4,0ZM825.3,416.3v-1.2h5.1v1.2h-5.1ZM829.3,426c-.6,0-1.2-.1-1.6-.3-.5-.2-.8-.5-1.1-1-.2-.4-.4-.9-.4-1.4s.1-1,.4-1.4.6-.7,1.1-.9c.5-.2,1-.3,1.6-.3h2.8c.6,0,1.2.1,1.6.3.5.2.8.5,1.1.9.2.4.4.9.4,1.4s-.1,1-.4,1.4-.6.7-1.1,1c-.5.2-1,.3-1.6.3h-2.8ZM831.9,424.7c.6,0,1.1-.1,1.4-.4.3-.2.5-.6.5-1s-.2-.8-.5-1c-.3-.2-.8-.4-1.4-.4h-2.3c-.6,0-1.1.1-1.4.4-.3.2-.5.6-.5,1s.2.8.5,1,.8.4,1.4.4h2.3ZM833.5,419.9v-7.2h1.4v7.2h-1.4ZM834.4,416.8v-1.3h2.5v1.3h-2.5Z"/>
          <path class="st20" d="M838.7,418.7c1.6-.5,2.9-1.1,3.8-1.8.9-.7,1.4-1.5,1.4-2.4v-.4l.5.6h-5.4v-1.3h6.3v.7c0,1.4-.5,2.5-1.6,3.5s-2.6,1.7-4.5,2.3l-.5-1.3h0ZM840.6,425.8v-5.2h8.7v5.2h-8.7ZM842,424.6h5.8v-2.7h-5.8v2.7ZM843.9,417.3v-1.3h4.6v1.3h-4.6ZM847.9,419.8v-7.1h1.4v7.1h-1.4Z"/>
          <path class="st20" d="M851.5,418.5c1.1-.5,2-1,2.5-1.5s.8-1.2.8-1.9v-.3h1.3v.3c0,1-.3,2-1,2.7s-1.7,1.4-3.1,2l-.5-1.2h0ZM851.9,415.3v-1.2h7.1v1.2h-7.1ZM853.8,425.9v-3.5h7v-1.1h-7v-1.2h8.5v3.4h-7v1.1h7.5v1.2h-8.9ZM858.9,419.4l-4.1-2.2.6-1.1,4.1,2.1-.6,1.2h0ZM854.8,414.5v-2h1.3v2h-1.3ZM860.8,419.4v-6.7h1.4v6.7h-1.4ZM861.7,416.6v-1.3h2.5v1.3h-2.5Z"/>
          <path class="st20" d="M865.5,419.1c1.1-.6,2-1.2,2.5-1.8s.8-1.4.8-2.1v-.3h1.4v.3c0,1.1-.3,2.1-1,2.9s-1.7,1.6-3.1,2.2l-.6-1.2ZM866,415.4v-1.3h7.2v1.3h-7.2ZM870.8,426c-.6,0-1.2-.1-1.7-.3-.5-.2-.8-.5-1.1-.9-.2-.4-.4-.8-.4-1.3s.1-1,.4-1.3c.2-.4.6-.7,1.1-.9.5-.2,1-.3,1.7-.3h2.9c.6,0,1.2.1,1.7.3.5.2.8.5,1.1.9.2.4.4.8.4,1.3s-.1,1-.4,1.3c-.2.4-.6.7-1.1.9-.5.2-1,.3-1.7.3h-2.9ZM872.9,420.1l-4.1-2.6.7-1.1,4.1,2.5-.7,1.2h0ZM868.8,414.7v-2.1h1.4v2.1h-1.4ZM873.4,424.7c.6,0,1.1-.1,1.5-.4.3-.2.5-.5.5-1s-.2-.7-.5-1c-.3-.2-.8-.4-1.5-.4h-2.4c-.6,0-1.1.1-1.5.4s-.5.6-.5,1,.2.7.5,1,.8.4,1.5.4h2.4ZM872.6,417.3v-1.2h3.3v1.2h-3.3ZM875.2,420.1v-7.4h1.4v7.4h-1.4Z"/>
          <path class="st20" d="M790.6,438.1v-6h1.4v4.7h1.1c.7,0,1.5,0,2.4-.1.9,0,1.7-.2,2.5-.3l.2,1.2c-.8.1-1.7.2-2.6.3s-1.8.1-2.7.1h-2.2ZM792.4,444.6v-5.2h8.4v5.2h-8.4ZM793.8,443.4h5.6v-2.7h-5.6v2.7ZM799.3,438.6v-7.1h1.4v7.1h-1.4ZM800.3,435.6v-1.3h2.5v1.3h-2.5Z"/>
          <path class="st20" d="M807.5,438.2c-1,0-1.8-.3-2.5-.8-.7-.5-1-1.3-1-2.3v-.2c0-.7.2-1.2.5-1.7s.7-.8,1.2-1c.5-.2,1.1-.4,1.8-.4s1.2.1,1.8.4.9.6,1.2,1,.4,1,.4,1.7v.2c0,.7-.2,1.2-.4,1.7s-.7.8-1.2,1c-.5.2-1.1.4-1.8.4h0ZM807.5,437c.6,0,1.1-.2,1.5-.5.4-.3.6-.8.6-1.4v-.2c0-.6-.2-1.1-.6-1.4-.4-.3-.9-.5-1.5-.5s-1.1.2-1.5.5c-.4.3-.6.8-.6,1.4v.2c0,.6.2,1.1.6,1.4.4.3.9.5,1.5.5h0ZM808.9,444.8c-.6,0-1.2-.1-1.6-.4-.5-.2-.8-.5-1.1-1s-.4-.9-.4-1.4.1-1,.4-1.4.6-.7,1.1-1c.5-.2,1-.4,1.6-.4h2.8c.6,0,1.2.1,1.6.4.5.2.8.5,1.1,1s.4.9.4,1.4-.1,1-.4,1.4-.6.7-1.1,1c-.5.2-1,.4-1.6.4h-2.8ZM811.4,443.5c.6,0,1.1-.1,1.4-.4.3-.3.5-.6.5-1s-.2-.8-.5-1-.8-.4-1.4-.4h-2.3c-.6,0-1.1.1-1.4.4-.3.3-.5.6-.5,1s.2.8.5,1,.8.4,1.4.4h2.3ZM813,438.7v-7.1h1.4v7.1h-1.4ZM813.9,434.2v-1.2h2.5v1.2h-2.5ZM813.9,436.8v-1.2h2.5v1.2h-2.5Z"/>
          <path class="st20" d="M817.6,441v-1.3h12.3v1.3h-12.3ZM818.5,437.2c1.5-.5,2.7-1.1,3.5-1.8.8-.6,1.1-1.3,1.1-2v-.8h1.4v.8c0,1.1-.4,2-1.3,2.8s-2.3,1.6-4.2,2.2l-.5-1.2h0ZM819.2,433.4v-1.2h9v1.2h-9ZM828.3,438.4l-5.5-2.8.6-1.2,5.5,2.7-.6,1.2h0ZM823,444.8v-4.9h1.4v4.9h-1.4Z"/>
          <path class="st20" d="M831.4,441.9c.8-.8,1.4-1.6,1.9-2.3s.9-1.6,1.1-2.4c.3-.9.4-1.8.4-2.8v-1.1h1.4v1.1c0,1.6-.3,3.1-.9,4.4-.6,1.4-1.6,2.7-2.9,4l-1-.9h0ZM831.9,433.9v-1.3h7.2v1.3h-7.2ZM838.6,442.7l-4.1-4.9,1-.9,4.2,4.9-1,.9ZM841,444.6v-13.1h1.4v13.1h-1.4Z"/>
          <path class="st20" d="M845,437.9c1.1-.6,2-1.2,2.5-1.8s.8-1.4.8-2.1v-.3h1.4v.3c0,1.1-.3,2.1-1,2.9s-1.7,1.6-3.1,2.2l-.6-1.2ZM845.5,434.2v-1.3h7.2v1.3h-7.2ZM850.3,444.8c-.6,0-1.2-.1-1.7-.3-.5-.2-.8-.5-1.1-.9-.2-.4-.4-.8-.4-1.3s.1-1,.4-1.3c.2-.4.6-.7,1.1-.9.5-.2,1-.3,1.7-.3h2.9c.6,0,1.2.1,1.7.3.5.2.8.5,1.1.9.2.4.4.8.4,1.3s-.1,1-.4,1.3c-.2.4-.6.7-1.1.9-.5.2-1,.3-1.7.3h-2.9ZM852.4,438.9l-4.1-2.6.7-1.1,4.1,2.5-.7,1.2h0ZM848.4,433.5v-2.1h1.4v2.1h-1.4ZM852.9,443.5c.6,0,1.1-.1,1.5-.4.3-.2.5-.5.5-1s-.2-.7-.5-1c-.3-.2-.8-.4-1.5-.4h-2.4c-.6,0-1.1.1-1.5.4s-.5.6-.5,1,.2.7.5,1,.8.4,1.5.4h2.4ZM852.1,436.1v-1.2h3.3v1.2h-3.3ZM854.7,439v-7.4h1.4v7.4h-1.4Z"/>
        </g>
      </g>
    </g>
  </g>
</svg>