<?xml version="1.0" encoding="UTF-8"?>
<svg id="_레이어_1" data-name="레이어_1" xmlns="http://www.w3.org/2000/svg" version="1.1" viewBox="0 0 103.7 13.6">
  <!-- Generator: Adobe Illustrator 30.0.0, SVG Export Plug-In . SVG Version: 2.1.1 Build 123)  -->
  <defs>
    <style>
      .st0 {
        fill: #5f6264;
      }
    </style>
  </defs>
  <path class="st0" d="M82.4.4h-2.5v6.7h2.5V.4Z"/>
  <path class="st0" d="M67.5,7.8h-2.5v5.8h17.7v-2h-15.3v-3.8Z"/>
  <path class="st0" d="M67.3,6.6h8c1.7,0,3-1.3,3-3s-1.3-3-3-3h-8c-1.7,0-3,1.3-3,3s1.4,3,3,3ZM67.8,2.5h6.9c.6,0,1.1.5,1.1,1.1s-.5,1.1-1.1,1.1h-6.9c-.6,0-1.1-.5-1.1-1.1s.5-1.1,1.1-1.1Z"/>
  <path class="st0" d="M12,.8H0v2h12V.8Z"/>
  <path class="st0" d="M17.5.4h-2.5v13.3h2.5v-6.6h1.8v-2h-1.8V.4Z"/>
  <path class="st0" d="M2.5,4.1H0v8.9h12.2v-2H2.5v-6.8Z"/>
  <path class="st0" d="M28.5,2.4c2.5,0,4.5,1.9,4.5,4.2h2.5c0-3.4-3.1-6.2-7-6.2s-7,2.8-7,6.2h2.5c0-2.3,2-4.2,4.5-4.2Z"/>
  <path class="st0" d="M39.3.4h-2.5v6.7h2.5v-2.1h1.6v-2h-1.6V.4Z"/>
  <path class="st0" d="M24.4,7.8h-2.5v5.8h17.7v-2h-15.3v-3.8Z"/>
  <path class="st0" d="M49.7,2.4c2.5,0,4.5,1.9,4.5,4.2h2.5c0-3.4-3.1-6.2-7-6.2s-7,2.8-7,6.2h2.5c0-2.3,2-4.2,4.5-4.2Z"/>
  <path class="st0" d="M60.5.4h-2.5v6.4h2.5v-1.7h1.6v-2h-1.6V.4Z"/>
  <path class="st0" d="M58.1,7.8h-12.2c-1.6,0-2.9,1.3-2.9,2.9s1.3,2.9,2.9,2.9h12.2c1.6,0,2.9-1.3,2.9-2.9s-1.3-2.9-2.9-2.9ZM57.5,11.7h-11.1c-.5,0-1-.4-1-1s.4-1,1-1h11.1c.5,0,1,.4,1,1s-.5,1-1,1Z"/>
  <path class="st0" d="M99.3,1h-5.5V0h-2.5v1h-5.5v2h13.5v-2Z"/>
  <path class="st0" d="M103.7.4h-2.5v13.3h2.5V.4Z"/>
  <path class="st0" d="M93.8,9.7h2.1c1.7,0,3-1.3,3-3s-1.3-3-3-3h-6.6c-1.7,0-3,1.3-3,3s1.3,3,3,3h2.1v1.2h-5.6v2h14.2v-2h-6.1v-1.2h0ZM88.7,6.7c0-.6.5-1.1,1.1-1.1h5.6c.6,0,1.1.5,1.1,1.1s-.5,1.1-1.1,1.1h-5.6c-.6,0-1.1-.5-1.1-1.1Z"/>
</svg>