<?xml version="1.0" encoding="UTF-8"?>
<svg id="_레이어_1" data-name="레이어_1" xmlns="http://www.w3.org/2000/svg" version="1.1" viewBox="0 0 155.3 24">
  <!-- Generator: Adobe Illustrator 30.0.0, SVG Export Plug-In . SVG Version: 2.1.1 Build 123)  -->
  <defs>
    <style>
      .st0 {
        fill: #004a9a;
      }

      .st1 {
        fill: #fff;
      }

      .st2 {
        fill: #15afe7;
      }

      .st3 {
        fill: #73bb2e;
      }
    </style>
  </defs>
  <path class="st3" d="M40.4,2.1H5.6C2.5,2.2,0,4.6,0,7.7v12.2h40.4V2.1Z"/>
  <path class="st2" d="M54,5H21.7c-3.3.1-4.2,2.1-4.2,3.2v14.5h34c3.1,0,5.5-2.5,5.6-5.5V5h-3.1Z"/>
  <path class="st0" d="M40.4,19.8V5h-18.7c-3.3.1-4.2,2-4.2,3.2v11.6h22.9Z"/>
  <path class="st1" d="M51.7,19.7h-4.2c-1.7,0-3.1-.4-4-1.2-1-.9-1.6-2.2-1.6-3.9s.4-3,1.2-3.9c.9-1.1,2.4-1.6,4.5-1.6h4.2v1.8h-4.1c-1.2,0-2,.4-2.5,1.1-.4.6-.5,1.4-.5,2.5v.5c0,.9.1,1.5.4,1.9.5.7,1.3,1.1,2.6,1.1h4.1v1.8h0Z"/>
  <path class="st1" d="M5.2,19.8h2.5v-4.2h3l2.7,4.2h2.7l-2.9-4.5c.8-.2,1.5-.5,1.9-1.1.4-.5.5-1.1.5-1.9,0-1.2-.4-2-1.1-2.5-.7-.5-1.7-.7-3.1-.7h-6.2v10.7h0ZM12.4,13.6c-.3.1-.8.2-1.6.2h-3.1v-2.8h3.1c.8,0,1.4,0,1.8.3.4.2.6.5.6,1.1s-.2,1-.7,1.2Z"/>
  <path class="st1" d="M27.8,19.8h2.5v-3.8h3.6c1.1,0,2-.2,2.8-.5,1.2-.6,1.8-1.5,1.8-2.9s-.4-2.1-1.2-2.6c-.8-.5-2.1-.8-4-.8h-5.5v10.7ZM33.3,14.2h-3.1v-3.2h2.9c.9,0,1.5.1,1.9.3.4.2.6.6.6,1.2,0,1.1-.8,1.6-2.3,1.6Z"/>
  <path class="st1" d="M23.4,19.8h-2.5v-10.7h2.5v10.7Z"/>
  <path class="st3" d="M40.5,2H5.6C2.5,2.1,0,4.5,0,7.6v12.2h40.5V2Z"/>
  <path class="st2" d="M54.2,4.9H21.8c-3.3.1-4.2,2.1-4.2,3.2v14.6h34.2c3.1,0,5.5-2.5,5.6-5.6V4.9h-3.1Z"/>
  <path class="st0" d="M40.5,19.8V4.9h-18.7c-3.3.1-4.2,2-4.2,3.2v11.7h23Z"/>
  <path class="st1" d="M51.9,19.7h-4.3c-1.7,0-3.1-.4-4-1.2-1-.9-1.6-2.2-1.6-4s.4-3,1.2-4c.9-1.1,2.4-1.6,4.5-1.6h4.2v1.8h-4.2c-1.2,0-2,.4-2.5,1.1-.4.6-.5,1.4-.5,2.5v.5c0,.9.1,1.5.4,1.9.5.7,1.3,1.1,2.6,1.1h4.2v1.8h0Z"/>
  <path class="st1" d="M5.2,19.8h2.5v-4.2h3l2.7,4.2h2.8l-2.9-4.5c.8-.2,1.5-.5,1.9-1.1.4-.5.5-1.1.5-1.9,0-1.2-.4-2-1.1-2.5-.7-.5-1.7-.7-3.1-.7h-6.2v10.7h0ZM12.4,13.6c-.3.1-.8.2-1.6.2h-3.1v-2.8h3.1c.8,0,1.4,0,1.8.3.4.2.6.5.6,1.1s-.2,1-.7,1.2Z"/>
  <path class="st1" d="M27.8,19.8h2.5v-3.8h3.6c1.1,0,2.1-.2,2.8-.5,1.2-.6,1.8-1.5,1.8-3s-.4-2.1-1.2-2.6c-.8-.6-2.1-.8-4-.8h-5.5v10.7ZM33.4,14.1h-3.1v-3.2h3c.9,0,1.5.1,1.9.3.4.2.6.6.6,1.2,0,1.1-.8,1.6-2.4,1.6h0Z"/>
  <path class="st1" d="M23.4,19.8h-2.5v-10.7h2.5v10.7Z"/>
  <path class="st0" d="M69.3,10.6h-1.6v-.8h-2.1v-1.2h2.1v-.8h-2c-.3.8-.8,1.4-1.5,1.9-.7.5-1.6.9-2.7,1.2l-.6-1.2c2.1-.5,3.2-1.5,3.4-2.8h-2.9v-1.2h4.6c0,.3,0,.6,0,.9h1.7v-1.5h1.6v5.6ZM63,11.7c.3-.3.7-.5,1.2-.7.5-.2,1.1-.2,1.8-.2s1.3,0,1.8.2c.5.2.9.4,1.2.7s.4.7.4,1.1-.1.8-.4,1.1c-.3.3-.7.5-1.2.7-.5.2-1.1.2-1.8.2s-1.3,0-1.8-.2c-.5-.2-.9-.4-1.2-.7-.3-.3-.4-.7-.4-1.1s.1-.8.4-1.1ZM64.6,13.4c.3.1.8.2,1.4.2s1,0,1.4-.2c.3-.1.5-.3.5-.6s-.2-.5-.5-.6c-.3-.1-.8-.2-1.3-.2s-1.1,0-1.4.2c-.3.1-.5.3-.5.6s.2.5.5.6h0Z"/>
  <path class="st0" d="M72.5,10.7c.5-.5.9-1,1.2-1.5.3-.6.5-1.2.5-1.9h-3.2v-1.2h4.8c0,1.1-.1,2-.4,2.9-.3.9-.7,1.7-1.4,2.4-.7.7-1.6,1.3-2.7,1.9l-.8-1.2c.8-.4,1.5-.8,2.1-1.3h0ZM78.8,14.8h-1.6V5h1.6v9.8Z"/>
  <path class="st0" d="M89,10.8h-3.8v.7h2.7v3.2h-1.6v-2h-5.4v-1.2h2.7v-.7h-3.7v-1.2h9v1.2h0ZM81.1,5.2h1.5v.8h3.7v-.8h1.5v3.8h-6.7v-3.8ZM86.3,7.9v-.7h-3.7v.7h3.7Z"/>
  <path class="st0" d="M98.6,11.8h-3.8v3h-1.5v-3h-3.7v-1.2h9.1v1.2h0ZM90.6,5.4h1.5v1.1h3.9v-1.1h1.6v4.4h-7v-4.4ZM96,8.5v-.9h-3.9v.9h3.9Z"/>
  <path class="st0" d="M103.3,9.2c.2.5.4,1,.8,1.4.4.4.8.7,1.4,1l-.8,1.2c-.6-.2-1-.6-1.4-1-.4-.4-.7-.9-.9-1.5-.2.6-.5,1.2-.9,1.7-.4.5-.9.8-1.4,1.1l-.9-1.2c.6-.2,1-.6,1.4-1,.4-.4.6-.9.8-1.5.2-.6.3-1.1.3-1.7v-.4h-2v-1.3h5.6v1.3h-2v.4c0,.5,0,1.1.3,1.6h0ZM105.9,5h1.6v9.8h-1.6V5Z"/>
  <path class="st0" d="M112.8,7.5c.1.4.4.7.7,1,.3.3.8.5,1.3.7l-.8,1.2c-.5-.2-1-.4-1.4-.7-.4-.3-.7-.7-.9-1.1-.2.5-.6.9-.9,1.2-.4.3-.9.6-1.4.8l-.8-1.2c.5-.2,1-.4,1.3-.7.3-.3.6-.7.8-1,.2-.4.2-.8.2-1.2v-.9h1.6v.9c0,.4,0,.8.2,1.2h0ZM110.2,11.2h6.9v3.6h-1.6v-2.3h-5.3v-1.2h0ZM115.4,5h1.6v5.8h-1.6v-5.8Z"/>
  <path class="st0" d="M126.9,14.8h-1.5v-4.9h-.7v4.4h-1.5v-2.7l-.7,1c-.8-.4-1.4-1.1-1.8-2.2-.3,1.2-.9,2-1.8,2.5l-.9-1.2c.7-.4,1.2-1,1.5-1.8.3-.8.4-1.7.4-2.7v-.2h-1.6v-1.2h4.5v1.2h-1.4v.2c0,2,.6,3.3,1.8,4v-6.3h1.5v3.6h.7v-3.7h1.5v9.8h0Z"/>
  <path class="st0" d="M131.8,7.8c.2.4.4.7.7,1,.3.3.8.5,1.3.7l-.8,1.2c-.5-.2-1-.4-1.3-.7-.4-.3-.7-.7-.9-1.1-.2.5-.5.9-.9,1.2-.4.3-.9.6-1.4.8l-.9-1.2c.6-.2,1-.4,1.4-.7.4-.3.6-.7.8-1.1.2-.4.2-.8.2-1.3v-1h1.6v1c0,.4,0,.8.2,1.2h0ZM129.2,11.5h1.6v2h5.3v1.2h-6.8v-3.2h0ZM134.1,5h1.6v2.8h1.3v1.3h-1.3v3.1h-1.6v-7.2h0Z"/>
  <path class="st0" d="M138.3,9.1c.3-.3.5-.7.6-1.1.1-.4.2-.8.2-1.2v-1.2h1.5v1.2c0,.6.1,1.2.4,1.7s.7.9,1.3,1.2l-.9,1.2c-.7-.3-1.2-.9-1.6-1.6-.2.4-.4.8-.7,1.1s-.6.6-1.1.8l-.9-1.2c.4-.2.8-.5,1.1-.8ZM139.1,11.5h1.6v1.9h5.5v1.2h-7v-3.2h0ZM141.3,7.2h1.1v-2h1.5v6.9h-1.5v-3.6h-1.1v-1.2ZM145.9,12.3h-1.5v-7.4h1.5v7.4Z"/>
  <path class="st0" d="M147.4,5.8h4.6v1.2h-3.1v1.5h2.7v1.2h-2.7v1.7c.7,0,1.3,0,1.8,0,.5,0,1.1,0,1.7-.2v1.2c-.5.1-1.2.2-1.9.2-.7,0-1.5,0-2.4,0h-.8v-6.9h0ZM155.3,14.8h-1.5v-5.2h-1.6v-1.2h1.6v-3.4h1.5v9.9Z"/>
  <path class="st0" d="M64,21c-.2,0-.7.2-1.1.2s-1-.2-1.4-.5c-.3-.4-.5-.9-.5-1.5,0-1.3.8-2.1,2-2.1s.8.1.9.2v.6c-.3,0-.6-.2-.9-.2-.7,0-1.3.5-1.3,1.5s.5,1.5,1.2,1.5.4,0,.5,0v-1h-.6v-.6h1.2v2.1h0Z"/>
  <path class="st0" d="M64.7,18.3l.5,1.6c0,.2.1.4.1.6h0c0-.2,0-.4.1-.6l.4-1.6h.7l-.6,2c-.3,1.1-.6,1.6-.9,1.9-.2.3-.5.4-.7.4v-.6s0-.1.2-.2c.1,0,.3-.3.4-.5,0,0,0,0,0-.1s0,0,0-.1l-.9-2.7h.7,0Z"/>
  <path class="st0" d="M67.1,20c0,.5.4.8.8.8s.5,0,.7-.1v.5c-.1.1-.4.2-.8.2-.8,0-1.3-.6-1.3-1.5s.4-1.6,1.2-1.6,1.1.8,1.1,1.4,0,.2,0,.3h-1.7ZM68.2,19.4c0-.3,0-.7-.5-.7s-.6.4-.6.7h1.1Z"/>
  <path class="st0" d="M71.4,19.7c0,1.1-.7,1.6-1.3,1.6s-1.3-.6-1.3-1.5.5-1.6,1.3-1.6,1.3.6,1.3,1.5ZM69.5,19.8c0,.6.2,1,.6,1s.6-.4.6-1-.2-1-.6-1-.6.5-.6,1h0Z"/>
  <path class="st0" d="M71.7,19.2c0-.3,0-.6,0-.9h.6v.4h0c.1-.2.4-.5.8-.5s.9.3.9,1.3v1.8h-.6v-1.7c0-.4-.1-.7-.5-.7s-.4.2-.5.4c0,0,0,.2,0,.2v1.7h-.6v-2.1h0Z"/>
  <path class="st0" d="M76.7,18.3c0,.2,0,.4,0,.8v1.7c0,.6-.1,1.1-.4,1.3-.3.3-.6.4-1,.4s-.7,0-.9-.2v-.6c.3.1.6.2.9.2s.7-.3.7-.9v-.2h0c-.1.3-.4.4-.7.4-.6,0-1.1-.6-1.1-1.4s.5-1.6,1.1-1.6.6.2.7.5h0v-.4h.6ZM76,19.5c0,0,0-.1,0-.2,0-.3-.2-.5-.5-.5s-.6.4-.6,1,.2.9.6.9.4-.2.5-.5c0,0,0-.2,0-.3v-.5h0Z"/>
  <path class="st0" d="M79.4,18.3c0,.2,0,.4,0,.8v1.7c0,.6-.1,1.1-.4,1.3-.3.3-.6.4-1,.4s-.7,0-.9-.2v-.6c.3.1.6.2.9.2s.7-.3.7-.9v-.2h0c-.1.3-.4.4-.7.4-.6,0-1.1-.6-1.1-1.4s.5-1.6,1.1-1.6.6.2.7.5h0v-.4h.6ZM78.7,19.5c0,0,0-.1,0-.2,0-.3-.2-.5-.5-.5s-.6.4-.6,1,.2.9.6.9.4-.2.5-.5c0,0,0-.2,0-.3v-.5h0Z"/>
  <path class="st0" d="M80.4,17.5c0,.2-.1.4-.4.4s-.4-.2-.4-.4.1-.4.4-.4.4.2.4.4ZM79.8,21.2v-2.9h.6v2.9h-.6Z"/>
  <path class="st0" d="M81.6,21.2v-4.1h.7l.9,1.8c.2.5.4.9.6,1.4h0c0-.5,0-1.1,0-1.7v-1.4h.6v4.1h-.7l-.9-1.8c-.2-.4-.5-.9-.6-1.4h0c0,.5,0,1.1,0,1.7v1.5h-.6,0Z"/>
  <path class="st0" d="M87.2,19.7c0,1.1-.7,1.6-1.3,1.6s-1.3-.6-1.3-1.5.5-1.6,1.3-1.6,1.3.6,1.3,1.5ZM85.3,19.8c0,.6.2,1,.6,1s.6-.4.6-1-.2-1-.6-1-.6.5-.6,1h0Z"/>
  <path class="st0" d="M87.5,19.2c0-.4,0-.7,0-.9h.6v.6h0c.1-.4.4-.6.7-.6s.1,0,.1,0v.7c0,0-.1,0-.2,0-.3,0-.5.2-.6.6,0,0,0,.1,0,.2v1.5h-.6v-2h0Z"/>
  <path class="st0" d="M89.9,17.4v.8h.6v.6h-.6v1.3c0,.4,0,.5.3.5s.2,0,.2,0v.6c0,0-.2,0-.5,0s-.4,0-.6-.2c-.1-.2-.2-.4-.2-.8v-1.4h-.4v-.6h.4v-.7l.6-.2Z"/>
  <path class="st0" d="M90.7,16.9h.6v1.8h0c0-.1.2-.3.3-.3.1,0,.3-.1.4-.1.4,0,.9.3.9,1.3v1.7h-.6v-1.7c0-.4-.1-.8-.5-.8s-.4.2-.5.4c0,0,0,.1,0,.2v1.8h-.6v-4.3h0Z"/>
  <path class="st0" d="M93.9,20c0,.5.4.8.8.8s.5,0,.7-.1v.5c-.1.1-.4.2-.8.2-.8,0-1.3-.6-1.3-1.5s.4-1.6,1.2-1.6,1.1.8,1.1,1.4,0,.2,0,.3h-1.7ZM95,19.4c0-.3,0-.7-.5-.7s-.6.4-.6.7h1.1Z"/>
  <path class="st0" d="M95.9,19.2c0-.4,0-.7,0-.9h.6v.6h0c.1-.4.4-.6.7-.6s0,0,.1,0v.7c0,0-.1,0-.2,0-.3,0-.5.2-.6.6,0,0,0,.1,0,.2v1.5h-.6v-2h0Z"/>
  <path class="st0" d="M97.4,19.2c0-.3,0-.6,0-.9h.6v.4h0c.1-.2.4-.5.8-.5s.9.3.9,1.3v1.8h-.6v-1.7c0-.4-.1-.7-.5-.7s-.4.2-.5.4c0,0,0,.2,0,.2v1.7h-.6v-2.1h0Z"/>
  <path class="st0" d="M101.6,17.1v4.1h-.6v-4.1h.6Z"/>
  <path class="st0" d="M102.1,19.2c0-.3,0-.6,0-.9h.6v.4h0c.1-.2.4-.5.8-.5s.9.3.9,1.3v1.8h-.6v-1.7c0-.4-.1-.7-.5-.7s-.4.2-.5.4c0,0,0,.2,0,.2v1.7h-.6v-2.1h0Z"/>
  <path class="st0" d="M105.5,17.4v.8h.6v.6h-.6v1.3c0,.4,0,.5.3.5s.2,0,.2,0v.6c0,0-.2,0-.4,0s-.4,0-.6-.2c-.1-.2-.2-.4-.2-.8v-1.4h-.4v-.6h.4v-.7l.6-.2h0Z"/>
  <path class="st0" d="M106.7,20c0,.5.4.8.8.8s.5,0,.7-.1v.5c-.1.1-.4.2-.8.2-.8,0-1.3-.6-1.3-1.5s.4-1.6,1.2-1.6,1.1.8,1.1,1.4,0,.2,0,.3h-1.7ZM107.8,19.4c0-.3,0-.7-.5-.7s-.6.4-.6.7h1.1Z"/>
  <path class="st0" d="M108.7,16.9h.6v4.3h-.6v-4.3Z"/>
  <path class="st0" d="M109.7,16.9h.6v4.3h-.6v-4.3Z"/>
  <path class="st0" d="M111.2,20c0,.5.4.8.8.8s.5,0,.7-.1v.5c-.1.1-.4.2-.8.2-.8,0-1.3-.6-1.3-1.5s.4-1.6,1.2-1.6,1.1.8,1.1,1.4,0,.2,0,.3h-1.7ZM112.3,19.4c0-.3,0-.7-.5-.7s-.6.4-.6.7h1.1Z"/>
  <path class="st0" d="M115.1,21.1c-.1,0-.4.2-.7.2-.8,0-1.3-.6-1.3-1.5s.5-1.6,1.4-1.6.5,0,.6.1v.6c-.2,0-.4-.1-.6-.1-.5,0-.8.4-.8,1s.3.9.8.9.4,0,.5-.1v.6c0,0,0,0,0,0Z"/>
  <path class="st0" d="M116.1,17.4v.8h.6v.6h-.6v1.3c0,.4,0,.5.3.5s.2,0,.2,0v.6c0,0-.2,0-.5,0s-.4,0-.6-.2c-.1-.2-.2-.4-.2-.8v-1.4h-.4v-.6h.4v-.7l.6-.2Z"/>
  <path class="st0" d="M119.1,20.3c0,.4,0,.6,0,.9h-.6v-.4h0c-.1.2-.4.5-.8.5s-.9-.3-.9-1.3v-1.7h.6v1.6c0,.5.1.8.5.8s.4-.2.5-.4c0,0,0-.1,0-.2v-1.8h.6v2.1h0Z"/>
  <path class="st0" d="M121,21.2v-.3h0c-.2.2-.4.4-.8.4-.5,0-.8-.4-.8-.9,0-.7.6-1.1,1.5-1.1h0c0-.2,0-.6-.5-.6s-.5,0-.7.2v-.5c0-.1.4-.3.8-.3.8,0,1,.6,1,1.2v1.1c0,.3,0,.5,0,.7h-.6,0ZM120.9,19.8c-.4,0-.9.1-.9.6s.2.4.4.4.4-.2.5-.4c0,0,0-.1,0-.2v-.4h0Z"/>
  <path class="st0" d="M121.9,16.9h.6v4.3h-.6v-4.3Z"/>
  <path class="st0" d="M123.8,17.2c.2,0,.6,0,1,0s.8.1,1,.3c.2.2.3.5.3.9s-.1.7-.3.9c-.3.3-.7.4-1.1.4s-.2,0-.3,0v1.5h-.6v-4h0ZM124.5,19.1c0,0,.2,0,.3,0,.5,0,.8-.3.8-.8s-.3-.7-.7-.7-.3,0-.4,0v1.4h0Z"/>
  <path class="st0" d="M126.4,19.2c0-.4,0-.7,0-.9h.6v.6h0c.1-.4.4-.6.7-.6s0,0,.1,0v.7c0,0-.1,0-.2,0-.3,0-.5.2-.6.6,0,0,0,.1,0,.2v1.5h-.6v-2h0Z"/>
  <path class="st0" d="M130.3,19.7c0,1.1-.7,1.6-1.3,1.6s-1.3-.6-1.3-1.5.5-1.6,1.3-1.6,1.3.6,1.3,1.5ZM128.4,19.8c0,.6.2,1,.6,1s.6-.4.6-1-.2-1-.6-1-.6.5-.6,1Z"/>
  <path class="st0" d="M130.6,19.3c0-.4,0-.7,0-1h.6v.5h0c.2-.3.5-.5.9-.5.6,0,1.1.6,1.1,1.5s-.6,1.6-1.2,1.6-.6-.2-.7-.4h0v1.5h-.6v-3.2ZM131.2,20c0,0,0,.1,0,.2,0,.3.3.5.6.5.4,0,.6-.4.6-1s-.2-.9-.6-.9-.5.2-.6.6c0,0,0,.1,0,.2v.5Z"/>
  <path class="st0" d="M133.8,20c0,.5.4.8.8.8s.5,0,.7-.1v.5c-.1.1-.4.2-.8.2-.8,0-1.3-.6-1.3-1.5s.4-1.6,1.2-1.6,1.1.8,1.1,1.4,0,.2,0,.3h-1.7ZM134.9,19.4c0-.3,0-.7-.5-.7s-.6.4-.6.7h1.1Z"/>
  <path class="st0" d="M135.7,19.2c0-.4,0-.7,0-.9h.6v.6h0c.1-.4.4-.6.7-.6s0,0,.1,0v.7c0,0-.1,0-.2,0-.3,0-.5.2-.6.6,0,0,0,.1,0,.2v1.5h-.6v-2h0Z"/>
  <path class="st0" d="M138.2,17.4v.8h.6v.6h-.6v1.3c0,.4,0,.5.3.5s.2,0,.2,0v.6c0,0-.2,0-.4,0s-.4,0-.6-.2c-.1-.2-.2-.4-.2-.8v-1.4h-.4v-.6h.4v-.7l.6-.2h0Z"/>
  <path class="st0" d="M139.4,18.3l.5,1.6c0,.2.1.4.1.6h0c0-.2,0-.4.1-.6l.4-1.6h.7l-.6,2c-.3,1.1-.6,1.6-.9,1.9-.2.3-.5.4-.7.4v-.6s0-.1.2-.2c.1,0,.3-.3.4-.5,0,0,0,0,0-.1s0,0,0-.1l-.9-2.7h.7,0Z"/>
  <path class="st0" d="M144.7,21.1c-.2,0-.5.2-.9.2-1.1,0-1.8-.8-1.8-2.1s.8-2.2,1.9-2.2.7.1.8.2v.6c-.3,0-.5-.2-.8-.2-.7,0-1.2.5-1.2,1.5s.4,1.5,1.2,1.5.5,0,.7-.1v.6c.1,0,.1,0,.1,0Z"/>
  <path class="st0" d="M145.3,20c0,.5.4.8.8.8s.5,0,.7-.1v.5c-.1.1-.4.2-.8.2-.8,0-1.3-.6-1.3-1.5s.4-1.6,1.2-1.6,1.1.8,1.1,1.4,0,.2,0,.3h-1.7ZM146.4,19.4c0-.3,0-.7-.5-.7s-.6.4-.6.7h1.1Z"/>
  <path class="st0" d="M147.3,19.2c0-.3,0-.6,0-.9h.6v.4h0c.1-.2.4-.5.8-.5s.9.3.9,1.3v1.8h-.6v-1.7c0-.4-.1-.7-.5-.7s-.4.2-.5.4c0,0,0,.2,0,.2v1.7h-.6v-2.1h0Z"/>
  <path class="st0" d="M150.7,17.4v.8h.6v.6h-.6v1.3c0,.4,0,.5.3.5s.2,0,.2,0v.6c0,0-.2,0-.5,0s-.4,0-.6-.2c-.1-.2-.2-.4-.2-.8v-1.4h-.4v-.6h.4v-.7l.6-.2Z"/>
  <path class="st0" d="M151.9,20c0,.5.4.8.8.8s.5,0,.7-.1v.5c-.1.1-.4.2-.8.2-.8,0-1.3-.6-1.3-1.5s.4-1.6,1.2-1.6,1.1.8,1.1,1.4,0,.2,0,.3h-1.7ZM153,19.4c0-.3,0-.7-.5-.7s-.6.4-.6.7h1.1Z"/>
  <path class="st0" d="M153.9,19.2c0-.4,0-.7,0-.9h.6v.6h0c.1-.4.4-.6.7-.6s0,0,.1,0v.7c0,0-.1,0-.2,0-.3,0-.5.2-.6.6,0,0,0,.1,0,.2v1.5h-.6v-2h0Z"/>
</svg>