<?xml version="1.0" encoding="UTF-8"?>
<svg id="_레이어_2" xmlns="http://www.w3.org/2000/svg" version="1.1" viewBox="0 0 1033.2 698.5">
  <!-- Generator: Adobe Illustrator 30.0.0, SVG Export Plug-In . SVG Version: 2.1.1 Build 123)  -->
  <defs>
    <style>
      .st0 {
        fill: none;
      }

      .st1 {
        fill: #3a4149;
      }

      .st2 {
        fill: #ff9bac;
      }
    </style>
  </defs>
  <rect class="st0" y="-216.6" width="1292.8" height="915.1"/>
  <g>
    <path class="st2" d="M804.7,455.2c-18.2,2.6-37.2,3.9-56.6,3.8-62.6,0-120.1-13.5-157.8-36.9l60.9-98.6c15.6,9.7,51.7,19.5,97,19.5,45.5,0,86.9-9.9,113.4-27.2,26.9-17.6,36.7-41.2,31.8-76.5-2.1-15.1-8.5-61-42.5-81.1-22.8-13.5-58.4-16.6-102.9-9-42.7,7.3-82.6,22.5-104.1,30.7-5.7,2.2-10.2,3.9-14.1,5.2l-37.4-109.7c2-.7,6.1-2.2,10.4-3.9,54.8-20.9,200.5-76.2,307-13.1,26.6,15.7,48.4,37.6,64.8,64.9,16.7,27.7,27.9,61.3,33.3,99.9,11.2,80-18.3,147.4-83.2,189.7-32.6,21.3-74.1,35.7-120.2,42.2h0Z"/>
    <path class="st2" d="M292.6,362.3L22.8,574.7l77.5,94.7,270.5-223.1-78.2-84Z"/>
    <path class="st2" d="M551.1,606.2c142.7-20,242.2-152.1,222.2-295.1-20-143-152-242.7-294.7-222.7-142.7,20-242.2,152.1-222.2,295.1,20,143,152,242.7,294.7,222.7Z"/>
    <path class="st1" d="M631.5,386.8c8.4,60.3-33.5,116-93.7,124.4-60.2,8.4-115.8-33.6-124.2-93.9l217.9-30.5Z"/>
    <path class="st1" d="M475,285.8l-38.2,5.3,9.2,65.8,38.2-5.3-9.2-65.8Z"/>
    <path class="st1" d="M603.4,306.8l-17.7-34.4-61.7,31.8,17.7,34.4,61.7-31.8Z"/>
  </g>
</svg>