<?xml version="1.0" encoding="UTF-8"?>
<svg id="_레이어_2" xmlns="http://www.w3.org/2000/svg" version="1.1" viewBox="0 0 1033.2 765.8">
  <!-- Generator: Adobe Illustrator 30.0.0, SVG Export Plug-In . SVG Version: 2.1.1 Build 123)  -->
  <defs>
    <style>
      .st0 {
        fill: #6bbbff;
      }

      .st1 {
        fill: #3a4149;
      }

      .st2 {
        fill: #ff9bac;
      }

      .st3 {
        fill: #fff;
      }

      .st4 {
        fill: #87de20;
      }
    </style>
  </defs>
  <rect class="st3" width="1033.2" height="765.8"/>
  <g id="_레이어_1-2">
    <g>
      <g>
        <polygon class="st4" points="662.7 443.7 855.1 170 951.1 240.5 773.2 481.7 662.7 443.7"/>
        <circle class="st4" cx="527.5" cy="500.7" r="254.4"/>
        <path class="st1" d="M702.8,554.6c0,59.2-44.8,107.3-100.1,107.3s-100.1-48-100.1-107.3h200.2Z"/>
        <rect class="st1" x="524.4" y="462.6" width="60.9" height="38.2"/>
        <rect class="st1" x="634.6" y="462.6" width="56.2" height="38.2"/>
        <polygon class="st4" points="394.3 486.5 168.2 239.8 82.1 322.1 318.7 568.7 394.3 486.5"/>
      </g>
      <g>
        <path class="st2" d="M643.4,126.9c-9.5,0-18.7,1.4-27.4,4.1,2.7-8.7,4.1-17.8,4.1-27.4,0-51.4-41.7-93.1-93.1-93.1s-93.1,41.7-93.1,93.1,1.4,18.7,4.1,27.4c-8.7-2.7-17.8-4.1-27.4-4.1-51.4,0-93.1,41.7-93.1,93.1s41.7,93.1,93.1,93.1,18.7-1.4,27.4-4.1c-2.7,8.7-4.1,17.8-4.1,27.4,0,51.4,41.7,93.1,93.1,93.1s93.1-41.7,93.1-93.1-1.4-18.7-4.1-27.4c8.7,2.7,17.8,4.1,27.4,4.1,51.4,0,93.1-41.7,93.1-93.1s-41.7-93.1-93.1-93.1h0Z"/>
        <circle class="st0" cx="527.1" cy="219.9" r="67.2"/>
      </g>
    </g>
  </g>
</svg>