<?xml version="1.0" encoding="UTF-8"?>
<svg id="_레이어_2" data-name="레이어 2" xmlns="http://www.w3.org/2000/svg" viewBox="0 0 711.69 698.54">
  <defs>
    <style>
      .cls-1 {
        fill: #3a4149;
      }

      .cls-2 {
        fill: #6bbbff;
      }
    </style>
  </defs>
  <g id="_레이어_1-2" data-name="레이어 1">
    <g>
      <path class="cls-2" d="M639.84,698.54l-92.16-60.69c42.97-65.25,59.84-120.14,51.58-167.8-9.12-52.59-45.73-102.5-97.93-133.51l56.35-94.87c37.78,22.44,71.34,52.67,97.04,87.42,27.41,37.05,45.83,79.28,53.25,122.1,13.29,76.63-9,157.53-68.14,247.34Z"/>
      <path class="cls-2" d="M23.91,625.73c-32.45-102.52-31.87-186.43,1.78-256.55,18.81-39.18,48.02-74.8,84.49-102.99,34.2-26.44,74.72-46.39,117.18-57.69l28.39,106.63c-58.67,15.62-107.49,53.68-130.58,101.8-20.93,43.61-19.64,101.01,3.94,175.5l-105.2,33.3Z"/>
      <circle class="cls-2" cx="404.52" cy="248.81" r="248.81"/>
      <path class="cls-1" d="M432.39,397.33c0,30.04-24.36,54.4-54.4,54.4s-54.4-24.36-54.4-54.4h108.8Z"/>
      <rect class="cls-1" x="318.36" y="261.82" width="36.78" height="76.69"/>
      <rect class="cls-1" x="403.29" y="261.82" width="36.78" height="76.69"/>
    </g>
  </g>
</svg>