<?xml version="1.0" encoding="UTF-8"?>
<svg id="_레이어_2" xmlns="http://www.w3.org/2000/svg" version="1.1" viewBox="0 0 1033.2 698.5">
  <!-- Generator: Adobe Illustrator 30.0.0, SVG Export Plug-In . SVG Version: 2.1.1 Build 123)  -->
  <defs>
    <style>
      .st0 {
        fill: #6bbbff;
      }

      .st1 {
        fill: #3a4149;
      }

      .st2 {
        fill: #fff;
      }
    </style>
  </defs>
  <rect class="st2" width="1033.2" height="698.5"/>
  <g id="_레이어_1-2">
    <g>
      <path class="st0" d="M232.6,698.5c-59.2-89.8-81.5-170.7-68.2-247.3,7.4-42.8,25.8-85.1,53.3-122.1,25.7-34.7,59.3-65,97-87.4l56.3,94.9c-52.2,31-88.8,80.9-97.9,133.5-8.3,47.7,8.6,102.5,51.6,167.8l-92.2,60.7h0Z"/>
      <path class="st0" d="M743.3,592.4c23.6-74.5,24.9-131.9,3.9-175.5-23.1-48.1-71.9-86.2-130.6-101.8l28.4-106.6c42.5,11.3,83,31.3,117.2,57.7,36.5,28.2,65.7,63.8,84.5,103,33.7,70.1,34.2,154,1.8,256.5l-105.2-33.3h0Z"/>
      <circle class="st0" cx="467.9" cy="248.8" r="248.8"/>
      <path class="st1" d="M548.8,397.3c0,30-24.4,54.4-54.4,54.4s-54.4-24.4-54.4-54.4h108.8,0Z"/>
      <rect class="st1" x="517.3" y="261.8" width="36.8" height="76.7"/>
      <rect class="st1" x="432.3" y="261.8" width="36.8" height="76.7"/>
    </g>
  </g>
</svg>