<?xml version="1.0" encoding="UTF-8"?>
<svg id="_레이어_1" data-name="레이어_1" xmlns="http://www.w3.org/2000/svg" version="1.1" viewBox="0 0 43 43">
  <!-- Generator: Adobe Illustrator 30.0.0, SVG Export Plug-In . SVG Version: 2.1.1 Build 123)  -->
  <defs>
    <style>
      .st0 {
        fill: #fff;
      }

      .st1 {
        fill: #6bbbff;
        fill-rule: evenodd;
      }
    </style>
  </defs>
  <rect class="st0" width="43" height="43"/>
  <path class="st1" d="M41.4,39.4l-12.9-13.2c2.6-3.1,3.8-7.2,3.5-11.2-.3-4.1-2.1-7.8-5.1-10.6C23.9,1.6,20,.1,15.9.2c-4.1,0-7.9,1.7-10.9,4.5C2.2,7.6.5,11.4.3,15.5c-.2,4.1,1.2,8,3.9,11.1,2.7,3.1,6.4,5,10.5,5.4,4,.4,8.1-.8,11.3-3.3l12.9,13.2c.3.3.6.4,1,.4.4,0,.7-.1,1-.4l.5-.5c.3-.3.4-.6.4-1,0-.4-.1-.7-.4-1h0ZM14.8,28.4c-3.1-.4-6-1.9-8-4.3-2-2.4-3.1-5.5-2.9-8.6.1-3.1,1.5-6.1,3.7-8.3,2.2-2.2,5.2-3.4,8.4-3.5,3.1,0,6.2,1,8.5,3.1,2.3,2.1,3.8,5,4.1,8.1.3,3.7-1,7.4-3.7,10-2.7,2.6-6.3,3.9-10,3.5h0Z"/>
</svg>