<svg width="361" height="156" viewBox="0 0 361 156" fill="none" xmlns="http://www.w3.org/2000/svg">
<path d="M142.592 79.7358L164.766 68.6143L159.982 59.0163L147.946 65.0531L138.51 42.9814C135.89 45.4381 132.682 47.2472 129.094 48.1423L142.592 79.7358Z" fill="#FF9BAC"/>
<path d="M112.957 81.4879L117.741 71.8899L105.705 65.853L116.318 47.3997C112.881 46.0856 109.882 43.9527 107.547 41.1914L90.7646 70.3664L112.938 81.4879H112.957Z" fill="#6BBBFF"/>
<path d="M116.318 47.3996C118.672 48.2947 121.216 48.8088 123.892 48.8088C125.696 48.8088 127.423 48.5613 129.094 48.1423C132.682 47.2472 135.909 45.4381 138.51 42.9815C142.668 39.0775 145.269 33.5358 145.269 27.3656C145.269 15.5204 135.701 5.92236 123.892 5.92236C112.084 5.92236 102.516 15.5204 102.516 27.3656C102.516 32.6407 104.414 37.4397 107.566 41.1723C109.882 43.9336 112.9 46.0856 116.337 47.3806L116.318 47.3996Z" fill="#87DE20"/>
<path d="M58.7756 60.0449C57.2949 60.0449 55.871 59.9116 54.5042 59.6641V77.1843H63.0471V59.6641C61.6803 59.8926 60.2564 60.0449 58.7756 60.0449Z" fill="#6BBBFF"/>
<path d="M63.0663 59.6639C71.0397 58.2928 76.9629 53.2271 76.9629 47.1712C76.9629 43.8767 75.1973 40.8678 72.3117 38.6016C68.9894 41.2296 64.1674 42.8864 58.7948 42.8864C53.4222 42.8864 48.6002 41.2296 45.2779 38.6016C42.3923 40.8868 40.6267 43.8767 40.6267 47.1712C40.6267 53.2271 46.5498 58.2928 54.5233 59.6639C55.8902 59.8924 57.333 60.0448 58.7948 60.0448C60.2566 60.0448 61.6994 59.9115 63.0663 59.6639Z" fill="#87DE20"/>
<path d="M72.2926 38.6015C75.1783 36.3163 76.9438 33.3264 76.9438 30.0318C76.9438 26.7373 75.1783 23.7284 72.2926 21.4622C68.9704 24.0902 64.1483 25.747 58.7757 25.747C53.4032 25.747 48.5811 24.0902 45.2588 21.4622C42.3732 23.7474 40.6077 26.7373 40.6077 30.0318C40.6077 33.3264 42.3732 36.3353 45.2588 38.6015C48.5811 41.2295 53.4032 42.8864 58.7757 42.8864C64.1483 42.8864 68.9704 41.2295 72.2926 38.6015Z" fill="#FF9BAC"/>
<path d="M72.2926 21.4432C75.1783 19.158 76.9438 16.1681 76.9438 12.8736C76.9438 5.77025 68.8185 0 58.7757 0C48.733 0 40.6077 5.75121 40.6077 12.8736C40.6077 16.1681 42.3732 19.177 45.2588 21.4432C48.5811 24.0713 53.4032 25.7281 58.7757 25.7281C64.1483 25.7281 68.9704 24.0713 72.2926 21.4432Z" fill="#87DE20"/>
<path d="M13.8967 59.6641V77.1843H22.4397V59.6641C21.0728 59.8926 19.649 60.0449 18.1682 60.0449C16.6874 60.0449 15.2636 59.9116 13.8967 59.6641Z" fill="#6BBBFF"/>
<path d="M0 47.1712C0 53.2271 5.92313 58.2928 13.8966 59.6639C15.2635 59.8924 16.7063 60.0448 18.1681 60.0448C19.6299 60.0448 21.0727 59.9115 22.4396 59.6639C30.413 58.2928 36.3361 53.2271 36.3361 47.1712C36.3361 43.8767 34.5706 40.8678 31.685 38.6016C28.3627 41.2296 23.5407 42.8864 18.1681 42.8864C12.7955 42.8864 7.97345 41.2296 4.65118 38.6016C1.76555 40.8868 0 43.8767 0 47.1712Z" fill="#FF9BAC"/>
<path d="M31.685 38.6012C34.5706 36.3159 36.3361 33.3261 36.3361 30.0315C36.3361 22.9282 28.2108 17.158 18.1681 17.158C8.12532 17.158 0 22.9092 0 30.0125C0 33.307 1.76555 36.3159 4.65118 38.5822C7.97345 41.2102 12.7955 42.867 18.1681 42.867C23.5407 42.867 28.3627 41.2102 31.685 38.5822V38.6012Z" fill="#87DE20"/>
<path d="M187.471 11.1975L179.782 14.9491L193.356 42.8863H202.868L187.471 11.1975Z" fill="#FF9BAC"/>
<path d="M198.995 5.54199L191.306 9.31265L207.633 42.8867H217.144L198.995 5.54199Z" fill="#6BBBFF"/>
<path d="M260.561 42.8865H175.055C175.055 64.1964 192.236 81.4881 217.808 81.4881C243.38 81.4881 260.561 64.2154 260.561 42.8865Z" fill="#87DE20"/>
<path d="M359.28 8.56958H331.487V77.1841H359.28V8.56958Z" fill="#87DE20"/>
<path d="M331.487 77.1841V8.56958L316.527 36.4496V77.1841H331.487Z" fill="#6BBBFF"/>
<path d="M316.527 77.1845V36.45V23.5955H288.734V77.1845H316.527Z" fill="#FF9BAC"/>
<path d="M288.734 23.5955L273.774 47.1716V77.1845H288.734V23.5955Z" fill="#6BBBFF"/>
<path d="M53.1375 98.7036H1.08228V107.654H53.1375V98.7036Z" fill="#575B5D"/>
<path d="M76.9817 96.7036H66.3125V154.768H76.9817V125.936H84.5945V116.985H76.9817V96.7036Z" fill="#575B5D"/>
<path d="M11.7515 113.063H1.08228V151.893H53.783V142.942H11.7515V113.063Z" fill="#575B5D"/>
<path d="M124.462 105.73C135.321 105.73 144.149 113.919 144.149 123.974H154.818C154.818 108.968 141.206 96.7798 124.462 96.7798C107.718 96.7798 94.106 108.987 94.106 123.974H104.775C104.775 113.919 113.603 105.73 124.462 105.73Z" fill="#575B5D"/>
<path d="M171.296 96.7036H160.627V126.126H171.296V117.023H178.396V108.073H171.296V96.7036Z" fill="#575B5D"/>
<path d="M106.711 129.364H96.0232V154.769H172.739V145.818H106.711V129.364Z" fill="#575B5D"/>
<path d="M326.076 117.081H336.746V97.7898H281.805V106.74H326.076V117.081Z" fill="#575B5D"/>
<path d="M359.318 96.7036H348.648V117.709H359.318V96.7036Z" fill="#575B5D"/>
<path d="M293.385 146.732V142.428H359.318L359.28 122.47H282.564V130.507H348.648V134.811H282.697V154.768H360.21V146.732H293.385Z" fill="#575B5D"/>
<path d="M258.605 108.073H255.017V96.7988H244.994V124.298H255.017V117.023H258.605V124.622H268.591V96.7036H258.605V108.073Z" fill="#575B5D"/>
<path d="M193.774 138.315H257.922V155.207H268.591V129.364H193.774V138.315Z" fill="#575B5D"/>
<path d="M199.09 123.975C199.128 115.024 205.335 107.902 214.391 107.902C223.447 107.902 229.654 115.024 229.692 123.975H239.925C239.925 117.824 237.381 112.244 233.318 108.074H240.153V99.5229H219.764V95.0857H209.037V99.5229H188.648V108.074H195.483C191.42 112.244 188.876 117.824 188.876 123.975H199.109H199.09Z" fill="#575B5D"/>
</svg>
