<svg width="1280" height="302" viewBox="0 0 1280 302" fill="none" xmlns="http://www.w3.org/2000/svg">
<path d="M333.364 271.48C399.839 271.48 453.727 217.423 453.727 150.74C453.727 84.0573 399.839 30.0002 333.364 30.0002C266.889 30.0002 213 84.0573 213 150.74C213 217.423 266.889 271.48 333.364 271.48Z" fill="#6BBBFF"/>
<path d="M303.783 128.902H261.729V136.138H303.783V128.902Z" fill="white"/>
<path d="M323.061 127.294H314.435V174.201H323.061V150.916H329.225V143.68H323.061V127.294Z" fill="white"/>
<path d="M270.355 140.493H261.729V171.877H304.322V164.641H270.355V140.493Z" fill="white"/>
<path d="M361.429 134.574C370.202 134.574 377.327 141.181 377.327 149.323H385.954C385.954 137.205 374.952 127.353 361.429 127.353C347.907 127.353 336.905 137.205 336.905 149.323H345.531C345.531 141.195 352.672 134.574 361.429 134.574Z" fill="white"/>
<path d="M399.272 143.709H405.013V136.474H399.272V127.294H390.646V151.062H399.272V143.709Z" fill="white"/>
<path d="M347.09 153.678H338.464V174.201H400.438V166.965H347.09V153.678Z" fill="white"/>
<path d="M543.374 271.48C609.849 271.48 663.738 217.423 663.738 150.74C663.738 84.0572 609.849 30.0001 543.374 30.0001C476.899 30.0001 423.01 84.0572 423.01 150.74C423.01 217.423 476.899 271.48 543.374 271.48Z" fill="#87DE20"/>
<path d="M495.972 134.573C504.744 134.573 511.87 141.18 511.87 149.322H520.496C520.496 137.204 509.495 127.352 495.972 127.352C482.449 127.352 471.448 137.204 471.448 149.322H480.074C480.074 141.195 487.214 134.573 495.972 134.573Z" fill="white"/>
<path d="M533.815 143.709H539.556V136.473H533.815V127.294H525.188V151.062H533.815V143.709Z" fill="white"/>
<path d="M481.633 153.678H473.006V174.201H534.981V166.965H481.633V153.678Z" fill="white"/>
<path d="M601.472 143.709H604.358V149.848H612.445V127.293H604.358V136.473H601.472V127.352H593.37V149.585H601.472V143.709Z" fill="white"/>
<path d="M551.986 160.913H603.818V174.551H612.445V153.678H551.986V160.913Z" fill="white"/>
<path d="M572.97 129.559V125.963H564.299V129.559H547.819V136.473H553.341C550.048 139.835 548.008 144.352 548.008 149.322H556.285C556.314 142.086 561.341 136.327 568.642 136.327C575.942 136.327 580.97 142.086 580.999 149.322H589.276C589.276 144.352 587.221 139.835 583.942 136.473H589.465V129.559H572.984H572.97Z" fill="white"/>
<path d="M753.384 271.48C819.859 271.48 873.747 217.423 873.747 150.74C873.747 84.0572 819.859 30.0001 753.384 30.0001C686.909 30.0001 633.02 84.0572 633.02 150.74C633.02 217.423 686.909 271.48 753.384 271.48Z" fill="#FF9BAC"/>
<path d="M771.788 143.709H774.673V149.848H782.76V127.294H774.673V136.473H771.788V127.352H763.686V149.585H771.788V143.709Z" fill="white"/>
<path d="M722.302 160.913H774.134V174.552H782.76V153.678H722.302V160.913Z" fill="white"/>
<path d="M743.285 129.559V125.963H734.615V129.559H718.134V136.473H723.657C720.364 139.835 718.323 144.352 718.323 149.322H726.6C726.629 142.086 731.657 136.327 738.957 136.327C746.258 136.327 751.285 142.086 751.314 149.322H759.591C759.591 144.352 757.536 139.835 754.258 136.473H759.78V129.559H743.3H743.285Z" fill="white"/>
<path d="M1039.42 143.738H1048.04V128.156H1003.66V135.391H1039.42V143.738Z" fill="#575B5D"/>
<path d="M1066.29 127.294H1057.66V144.265H1066.29V127.294Z" fill="#575B5D"/>
<path d="M1013.01 167.711V164.232H1066.29L1066.26 148.109H1004.25V154.599H1057.66V158.078H1004.38V174.201H1067V167.711H1013.01Z" fill="#575B5D"/>
<path d="M924.604 150.74H961.951" stroke="#626668" stroke-width="4.32444"/>
<path d="M943.27 132.015V169.48" stroke="#626668" stroke-width="4.32444"/>
</svg>
