<svg width="361" height="211" viewBox="0 0 361 211" fill="none" xmlns="http://www.w3.org/2000/svg">
<path d="M142.904 79.6482L165.127 68.5389L160.332 58.9515L148.27 64.9817L138.814 42.9343C136.188 45.3883 132.973 47.1954 129.377 48.0895L142.904 79.6482Z" fill="#FF9BAC"/>
<path d="M113.205 81.3983L117.999 71.8109L105.937 65.7807L116.572 47.3476C113.129 46.0351 110.123 43.9045 107.782 41.1462L90.9634 70.2891L113.186 81.3983H113.205Z" fill="#6BBBFF"/>
<path d="M116.572 47.3475C118.932 48.2416 121.481 48.7552 124.164 48.7552C125.971 48.7552 127.703 48.5079 129.377 48.0894C132.973 47.1953 136.207 45.3882 138.814 42.9342C142.981 39.0346 145.587 33.499 145.587 27.3356C145.587 15.5035 135.998 5.91602 124.164 5.91602C112.33 5.91602 102.74 15.5035 102.74 27.3356C102.74 32.6049 104.643 37.3986 107.801 41.1271C110.123 43.8854 113.148 46.0349 116.591 47.3285L116.572 47.3475Z" fill="#87DE20"/>
<path d="M58.9046 59.9786C57.4206 59.9786 55.9937 59.8454 54.6238 59.5981V77.099H63.1855V59.5981C61.8156 59.8264 60.3887 59.9786 58.9046 59.9786Z" fill="#6BBBFF"/>
<path d="M63.2046 59.5982C71.1955 58.2286 77.1317 53.1685 77.1317 47.1193C77.1317 43.8284 75.3622 40.8228 72.4703 38.5591C69.1407 41.1842 64.3081 42.8392 58.9237 42.8392C53.5394 42.8392 48.7068 41.1842 45.3772 38.5591C42.4852 40.8418 40.7158 43.8284 40.7158 47.1193C40.7158 53.1685 46.6519 58.2286 54.6429 59.5982C56.0128 59.8265 57.4587 59.9787 58.9237 59.9787C60.3887 59.9787 61.8347 59.8455 63.2046 59.5982Z" fill="#87DE20"/>
<path d="M72.4512 38.5592C75.3432 36.2764 77.1126 33.2899 77.1126 29.9989C77.1126 26.708 75.3432 23.7024 72.4512 21.4387C69.1217 24.0639 64.2891 25.7188 58.9047 25.7188C53.5203 25.7188 48.6877 24.0639 45.3582 21.4387C42.4662 23.7214 40.6968 26.708 40.6968 29.9989C40.6968 33.2899 42.4662 36.2955 45.3582 38.5592C48.6877 41.1843 53.5203 42.8393 58.9047 42.8393C64.2891 42.8393 69.1217 41.1843 72.4512 38.5592Z" fill="#FF9BAC"/>
<path d="M72.4512 21.4196C75.3432 19.1369 77.1126 16.1503 77.1126 12.8594C77.1126 5.76388 68.9695 0 58.9047 0C48.8399 0 40.6968 5.74486 40.6968 12.8594C40.6968 16.1503 42.4662 19.1559 45.3582 21.4196C48.6877 24.0447 53.5203 25.6997 58.9047 25.6997C64.2891 25.6997 69.1217 24.0447 72.4512 21.4196Z" fill="#87DE20"/>
<path d="M13.927 59.5981V77.099H22.4887V59.5981C21.1188 59.8264 19.6919 59.9786 18.2079 59.9786C16.7238 59.9786 15.2969 59.8454 13.927 59.5981Z" fill="#6BBBFF"/>
<path d="M0 47.1193C0 53.1685 5.93612 58.2286 13.9271 59.5982C15.2969 59.8265 16.7429 59.9787 18.2079 59.9787C19.6729 59.9787 21.1189 59.8455 22.4888 59.5982C30.4797 58.2286 36.4158 53.1685 36.4158 47.1193C36.4158 43.8284 34.6464 40.8228 31.7545 38.5591C28.4249 41.1842 23.5923 42.8392 18.2079 42.8392C12.8235 42.8392 7.99093 41.1842 4.66138 38.5591C1.76942 40.8418 0 43.8284 0 47.1193Z" fill="#FF9BAC"/>
<path d="M31.7545 38.559C34.6464 36.2763 36.4158 33.2897 36.4158 29.9988C36.4158 22.9033 28.2727 17.1394 18.2079 17.1394C8.14314 17.1394 0 22.8843 0 29.9797C0 33.2707 1.76942 36.2763 4.66138 38.54C7.99093 41.1651 12.8235 42.8201 18.2079 42.8201C23.5923 42.8201 28.4249 41.1651 31.7545 38.54V38.559Z" fill="#87DE20"/>
<path d="M187.882 11.1853L180.177 14.9328L193.78 42.8391H203.312L187.882 11.1853Z" fill="#FF9BAC"/>
<path d="M199.431 5.53564L191.725 9.30214L208.088 42.8392H217.62L199.431 5.53564Z" fill="#6BBBFF"/>
<path d="M261.132 42.8391H175.439C175.439 64.1255 192.658 81.3982 218.286 81.3982C243.914 81.3982 261.132 64.1446 261.132 42.8391Z" fill="#87DE20"/>
<path d="M360.068 8.5603H332.214V77.0992H360.068V8.5603Z" fill="#87DE20"/>
<path d="M332.214 77.0992V8.5603L317.221 36.4096V77.0992H332.214Z" fill="#6BBBFF"/>
<path d="M317.221 77.099V36.4094V23.5691H289.367V77.099H317.221Z" fill="#FF9BAC"/>
<path d="M289.367 23.5691L274.375 47.1192V77.099H289.367V23.5691Z" fill="#6BBBFF"/>
<path d="M53.2539 98.5947H1.08447V107.535H53.2539V98.5947Z" fill="#575B5D"/>
<path d="M77.1506 96.5974H66.458V154.598H77.1506V125.797H84.7801V116.857H77.1506V96.5974Z" fill="#575B5D"/>
<path d="M11.7771 112.938H1.08447V151.725H53.9007V142.785H11.7771V112.938Z" fill="#575B5D"/>
<path d="M124.735 105.614C135.618 105.614 144.465 113.794 144.465 123.838H155.157C155.157 108.848 141.516 96.6733 124.735 96.6733C107.954 96.6733 94.312 108.867 94.312 123.838H105.005C105.005 113.794 113.852 105.614 124.735 105.614Z" fill="#575B5D"/>
<path d="M171.672 96.5974H160.979V125.988H171.672V116.895H178.788V107.954H171.672V96.5974Z" fill="#575B5D"/>
<path d="M106.945 129.221H96.2336V154.598H173.118V145.657H106.945V129.221Z" fill="#575B5D"/>
<path d="M326.791 116.952H337.484V97.6816H282.422V106.622H326.791V116.952Z" fill="#575B5D"/>
<path d="M360.106 96.5974H349.413V117.579H360.106V96.5974Z" fill="#575B5D"/>
<path d="M294.028 146.57V142.271H360.106L360.068 122.335H283.184V130.363H349.413V134.662H283.317V154.598H361V146.57H294.028Z" fill="#575B5D"/>
<path d="M259.173 107.954H255.577V96.6925H245.531V124.161H255.577V116.895H259.173V124.485H269.18V96.5974H259.173V107.954Z" fill="#575B5D"/>
<path d="M194.199 138.162H258.488V155.035H269.18V129.221H194.199V138.162Z" fill="#575B5D"/>
<path d="M199.526 123.838C199.564 114.897 205.786 107.783 214.861 107.783C223.936 107.783 230.158 114.897 230.196 123.838H240.451C240.451 117.694 237.902 112.12 233.83 107.954H240.679V99.4128H220.245V94.9805H209.496V99.4128H189.062V107.954H195.911C191.84 112.12 189.29 117.694 189.29 123.838H199.545H199.526Z" fill="#575B5D"/>
<path d="M36.5298 206.206H49.7529V199.111H32.9338V201.907H46.2901V203.429H33.067V210.734H50.5139V207.861H36.5298V206.206Z" fill="#575B5D"/>
<path d="M49.753 185.243H46.2903V197.722H49.753V192.814H53.425V189.675H49.753V185.243Z" fill="#575B5D"/>
<path d="M42.2377 186.061H38.9271V188.743H32.8388V186.061H29.4902V197.056H42.2187V186.061H42.2377ZM32.8388 194.127V191.692H38.9271V194.127H32.8388Z" fill="#575B5D"/>
<path d="M69.426 187.735V186.328H56.9069V189.39H65.8681C65.6018 190.437 64.8027 191.445 63.4518 192.377C61.7775 193.537 59.3612 194.469 56.2219 195.192L57.3445 198.293C61.2828 197.361 64.289 196.029 66.3438 194.336C68.3986 192.643 69.426 190.437 69.426 187.735Z" fill="#575B5D"/>
<path d="M63.4516 206.149H77.1884V198.978H59.8557V201.793H73.7067V203.353H59.9889V210.734H77.9875V207.823H63.4516V206.149Z" fill="#575B5D"/>
<path d="M77.1885 185.243H73.7068V197.589H77.1885V185.243Z" fill="#575B5D"/>
<path d="M102.055 197.874H98.5737V199.605H91.1536V202.401H109.438V199.605H102.055V197.874Z" fill="#575B5D"/>
<path d="M107.135 204.399C106.203 203.695 104.89 203.334 103.235 203.334H97.3942C95.7389 203.334 94.4261 203.695 93.4748 204.399C92.5235 205.103 92.0479 206.054 92.0479 207.234C92.0479 208.413 92.5235 209.288 93.4748 209.973C94.4261 210.658 95.7389 211 97.3942 211H103.235C104.909 211 106.203 210.658 107.135 209.973C108.068 209.288 108.543 208.375 108.543 207.234C108.543 206.092 108.068 205.122 107.135 204.399ZM104.757 207.861C104.453 208.052 103.996 208.128 103.368 208.128H97.1849C96.5951 208.128 96.1384 208.033 95.834 207.861C95.5296 207.671 95.3774 207.443 95.3774 207.139C95.3774 206.834 95.5296 206.587 95.834 206.397C96.1384 206.225 96.5951 206.13 97.1849 206.13H103.368C103.977 206.13 104.453 206.225 104.757 206.397C105.062 206.587 105.214 206.815 105.214 207.139C105.214 207.462 105.062 207.69 104.757 207.861Z" fill="#575B5D"/>
<path d="M108.791 185.262H105.309V197.722H108.791V192.814H112.444V189.675H108.791V185.262Z" fill="#575B5D"/>
<path d="M98.4785 196.638C100.172 196.486 101.789 196.295 103.33 196.048L102.95 193.176C101.409 193.404 99.8674 193.594 98.3263 193.727C96.7852 193.86 95.3582 193.918 94.0074 193.918H92.1048V189.162H101.275V186.194H88.604V196.866H93.3795C95.0729 196.866 96.7852 196.79 98.4785 196.657V196.638Z" fill="#575B5D"/>
<path d="M120.739 203.277H117.257V210.601H135.751V207.367H120.739V203.277Z" fill="#575B5D"/>
<path d="M138.11 198.217H114.213V201.356H138.11V198.217Z" fill="#575B5D"/>
<path d="M135.142 192.795H120.739V185.757H117.257V195.934H135.142V192.795Z" fill="#575B5D"/>
<path d="M164.309 191.121C164.195 192.224 164.061 193.29 163.909 194.374L167.334 194.697C167.524 193.499 167.695 192.262 167.809 191.007C167.924 189.732 167.981 188.572 167.981 187.507V186.023H150.134V189.162H164.461C164.442 189.694 164.385 190.341 164.309 191.121Z" fill="#575B5D"/>
<path d="M161.055 201.698V200.766H157.573V201.698C157.573 202.991 156.793 204.133 155.252 205.141C153.711 206.149 151.523 207.062 148.726 207.861L149.811 210.886C153.331 209.935 156.07 208.717 158.068 207.233C158.182 207.157 158.258 207.062 158.373 206.986L168.494 210.772L169.655 207.728L160.446 204.399C160.846 203.562 161.036 202.668 161.036 201.698H161.055Z" fill="#575B5D"/>
<path d="M159.723 191.54H156.242V195.934H147.223V198.958H171.12V195.934H159.723V191.54Z" fill="#575B5D"/>
<path d="M193.818 185.243H190.336V210.6H193.818V197.57H197.49V194.412H193.818V185.243Z" fill="#575B5D"/>
<path d="M173.555 206.587H186.284V186.993H173.555V206.587ZM177.037 190.151H182.84V203.391H177.037V190.151Z" fill="#575B5D"/>
<path d="M219.827 185.243H216.345V210.6H219.827V197.57H223.499V194.412H219.827V185.243Z" fill="#575B5D"/>
<path d="M209.343 203.22C207.802 203.353 206.394 203.41 205.101 203.41H203.198V190.17H212.369V186.993H199.697V206.587H204.511C206.185 206.587 207.859 206.51 209.553 206.377C211.246 206.225 212.863 206.016 214.423 205.75L214.043 202.687C212.445 202.915 210.885 203.105 209.343 203.239V203.22Z" fill="#575B5D"/>
<path d="M252.837 185.243H249.355V210.6H252.837V197.57H256.509V194.412H252.837V185.243Z" fill="#575B5D"/>
<path d="M242.353 203.22C240.812 203.353 239.404 203.41 238.111 203.41H236.208V190.17H245.379V186.993H232.707V206.587H237.521C239.195 206.587 240.869 206.51 242.563 206.377C244.256 206.225 245.873 206.016 247.433 205.75L247.053 202.687C245.455 202.915 243.895 203.105 242.353 203.239V203.22Z" fill="#575B5D"/>
<path d="M278.826 185.243H275.345V210.6H278.826V197.57H282.479V194.412H278.826V185.243Z" fill="#575B5D"/>
<path d="M267.087 190.094V186.651H263.701V190.094C263.701 192.985 263.206 195.63 262.255 197.988C261.284 200.347 259.743 202.687 257.593 204.97L260.086 207.195C262.274 204.894 263.948 202.44 265.09 199.891L270.626 206.967L273.252 204.818L266.383 196.01C266.84 194.127 267.087 192.167 267.087 190.094Z" fill="#575B5D"/>
<path d="M297.967 201.603H305.939V198.578H290.527V195.725H305.406V186.822H286.931V189.942H301.924V192.681H287.065V201.603H294.485V205.655H284.287V208.832H308.165V205.655H297.967V201.603Z" fill="#575B5D"/>
<path d="M334.173 199.358V196.429H310.276V199.358H320.493V201.603H313.073V210.582H331.395V201.603H323.956V199.358H334.173ZM327.933 207.69H316.536V204.494H327.933V207.69Z" fill="#575B5D"/>
<path d="M314.862 193.461C316.137 194.241 317.849 194.641 319.999 194.641H324.451C326.601 194.641 328.332 194.241 329.607 193.461C330.901 192.681 331.529 191.521 331.529 189.999C331.529 188.477 330.882 187.393 329.607 186.613C328.313 185.852 326.601 185.453 324.451 185.453H319.999C317.849 185.453 316.137 185.833 314.862 186.613C313.587 187.374 312.94 188.515 312.94 189.999C312.94 191.483 313.587 192.681 314.862 193.461ZM317.506 188.744C318.229 188.458 319.295 188.306 320.703 188.306H323.823C325.212 188.306 326.277 188.458 327 188.744C327.723 189.029 328.085 189.466 328.085 190.037C328.085 190.608 327.723 191.064 326.981 191.35C326.258 191.654 325.193 191.806 323.823 191.806H320.703C319.314 191.806 318.248 191.654 317.506 191.369C316.764 191.083 316.403 190.627 316.403 190.037C316.403 189.447 316.764 189.029 317.506 188.744Z" fill="#575B5D"/>
</svg>
