<?xml version="1.0" encoding="UTF-8"?>
<svg id="_레이어_1" data-name="레이어_1" xmlns="http://www.w3.org/2000/svg" version="1.1" viewBox="0 0 286 257">
  <!-- Generator: Adobe Illustrator 30.0.0, SVG Export Plug-In . SVG Version: 2.1.1 Build 123)  -->
  <defs>
    <style>
      .st0 {
        fill: #6bbbff;
      }

      .st1 {
        fill: #3a4149;
      }

      .st2 {
        fill: #ff9bac;
      }

      .st3 {
        fill: #fff;
      }

      .st4 {
        fill: #87de20;
      }
    </style>
  </defs>
  <rect class="st3" width="286" height="257"/>
  <g>
    <path class="st0" d="M141.5,92.6l52.2,49.3-17.9,18.2-52.1-51.6,17.9-16Z"/>
    <path class="st0" d="M111,146.4c-30.2,0-54.6-24.4-54.6-54.6s24.4-54.6,54.6-54.6,54.6,24.4,54.6,54.6-24.4,54.6-54.6,54.6Z"/>
    <path class="st1" d="M96.5,103.3c0,12.7,10.3,23,23,23s23-10.3,23-23h-46Z"/>
    <path class="st1" d="M122.9,68.4h8.1v23.3h-8.1v-23.3Z"/>
    <path class="st1" d="M104.2,68.4h8.1v23.3h-8.1v-23.3Z"/>
    <path class="st2" d="M223.7,143.8l-4,60.6H25.7l-5.7-66.3,136.7-6.7,67,12.3Z"/>
    <path class="st0" d="M76.8,166.2l3.8-23.9c-.2,0-22.5-3.9-24.7-18.4-.6-3.7-2.2-15,20.5-23.8l-8.8-22.6c-25.9,10-38.9,28.2-35.7,49.9,3.8,25.7,30,36.5,44.8,38.8h0Z"/>
    <path class="st4" d="M64.2,219.8c-12.7,0-23-10.3-23-23s10.3-23,23-23,23,10.3,23,23-10.3,23-23,23Z"/>
    <path class="st4" d="M170.7,219.8c-12.7,0-23-10.3-23-23s10.3-23,23-23,23,10.3,23,23-10.3,23-23,23Z"/>
  </g>
</svg>