<?xml version="1.0" encoding="UTF-8"?>
<svg id="_레이어_1" data-name="레이어_1" xmlns="http://www.w3.org/2000/svg" version="1.1" viewBox="0 0 289 300">
  <!-- Generator: Adobe Illustrator 30.0.0, SVG Export Plug-In . SVG Version: 2.1.1 Build 123)  -->
  <defs>
    <style>
      .st0 {
        fill: #6bbbff;
      }

      .st1 {
        fill: #3a4149;
      }

      .st2 {
        fill: #ff9bac;
      }

      .st3 {
        fill: #fff;
      }

      .st4 {
        fill: #87de20;
      }
    </style>
  </defs>
  <rect class="st3" width="289" height="300"/>
  <g>
    <path class="st4" d="M112,258.6l-46.8-20.7,41.5-88.1,22.3,10.5-30.7,65.3,23.8,10.5-10,22.5Z"/>
    <path class="st4" d="M161.1,257.4l-40-97.7,22.8-9.3,30.4,74.3,23.8-10.5,9.9,22.6-46.9,20.6Z"/>
    <path class="st4" d="M169.3,139.5l59.8,34.8-12.8,21-52.9-32.4,5.9-23.5Z"/>
    <path class="st4" d="M124.6,195.4c29.1,0,52.6-23.6,52.6-52.6s-23.6-52.6-52.6-52.6-52.6,23.6-52.6,52.6,23.6,52.6,52.6,52.6Z"/>
    <path class="st1" d="M160.9,153.9c0,12.3-9.3,22.2-20.7,22.2s-20.7-9.9-20.7-22.2h41.4,0Z"/>
    <path class="st1" d="M136.6,134.9h-12.6v7.9h12.6v-7.9Z"/>
    <path class="st1" d="M158.4,134.9h-11.6v7.9h11.6v-7.9Z"/>
    <path class="st4" d="M79.8,139.5l-59.8,34.8,12.8,21,60.3-36.9-13.3-18.9Z"/>
    <path class="st2" d="M148.6,65.4c-2,0-3.9.3-5.7.9.5-1.8.9-3.7.9-5.7,0-10.6-8.6-19.2-19.2-19.2s-19.2,8.6-19.2,19.2.3,3.9.9,5.7c-1.8-.5-3.7-.9-5.7-.9-10.6,0-19.2,8.6-19.2,19.2s8.6,19.2,19.2,19.2,3.9-.3,5.7-.9c-.5,1.8-.9,3.7-.9,5.7,0,10.6,8.6,19.2,19.2,19.2s19.2-8.6,19.2-19.2-.3-3.9-.9-5.7c1.8.5,3.7.9,5.7.9,10.6,0,19.2-8.6,19.2-19.2s-8.6-19.2-19.2-19.2Z"/>
    <path class="st0" d="M134.4,94.5c5.4-5.4,5.4-14.2,0-19.7-5.4-5.4-14.2-5.4-19.7,0-5.4,5.4-5.4,14.2,0,19.7,5.4,5.4,14.2,5.4,19.7,0Z"/>
  </g>
</svg>