<?xml version="1.0" encoding="UTF-8"?>
<svg id="_레이어_1" data-name="레이어_1" xmlns="http://www.w3.org/2000/svg" version="1.1" viewBox="0 0 570 500">
  <!-- Generator: Adobe Illustrator 30.0.0, SVG Export Plug-In . SVG Version: 2.1.1 Build 123)  -->
  <defs>
    <style>
      .st0 {
        fill: #6bbbff;
      }

      .st1 {
        fill: #3a4149;
      }

      .st2 {
        fill: #fff;
      }
    </style>
  </defs>
  <path class="st0" d="M563.7,280.4c0-99.4-112.7-98.5-112.7-98.5v-29.4c0-70-56.5-126.7-126.3-126.7s-126.3,56.7-126.3,126.7v29.4s-69.3,19.1-75.6-88.4l18.8-21.1c6-7.4,4.8-18.3-2.6-24.2-7.3-5.8-18.1-4.2-24,3l-3,3.7c-2.5,3-7.4,1.8-8.1-2.1l-6.9-40.8c-1.6-8.4-9.9-13.8-18.3-11.6-7.6,2-12.2,9.9-10.7,17.7l5.9,30.9-3.4.7-6.2-32.5c-1.5-7.8-8.6-13.4-16.4-12.5-8.6,1.1-14.3,9.1-12.8,17.5l6.4,33.7-2.7.6-3.5-18.4c-1.6-8.2-9.6-13.9-17.7-12.2-7.8,1.7-11.2,8.7-11.5,17.3-.3,8.5-.3,229.5,192.2,240.4v176.4c-20.9,1.2-37.4,18.6-37.4,39.8h156.2v-114.2h15.1v114.2h156.2c0-21.2-16.5-38.6-37.4-39.8v-78.2l12.4,15.6c6.8,8.5,19.3,10.5,27.9,3.8,8.8-6.8,10.2-19.4,3.3-28.1l-9.4-11.7c18.3,2.2,78.4,3.1,78.4-81.1h0ZM451.7,295.6h-.6v-38.3c8.3,1.9,19.1,7,19.1,20.5,0,22-18.5,17.8-18.5,17.8h0Z"/>
  <path class="st1" d="M352.9,143.2c7.8,0,14.1-6.3,14.1-14.1s-6.3-14.1-14.1-14.1-14.1,6.3-14.1,14.1,6.3,14.1,14.1,14.1Z"/>
  <path class="st1" d="M296.6,143.2c7.8,0,14.1-6.3,14.1-14.1s-6.3-14.1-14.1-14.1-14.1,6.3-14.1,14.1,6.3,14.1,14.1,14.1Z"/>
  <path class="st2" d="M300.3,161.2c0,19.2,5.7,34.8,24.4,34.8s24.4-15.6,24.4-34.8h-48.9Z"/>
</svg>