<?xml version="1.0" encoding="UTF-8"?>
<svg id="_레이어_1" xmlns="http://www.w3.org/2000/svg" version="1.1" viewBox="0 0 570 330">
  <!-- Generator: Adobe Illustrator 30.0.0, SVG Export Plug-In . SVG Version: 2.1.1 Build 123)  -->
  <defs>
    <style>
      .st0 {
        fill: #6bbbff;
      }

      .st1 {
        fill: #3a4149;
      }

      .st2 {
        fill: #ff9bac;
      }

      .st3 {
        fill: #87de20;
      }
    </style>
  </defs>
  <path class="st3" d="M230.7,198.8l-72.6,42.4,15.6,25.6,73.2-45-16.1-23h-.1Z"/>
  <path class="st3" d="M279.3,330l-3.4-128.5-29.9.8,2.5,97.7h-31.5v30h62.3Z"/>
  <path class="st3" d="M291.3,330l3.4-128.5,29.9.8-2.5,97.7h31.5v30h-62.3Z"/>
  <path class="st3" d="M339.3,198.8l72.6,42.4-15.6,25.6-64.2-39.4,7.1-28.6h.1Z"/>
  <path class="st3" d="M285.1,266.8c35.3,0,63.9-28.7,63.9-64.1s-28.6-64.1-63.9-64.1-63.9,28.7-63.9,64.1,28.6,64.1,63.9,64.1Z"/>
  <path class="st1" d="M312.1,216.2c0,14.9-12.1,27-26.9,27s-26.9-12.1-26.9-27h53.9-.1Z"/>
  <path class="st1" d="M278.9,192.3h-14.7v10.4h14.7v-10.4Z"/>
  <path class="st1" d="M306,192.3h-14.7v10.4h14.7v-10.4Z"/>
  <path class="st2" d="M314.1,109.2c-2.4,0-4.7.4-6.8,1,.7-2.2,1-4.5,1-6.8,0-12.9-10.4-23.3-23.2-23.3s-23.2,10.4-23.2,23.3.4,4.7,1,6.8c-2.2-.7-4.4-1-6.8-1-12.8,0-23.2,10.4-23.2,23.3s10.4,23.3,23.2,23.3,4.7-.4,6.8-1c-.7,2.2-1,4.5-1,6.8,0,12.9,10.4,23.3,23.2,23.3s23.2-10.4,23.2-23.3-.4-4.7-1-6.8c2.2.7,4.4,1,6.8,1,12.8,0,23.2-10.4,23.2-23.3s-10.4-23.3-23.2-23.3Z"/>
  <path class="st0" d="M297,144.3c6.5-6.6,6.5-17.2,0-23.8-6.5-6.6-17.1-6.6-23.7,0-6.5,6.6-6.5,17.2,0,23.8,6.5,6.6,17.2,6.6,23.7,0Z"/>
</svg>