<?xml version="1.0" encoding="UTF-8"?>
<svg id="_레이어_1" data-name="레이어_1" xmlns="http://www.w3.org/2000/svg" version="1.1" viewBox="0 0 570 500">
  <!-- Generator: Adobe Illustrator 30.0.0, SVG Export Plug-In . SVG Version: 2.1.1 Build 123)  -->
  <defs>
    <style>
      .st0 {
        fill: #6bbbff;
      }

      .st1 {
        fill: #3a4149;
      }

      .st2 {
        fill: #ff9bac;
      }

      .st3 {
        fill: #87de20;
      }
    </style>
  </defs>
  <path class="st0" d="M319.6,369l72.5,42.3-15.5,25.6-73-44.9,16.1-23Z"/>
  <path class="st0" d="M271.1,499.9l3.4-128.2,29.8.8-2.6,97.5h31.5s0,29.9,0,29.9h-62.1Z"/>
  <path class="st0" d="M259.2,499.9l-3.3-128.2-29.8.8,2.5,97.5h-31.4s0,29.9,0,29.9h62Z"/>
  <path class="st0" d="M211.3,369l-72.4,42.3,15.5,25.6,64-39.3-7.1-28.5Z"/>
  <path class="st0" d="M265.4,436.8c35.2,0,63.7-28.6,63.7-63.9s-28.5-63.9-63.7-63.9-63.7,28.6-63.7,63.9,28.5,63.9,63.7,63.9Z"/>
  <path class="st1" d="M238.5,386.4c0,14.9,12,27,26.9,27s26.9-12.1,26.9-27h-53.7Z"/>
  <path class="st1" d="M271.5,372.9h9.4v-27.3h-9.4v27.3Z"/>
  <path class="st1" d="M249.8,372.9h9.4v-27.3h-9.4v27.3Z"/>
  <path class="st3" d="M345.3,440.5v-19.9c0-15.8,12.8-28.7,28.6-28.7s28.6,12.9,28.6,28.7v19.9c0,4.9-3.9,8.8-8.8,8.8h-39.7c-4.8,0-8.8-4-8.8-8.8h0ZM391.1,420.6c0-9.5-7.7-17.2-17.2-17.2s-17.2,7.7-17.2,17.2v17.2h34.4v-17.2Z"/>
  <path class="st2" d="M316.6,495.3h97.3l5.7-68.9h-97.3l-5.7,68.9Z"/>
  <path class="st0" d="M419.7,426.4h5.7l5.7,68.9h-17.2l5.7-68.9Z"/>
  <path class="st0" d="M382.4,405.6l9.7,5.6-15.5,25.6-18.2-11.2"/>
</svg>