<?xml version="1.0" encoding="UTF-8"?>
<svg id="_레이어_1" xmlns="http://www.w3.org/2000/svg" version="1.1" viewBox="0 0 570 500">
  <!-- Generator: Adobe Illustrator 30.0.0, SVG Export Plug-In . SVG Version: 2.1.1 Build 123)  -->
  <defs>
    <style>
      .st0 {
        fill: #6bbbff;
      }

      .st1 {
        fill: #3a4149;
      }

      .st2 {
        fill: #ff9bac;
      }

      .st3 {
        fill: #87de20;
      }
    </style>
  </defs>
  <path class="st2" d="M365.6,261.8l-22.8-20.8-35.9,39.9c-10.1-23.5-33.4-39.9-60.5-39.9s-50.4,16.4-60.5,39.9l-35.9-39.9-22.8,20.8,54.6,58.1c6,30.4,32.6,53.2,64.6,53.2s58.6-23,64.6-53.2l54.6-58.1h0Z"/>
  <path class="st1" d="M274.2,299.4c0,15.4-12.4,27.9-27.8,27.9s-27.8-12.5-27.8-27.9h55.5Z"/>
  <path class="st1" d="M240,264.9h-9.8v20.9h9.8v-20.9Z"/>
  <path class="st1" d="M262.5,264.9h-9.8v20.9h9.8v-20.9Z"/>
  <path class="st3" d="M319.4,361.1h-146.1v138.9h146.1v-138.9Z"/>
  <path class="st0" d="M263.2,361.1h-33.5v138.9h33.5v-138.9Z"/>
  <path class="st0" d="M360,385.9c12.3,0,22.3-10,22.3-22.4s-10-22.4-22.3-22.4-22.3,10-22.3,22.4,10,22.4,22.3,22.4Z"/>
  <path class="st0" d="M417.7,333c12.3,0,22.3-10,22.3-22.4s-10-22.4-22.3-22.4-22.3,10-22.3,22.4,10,22.4,22.3,22.4Z"/>
  <path class="st3" d="M335,386.6l107.9-98.9-22.5-24.7-107.9,98.9,22.5,24.7Z"/>
  <path class="st0" d="M376.5,348.5l24.8-22.7-22.5-24.7-24.8,22.7,22.5,24.7Z"/>
</svg>