<?xml version="1.0" encoding="UTF-8"?>
<svg id="_레이어_1" data-name="레이어_1" xmlns="http://www.w3.org/2000/svg" version="1.1" viewBox="0 0 369 331">
  <!-- Generator: Adobe Illustrator 30.0.0, SVG Export Plug-In . SVG Version: 2.1.1 Build 123)  -->
  <defs>
    <style>
      .st0 {
        fill: #6bbbff;
      }

      .st1 {
        fill: #3a4149;
      }

      .st2 {
        fill: #fff;
      }
    </style>
  </defs>
  <path class="st0" d="M0,185.2c0-65.6,74.4-65.1,74.4-65.1v-19.4c0-46.2,37.3-83.7,83.4-83.7s83.4,37.5,83.4,83.7v19.4s45.8,12.6,49.9-58.4l-12.4-13.9c-4-4.9-3.2-12.1,1.7-16,4.8-3.8,11.9-2.8,15.8,2l2,2.4c1.6,2,4.9,1.2,5.3-1.4l4.6-26.9c1-5.5,6.5-9.1,12.1-7.7,5,1.3,8.1,6.5,7.1,11.7l-3.9,20.4,2.2.5,4.1-21.4c1-5.1,5.7-8.9,10.9-8.2,5.7.7,9.5,6,8.4,11.6l-4.2,22.2,1.8.4,2.3-12.2c1-5.4,6.3-9.2,11.7-8,5.2,1.1,7.4,5.7,7.6,11.4.2,5.6.2,151.6-126.9,158.8v116.5c13.8.8,24.7,12.3,24.7,26.3h-103.1v-75.4h-10v75.4H49.7c0-14,10.9-25.5,24.7-26.3v-51.6l-8.2,10.3c-4.5,5.6-12.7,6.9-18.4,2.5-5.8-4.5-6.8-12.8-2.2-18.5l6.2-7.8C39.7,240.3,0,240.9,0,185.2H0ZM74,195.2h.4v-25.3c-5.5,1.3-12.6,4.6-12.6,13.5,0,14.5,12.2,11.7,12.2,11.7h0Z"/>
  <path class="st1" d="M139.2,94.6c-5.1,0-9.3-4.2-9.3-9.3s4.2-9.3,9.3-9.3,9.3,4.2,9.3,9.3-4.2,9.3-9.3,9.3Z"/>
  <path class="st1" d="M176.4,94.6c-5.1,0-9.3-4.2-9.3-9.3s4.2-9.3,9.3-9.3,9.3,4.2,9.3,9.3-4.2,9.3-9.3,9.3Z"/>
  <path class="st2" d="M174,106.5c0,12.7-3.8,23-16.1,23s-16.1-10.3-16.1-23h32.3Z"/>
</svg>