<svg width="133" height="150" viewBox="0 0 133 150" fill="none" xmlns="http://www.w3.org/2000/svg">
<path d="M95.5838 58.9261C103.667 64.7204 109.611 73.8327 110.476 83.7587C111.342 93.6847 106.537 102.969 99.9305 111.373" stroke="#87DE20" stroke-width="25.3337"/>
<path d="M54.4174 43.3481C44.5328 42.3429 34.0705 45.2469 26.885 52.1263C19.6996 59.0056 17.1946 69.1605 16.6212 79.8475" stroke="#87DE20" stroke-width="25.3337"/>
<path d="M63.829 81.5361C81.6267 88.2711 101.497 79.2578 108.211 61.4045C114.925 43.5511 105.94 23.6184 88.1425 16.8834C70.3447 10.1484 50.474 19.1617 43.7601 37.015C37.0461 54.8684 46.0312 74.8011 63.829 81.5361Z" fill="#87DE20"/>
<path d="M74.3288 44.1564L69.5655 42.3539L64.7847 55.0667L69.548 56.8693L74.3288 44.1564Z" fill="#3A4149"/>
<path d="M83.5219 53.1308L78.7586 51.3283L75.787 59.2303L80.5503 61.0328L83.5219 53.1308Z" fill="#3A4149"/>
<path d="M10.9314 106.975L41.4854 129.316L61.2964 76.6363L30.7383 54.3055L10.9314 106.975Z" fill="#FF9BAC"/>
<path d="M86.2766 135.486L48.6251 132.018L68.4361 79.338L106.084 82.8173L86.2766 135.486Z" fill="#FF9BAC"/>
<path d="M61.296 76.6363L41.4891 129.305C41.1002 130.339 42.3909 131.785 44.3874 132.541C46.3838 133.296 48.3049 133.066 48.6937 132.032L68.5006 79.3627L61.3068 76.6404L61.296 76.6363Z" fill="#6BBBFF"/>
<path d="M96.4721 108.572L94.347 106.972L102.063 93.7045L96.4721 108.572Z" fill="#87DE20"/>
<path d="M21.0412 80.0904L23.7051 80.2903L26.6365 65.2115L21.0412 80.0904Z" fill="#87DE20"/>
</svg>
