<svg width="637" height="84" viewBox="0 0 637 84" fill="none" xmlns="http://www.w3.org/2000/svg">
<path d="M506.062 2.33057H490.896V43.5831H506.062V2.33057Z" fill="#5F6264"/>
<path d="M414.421 48.0679H399.313V83.7269H508.121V71.1413H414.421V48.0679Z" fill="#5F6264"/>
<path d="M412.953 40.5545H461.978C472.206 40.5545 480.494 32.3389 480.494 22.2006C480.494 12.0622 472.206 3.84668 461.978 3.84668H412.953C402.725 3.84668 394.436 12.0622 394.436 22.2006C394.436 32.3389 402.725 40.5545 412.953 40.5545ZM416.245 15.5582H458.686C462.389 15.5582 465.328 18.5298 465.328 22.1423C465.328 25.7548 462.33 28.7264 458.686 28.7264H416.245C412.541 28.7264 409.602 25.7548 409.602 22.1423C409.602 18.5298 412.6 15.5582 416.245 15.5582Z" fill="#5F6264"/>
<path d="M73.8314 5.12598H0V17.6532H73.8314V5.12598Z" fill="#5F6264"/>
<path d="M107.692 2.33057H92.5845V83.7287H107.692V43.2918H118.508V30.7645H107.692V2.33057Z" fill="#5F6264"/>
<path d="M15.1657 25.2324H0V79.6532H74.7718V67.1259H15.1657V25.2324Z" fill="#5F6264"/>
<path d="M175.056 14.9716C190.457 14.9716 202.978 26.4501 202.978 40.5505H218.144C218.144 19.5164 198.804 2.44434 175.056 2.44434C151.307 2.44434 131.968 19.5746 131.968 40.5505H147.134C147.134 26.4501 159.655 14.9716 175.056 14.9716Z" fill="#5F6264"/>
<path d="M241.479 2.33057H226.372V43.5831H241.479V30.7645H251.531V18.2373H241.479V2.33057Z" fill="#5F6264"/>
<path d="M149.9 48.0679H134.734V83.7269H243.541V71.1413H149.9V48.0679Z" fill="#5F6264"/>
<path d="M305.026 14.9716C320.427 14.9716 332.948 26.4501 332.948 40.5505H348.114C348.114 19.5164 328.774 2.44434 305.026 2.44434C281.277 2.44434 261.938 19.5746 261.938 40.5505H277.104C277.104 26.4501 289.625 14.9716 305.026 14.9716Z" fill="#5F6264"/>
<path d="M371.45 2.33057H356.284V41.4273H371.45V30.7645H381.502V18.2373H371.45V2.33057Z" fill="#5F6264"/>
<path d="M356.459 48.0679H281.746C271.811 48.0679 263.758 56.0504 263.758 65.8974C263.758 75.7444 271.811 83.7269 281.746 83.7269H356.459C366.393 83.7269 374.446 75.7444 374.446 65.8974C374.446 56.0504 366.393 48.0679 356.459 48.0679ZM353.167 71.9571H285.037C281.687 71.9571 278.924 69.2186 278.924 65.8974C278.924 62.5762 281.687 59.8377 285.037 59.8377H353.167C356.517 59.8377 359.28 62.5762 359.28 65.8974C359.28 69.2186 356.517 71.9571 353.167 71.9571Z" fill="#5F6264"/>
<path d="M609.52 6.2345H575.72V0H560.495V6.2345H526.695V18.2374H609.52V6.2345Z" fill="#5F6264"/>
<path d="M636.678 2.33057H621.512V83.7287H636.678V2.33057Z" fill="#5F6264"/>
<path d="M575.718 59.5525H588.474C598.702 59.5525 606.99 51.337 606.99 41.1986C606.99 31.0603 598.702 22.8447 588.474 22.8447H547.678C537.45 22.8447 529.161 31.0603 529.161 41.1986C529.161 51.337 537.45 59.5525 547.678 59.5525H560.434V67.1272H525.87V79.6544H612.81V67.1272H575.6V59.5525H575.718ZM544.386 41.1986C544.386 37.5279 547.384 34.6145 551.029 34.6145H585.241C588.944 34.6145 591.883 37.5861 591.883 41.1986C591.883 44.8111 588.885 47.7827 585.241 47.7827H551.029C547.326 47.7827 544.386 44.8111 544.386 41.1986Z" fill="#5F6264"/>
</svg>
