<svg width="241" height="242" viewBox="0 0 241 242" fill="none" xmlns="http://www.w3.org/2000/svg">
<path d="M120.364 241.48C186.839 241.48 240.727 187.423 240.727 120.74C240.727 54.0571 186.839 0 120.364 0C53.8887 0 0 54.0571 0 120.74C0 187.423 53.8887 241.48 120.364 241.48Z" fill="#87DE20"/>
<path d="M72.9615 104.573C81.7338 104.573 88.8594 111.18 88.8594 119.322H97.486C97.486 107.204 86.4842 97.3521 72.9615 97.3521C59.4388 97.3521 48.437 107.204 48.437 119.322H57.0636C57.0636 111.195 64.2038 104.573 72.9615 104.573Z" fill="white"/>
<path d="M110.804 113.709H116.546V106.473H110.804V97.2936H102.178V121.062H110.804V113.709Z" fill="white"/>
<path d="M58.6224 123.678H49.9958V144.2H111.97V136.965H58.6224V123.678Z" fill="white"/>
<path d="M178.462 113.709H181.347V119.848H189.434V97.2933H181.347V106.473H178.462V97.3518H170.36V119.585H178.462V113.709Z" fill="white"/>
<path d="M128.975 130.913H180.808V144.551H189.434V123.678H128.975V130.913Z" fill="white"/>
<path d="M149.959 99.5588V95.9629H141.289V99.5588H124.808V106.473H130.331C127.038 109.835 124.998 114.352 124.998 119.322H133.274C133.304 112.086 138.331 106.327 145.631 106.327C152.932 106.327 157.959 112.086 157.988 119.322H166.265C166.265 114.352 164.21 109.835 160.932 106.473H166.455V99.5588H149.974H149.959Z" fill="white"/>
</svg>
