<svg width="241" height="242" viewBox="0 0 241 242" fill="none" xmlns="http://www.w3.org/2000/svg">
<path d="M120.364 241.48C186.839 241.48 240.727 187.423 240.727 120.74C240.727 54.0571 186.839 0 120.364 0C53.8887 0 0 54.0571 0 120.74C0 187.423 53.8887 241.48 120.364 241.48Z" fill="#FF9BAC"/>
<path d="M138.768 113.709H141.653V119.848H149.74V97.2935H141.653V106.473H138.768V97.3519H130.666V119.585H138.768V113.709Z" fill="white"/>
<path d="M89.2815 130.913H141.114V144.551H149.74V123.678H89.2815V130.913Z" fill="white"/>
<path d="M110.265 99.5589V95.963H101.595V99.5589H85.114V106.473H90.6368C87.3435 109.835 85.3035 114.352 85.3035 119.322H93.5803C93.6094 112.086 98.6367 106.327 105.937 106.327C113.238 106.327 118.265 112.086 118.294 119.322H126.571C126.571 114.352 124.516 109.835 121.238 106.473H126.76V99.5589H110.28H110.265Z" fill="white"/>
</svg>
