<svg width="241" height="242" viewBox="0 0 241 242" fill="none" xmlns="http://www.w3.org/2000/svg">
<path d="M120.364 241.48C186.839 241.48 240.727 187.423 240.727 120.74C240.727 54.0571 186.839 0 120.364 0C53.8887 0 0 54.0571 0 120.74C0 187.423 53.8887 241.48 120.364 241.48Z" fill="#6BBBFF"/>
<path d="M90.783 98.9019H48.7285V106.137H90.783V98.9019Z" fill="white"/>
<path d="M110.061 97.2937H101.435V144.201H110.061V120.915H116.225V113.68H110.061V97.2937Z" fill="white"/>
<path d="M57.3551 110.493H48.7285V141.876H91.3221V134.641H57.3551V110.493Z" fill="white"/>
<path d="M148.429 104.573C157.202 104.573 164.327 111.18 164.327 119.322H172.954C172.954 107.204 161.952 97.3523 148.429 97.3523C134.907 97.3523 123.905 107.204 123.905 119.322H132.531C132.531 111.195 139.672 104.573 148.429 104.573Z" fill="white"/>
<path d="M186.272 113.709H192.013V106.474H186.272V97.2938H177.646V121.062H186.272V113.709Z" fill="white"/>
<path d="M134.09 123.678H125.464V144.201H187.438V136.965H134.09V123.678Z" fill="white"/>
</svg>
