<svg width="208" height="213" viewBox="0 0 208 213" fill="none" xmlns="http://www.w3.org/2000/svg">
<path d="M145.631 207.411L207.938 176.16L194.496 149.19L160.675 166.153L134.162 104.133C126.801 111.036 117.785 116.12 107.703 118.635L145.631 207.411Z" fill="#FF9BAC"/>
<path d="M62.3603 212.334L75.8033 185.364L41.9825 168.401L71.8024 116.548C62.147 112.856 53.7185 106.863 47.157 99.1035L0 181.084L62.307 212.334H62.3603Z" fill="#6BBBFF"/>
<path d="M71.8019 116.549C78.4167 119.064 85.5649 120.508 93.0866 120.508C98.1543 120.508 103.009 119.813 107.703 118.636C117.785 116.12 126.854 111.037 134.162 104.134C145.845 93.1639 153.153 77.592 153.153 60.2542C153.153 26.9699 126.267 0 93.0866 0C59.9059 0 33.02 26.9699 33.02 60.2542C33.02 75.077 38.3545 88.5619 47.2098 99.0502C53.7179 106.809 62.1998 112.856 71.8552 116.495L71.8019 116.549Z" fill="#87DE20"/>
</svg>
