<svg width="217" height="217" viewBox="0 0 217 217" fill="none" xmlns="http://www.w3.org/2000/svg">
<path d="M165.156 168.723C160.996 168.723 156.995 168.348 153.154 167.652V216.883H177.159V167.652C173.318 168.294 169.317 168.723 165.156 168.723Z" fill="#6BBBFF"/>
<path d="M177.213 167.653C199.617 163.8 216.261 149.566 216.261 132.549C216.261 123.292 211.3 114.837 203.192 108.469C193.856 115.853 180.307 120.509 165.21 120.509C150.113 120.509 136.564 115.853 127.228 108.469C119.12 114.89 114.159 123.292 114.159 132.549C114.159 149.566 130.802 163.8 153.207 167.653C157.048 168.295 161.102 168.723 165.21 168.723C169.317 168.723 173.372 168.348 177.213 167.653Z" fill="#87DE20"/>
<path d="M203.138 108.468C211.247 102.047 216.208 93.6454 216.208 84.3879C216.208 75.1304 211.247 66.6755 203.138 60.3076C193.803 67.6922 180.253 72.3478 165.157 72.3478C150.06 72.3478 136.51 67.6922 127.175 60.3076C119.067 66.729 114.105 75.1304 114.105 84.3879C114.105 93.6454 119.067 102.1 127.175 108.468C136.51 115.853 150.06 120.508 165.157 120.508C180.253 120.508 193.803 115.853 203.138 108.468Z" fill="#FF9BAC"/>
<path d="M203.138 60.2542C211.247 53.8328 216.208 45.4315 216.208 36.1739C216.208 16.2141 193.376 0 165.157 0C136.937 0 114.105 16.1605 114.105 36.1739C114.105 45.4315 119.067 53.8863 127.175 60.2542C136.51 67.6388 150.06 72.2944 165.157 72.2944C180.253 72.2944 193.803 67.6388 203.138 60.2542Z" fill="#87DE20"/>
<path d="M39.0491 167.652V216.883H63.0543V167.652C59.2135 168.294 55.2126 168.723 51.0517 168.723C46.8908 168.723 42.8899 168.348 39.0491 167.652Z" fill="#6BBBFF"/>
<path d="M0 132.549C0 149.566 16.6437 163.8 39.0486 167.653C42.8894 168.295 46.9436 168.723 51.0512 168.723C55.1588 168.723 59.213 168.348 63.0538 167.653C85.4588 163.8 102.102 149.566 102.102 132.549C102.102 123.292 97.1413 114.837 89.0329 108.469C79.6975 115.853 66.1479 120.509 51.0512 120.509C35.9546 120.509 22.4049 115.853 13.0695 108.469C4.96109 114.89 0 123.292 0 132.549Z" fill="#FF9BAC"/>
<path d="M89.0329 108.467C97.1413 102.046 102.102 93.6444 102.102 84.3868C102.102 64.427 79.2707 48.2129 51.0512 48.2129C22.8317 48.2129 0 64.3734 0 84.3333C0 93.5909 4.96109 102.046 13.0695 108.414C22.4049 115.798 35.9546 120.454 51.0512 120.454C66.1479 120.454 79.6975 115.798 89.0329 108.414V108.467Z" fill="#87DE20"/>
</svg>
