<svg width="139" height="87" viewBox="0 0 139 87" fill="none" xmlns="http://www.w3.org/2000/svg">
<path d="M41.3839 48.0479L32.0155 57.1134C32.6075 58.4744 32.9382 59.9756 32.9382 61.5537C32.9381 64.9996 31.371 68.0791 28.9111 70.1281L34.392 81.7345L24.4265 86.1358L22.301 81.3559L27.3632 79.1233L24.2112 72.4461C23.4145 72.6255 22.5864 72.7241 21.7353 72.7241C20.9597 72.7241 20.2025 72.6444 19.4713 72.4948L13.9732 85.8762L3.98825 81.4987L6.10184 76.7112L11.1598 78.9319L14.7217 70.2612C13.5551 69.3258 12.5797 68.1637 11.865 66.8398L2.23702 72.7198L-0.490967 68.2568L10.54 61.8544C10.5373 61.7544 10.5324 61.6543 10.5324 61.5537C10.5324 55.3844 15.5483 50.3832 21.7353 50.3832C24.5297 50.3833 27.083 51.4055 29.0453 53.0928L37.7224 44.3042L41.3839 48.0479Z" fill="#FF9BAC"/>
<path d="M13.489 64.2456C13.489 66.4829 15.5577 68.2939 18.1069 68.2939C20.6561 68.2939 22.7248 66.4829 22.7248 64.2456H13.489Z" fill="#3A4149"/>
<path d="M19.19 61.5488H20.8474V57.87H19.19V61.5488Z" fill="#3A4149"/>
<path d="M15.3663 61.5488H17.0237V57.87H15.3663V61.5488Z" fill="#3A4149"/>
<path d="M80.9832 0C93.8472 0 104.276 10.3988 104.276 23.2257V28.619C104.276 28.619 125.053 28.4601 125.053 46.6754L125.045 47.3839C124.709 62.1045 113.919 61.9405 110.596 61.5408L112.327 63.6977C113.585 65.2609 113.333 67.5463 111.766 68.801C110.198 70.0557 107.904 69.804 106.646 68.2407L104.28 65.2975V65.9919H103.093L111.395 86.3956H76.7074C76.7074 82.5015 79.7624 79.3222 83.6106 79.1029H83.6063L77.8691 65.9995L62.7808 85.1365L38.7016 68.0179C40.5952 64.6111 44.8106 63.3038 48.2842 64.9686L57.6947 52.5034V44.9815C47.95 46.6296 38.7402 46.8815 30.5166 44.5564C28.1263 44.5563 26.1877 42.5986 26.1877 38.2459C26.1877 35.96 26.3505 34.8512 27.2056 33.824C27.1688 33.819 24.9847 33.5262 23.3494 33.3048C21.7005 33.0855 21.0002 32.2569 21 30.9619C21 29.6707 21.6677 28.4201 23.3494 28.619L23.3451 28.6103C24.9327 28.7981 43.9931 31.5896 57.6947 29.1079V28.619H57.6904V23.2257C57.6906 10.3988 68.1194 0.000155898 80.9832 0ZM104.28 49.4347L104.386 49.4488C104.386 49.4488 107.803 50.2204 107.803 46.1886C107.803 43.7162 105.817 42.7862 104.28 42.4352V49.4347Z" fill="#6BBBFF"/>
<path d="M80.6154 21.0738C82.0435 21.0738 83.2012 19.9194 83.2012 18.4954C83.2012 17.0714 82.0435 15.917 80.6154 15.917C79.1873 15.917 78.0295 17.0714 78.0295 18.4954C78.0295 19.9194 79.1873 21.0738 80.6154 21.0738Z" fill="#3A4149"/>
<path d="M70.2882 21.0738C71.7164 21.0738 72.8741 19.9194 72.8741 18.4954C72.8741 17.0714 71.7164 15.917 70.2882 15.917C68.8601 15.917 67.7024 17.0714 67.7024 18.4954C67.7024 19.9194 68.8601 21.0738 70.2882 21.0738Z" fill="#3A4149"/>
<path d="M70.968 24.3672C70.968 27.8755 72.0146 30.7178 75.4515 30.7178C78.8884 30.7178 79.935 27.8755 79.935 24.3672H70.968Z" fill="white"/>
<path d="M116.231 50.3828C122.418 50.3831 127.433 55.3841 127.433 61.5533C127.433 61.6466 127.428 61.7396 127.425 61.8323L138.493 68.2575L135.765 72.7194L126.109 66.8199C125.427 68.0898 124.506 69.2123 123.406 70.1288L128.883 81.7341L118.918 86.1354L116.797 81.3566L121.855 79.1229L118.705 72.4468C117.909 72.6258 117.081 72.7237 116.231 72.7237C115.454 72.7237 114.695 72.6446 113.963 72.4944L108.465 85.8758L98.484 81.4983L100.593 76.7108L105.656 78.9325L109.217 70.2608C108.051 69.3255 107.075 68.1641 106.361 66.8405L96.7328 72.7194L94.0005 68.2575L105.035 61.8529C105.032 61.7533 105.028 61.6535 105.028 61.5533C105.028 55.384 110.044 50.3828 116.231 50.3828Z" fill="#87DE20"/>
<path d="M108.51 63.9121C108.51 66.5149 110.481 68.6223 112.916 68.6223C115.351 68.6223 117.322 66.5149 117.322 63.9121H108.51Z" fill="#3A4149"/>
<path d="M113.681 61.5488H116.365V59.8718H113.681V61.5488Z" fill="#3A4149"/>
<path d="M109.039 61.5488H111.515V59.8718H109.039V61.5488Z" fill="#3A4149"/>
</svg>
