<?xml version="1.0" encoding="UTF-8"?>
<svg id="_레이어_2" data-name="레이어 2" xmlns="http://www.w3.org/2000/svg" viewBox="0 0 95.48 95.48">
  <defs>
    <style>
      .cls-1 {
        fill: #fff;
      }

      .cls-2 {
        fill: #6bbbff;
      }
    </style>
  </defs>
  <g id="_레이어_1-2" data-name="레이어 1">
    <g>
      <circle class="cls-2" cx="47.74" cy="47.74" r="47.74"/>
      <g>
        <path class="cls-1" d="M66.62,49.76c-7.24,0-13.13,5.89-13.13,13.13,0,2.76.85,5.41,2.49,7.68l9.14,12.33c.35.47.91.75,1.5.75h0c.59,0,1.15-.28,1.5-.75l9.51-12.87c1.38-2.12,2.11-4.59,2.11-7.14,0-7.24-5.89-13.13-13.13-13.13ZM66.62,68.51c-3.1,0-5.63-2.52-5.63-5.63s2.52-5.63,5.63-5.63,5.63,2.52,5.63,5.63-2.52,5.63-5.63,5.63Z"/>
        <path class="cls-1" d="M18.57,19.89c-.58-.35-1.3-.36-1.89-.02-.59.33-.95.96-.95,1.63v37.63c0,.66.35,1.27.91,1.61l17.97,10.71V29.44l-16.04-9.55Z"/>
        <path class="cls-1" d="M75.08,31.15l-17.84-10.71v28.43c2.68-1.8,5.91-2.86,9.38-2.86s6.69,1.06,9.38,2.86v-16.11c0-.66-.35-1.27-.91-1.61Z"/>
        <path class="cls-1" d="M53.49,20.44l-15.13,9v42.01l11.51-6.83c-.06-.57-.14-1.15-.14-1.73,0-3.98,1.44-7.59,3.75-10.48v-31.97Z"/>
      </g>
    </g>
  </g>
</svg>