<svg width="36" height="36" viewBox="0 0 36 36" fill="none" xmlns="http://www.w3.org/2000/svg">
<g clip-path="url(#clip0_14_155)">
<rect width="36" height="36" fill="white"/>
<g clip-path="url(#clip1_14_155)">
<path d="M17.5513 3.3682C22.2374 3.3682 22.7932 3.38576 24.6449 3.47059C29.4013 3.68705 31.623 5.94385 31.8394 10.6651C31.9243 12.5153 31.9404 13.0711 31.9404 17.7573C31.9404 22.445 31.9228 22.9993 31.8394 24.8495C31.6215 29.5664 29.4057 31.8276 24.6449 32.044C22.7932 32.1289 22.2404 32.1464 17.5513 32.1464C12.8651 32.1464 12.3093 32.1289 10.4591 32.044C5.691 31.8261 3.481 29.5591 3.26453 24.848C3.1797 22.9978 3.16215 22.4435 3.16215 17.7558C3.16215 13.0697 3.18117 12.5153 3.26453 10.6637C3.48246 5.94385 5.69831 3.68559 10.4591 3.46912C12.3107 3.38576 12.8651 3.3682 17.5513 3.3682ZM17.5513 0.20459C12.7846 0.20459 12.1879 0.225066 10.3158 0.309897C3.94172 0.602418 0.399291 4.139 0.10677 10.5189C0.0204765 12.3925 0 12.9892 0 17.7558C0 22.5225 0.0204765 23.1207 0.105308 24.9928C0.397829 31.3669 3.93441 34.9093 10.3143 35.2018C12.1879 35.2866 12.7846 35.3071 17.5513 35.3071C22.3179 35.3071 22.9161 35.2866 24.7882 35.2018C31.1564 34.9093 34.7076 31.3727 34.9957 24.9928C35.082 23.1207 35.1025 22.5225 35.1025 17.7558C35.1025 12.9892 35.082 12.3925 34.9972 10.5203C34.7105 4.15216 31.1696 0.603881 24.7897 0.31136C22.9161 0.225066 22.3179 0.20459 17.5513 0.20459ZM17.5513 8.74328C12.574 8.74328 8.53869 12.7786 8.53869 17.7558C8.53869 22.7331 12.574 26.7699 17.5513 26.7699C22.5285 26.7699 26.5638 22.7346 26.5638 17.7558C26.5638 12.7786 22.5285 8.74328 17.5513 8.74328ZM17.5513 23.6063C14.3204 23.6063 11.7008 20.9882 11.7008 17.7558C11.7008 14.525 14.3204 11.9054 17.5513 11.9054C20.7822 11.9054 23.4017 14.525 23.4017 17.7558C23.4017 20.9882 20.7822 23.6063 17.5513 23.6063ZM26.9207 6.28171C25.7565 6.28171 24.8131 7.22509 24.8131 8.38786C24.8131 9.55064 25.7565 10.494 26.9207 10.494C28.0835 10.494 29.0254 9.55064 29.0254 8.38786C29.0254 7.22509 28.0835 6.28171 26.9207 6.28171Z" fill="#575B5D"/>
</g>
</g>
<defs>
<clipPath id="clip0_14_155">
<rect width="36" height="36" fill="white"/>
</clipPath>
<clipPath id="clip1_14_155">
<rect width="35.1025" height="35.1025" fill="white" transform="translate(0 0.20459)"/>
</clipPath>
</defs>
</svg>
