<?xml version="1.0" encoding="UTF-8"?>
<svg id="_레이어_2" xmlns="http://www.w3.org/2000/svg" version="1.1" viewBox="0 0 469.4 201.6">
  <!-- Generator: Adobe Illustrator 30.0.0, SVG Export Plug-In . SVG Version: 2.1.1 Build 123)  -->
  <defs>
    <style>
      .st0 {
        fill: #6bbbff;
      }

      .st1 {
        fill: #ff9bac;
      }

      .st2 {
        fill: #87de20;
      }

      .st3 {
        fill: #575b5d;
      }
    </style>
  </defs>
  <g id="Layer_1">
    <g>
      <path class="st1" d="M185.8,103.6l28.9-14.4-6.2-12.5-15.7,7.8-12.3-28.7c-3.4,3.2-7.6,5.5-12.3,6.7l17.6,41h0Z"/>
      <path class="st0" d="M147.2,105.8l6.2-12.5-15.7-7.8,13.8-24c-4.5-1.7-8.4-4.5-11.4-8.1l-21.9,37.9,28.9,14.4h0Z"/>
      <path class="st2" d="M151.6,61.6c3.1,1.2,6.4,1.8,9.9,1.8s4.6-.3,6.8-.8c4.7-1.2,8.9-3.5,12.3-6.7,5.4-5.1,8.8-12.3,8.8-20.3,0-15.4-12.5-27.9-27.9-27.9s-27.9,12.5-27.9,27.9,2.5,13.1,6.6,18c3,3.6,6.9,6.4,11.4,8.1h0Z"/>
      <path class="st0" d="M76.6,78c-1.9,0-3.8-.2-5.6-.5v22.8h11.1v-22.8c-1.8.3-3.7.5-5.6.5Z"/>
      <path class="st2" d="M82.2,77.5c10.4-1.8,18.1-8.4,18.1-16.2s-2.3-8.2-6-11.1c-4.3,3.4-10.6,5.6-17.6,5.6s-13.3-2.2-17.6-5.6c-3.8,3-6,6.9-6,11.1,0,7.9,7.7,14.5,18.1,16.2,1.8.3,3.7.5,5.6.5s3.8-.2,5.6-.5h0Z"/>
      <path class="st1" d="M94.2,50.1c3.8-3,6-6.9,6-11.1s-2.3-8.2-6-11.1c-4.3,3.4-10.6,5.6-17.6,5.6s-13.3-2.1-17.6-5.6c-3.8,3-6,6.9-6,11.1s2.3,8.2,6,11.1c4.3,3.4,10.6,5.6,17.6,5.6s13.3-2.2,17.6-5.6Z"/>
      <path class="st2" d="M94.2,27.9c3.8-3,6-6.9,6-11.1C100.3,7.5,89.7,0,76.6,0s-23.7,7.5-23.7,16.7,2.3,8.2,6,11.1c4.3,3.4,10.6,5.6,17.6,5.6s13.3-2.1,17.6-5.6h0Z"/>
      <path class="st0" d="M18.1,77.5v22.8h11.1v-22.8c-1.8.3-3.6.5-5.6.5s-3.8-.2-5.6-.5Z"/>
      <path class="st1" d="M0,61.3c0,7.9,7.7,14.5,18.1,16.2,1.8.3,3.6.5,5.6.5s3.8-.2,5.6-.5c10.4-1.8,18.1-8.4,18.1-16.2s-2.3-8.2-6-11.1c-4.3,3.4-10.6,5.6-17.6,5.6s-13.3-2.2-17.6-5.6C2.3,53.1,0,57,0,61.3h0Z"/>
      <path class="st2" d="M41.3,50.1c3.8-3,6-6.9,6-11.1,0-9.2-10.6-16.7-23.7-16.7S0,29.8,0,39s2.3,8.2,6,11.1c4.3,3.4,10.6,5.6,17.6,5.6s13.3-2.2,17.6-5.6h0Z"/>
      <polygon class="st1" points="244.3 14.5 234.3 19.4 252 55.7 264.4 55.7 244.3 14.5"/>
      <polygon class="st0" points="259.3 7.2 249.3 12.1 270.6 55.7 283 55.7 259.3 7.2"/>
      <path class="st2" d="M339.6,55.7h-111.4c0,27.7,22.4,50.1,55.7,50.1s55.7-22.5,55.7-50.1h0Z"/>
      <rect class="st2" x="432" y="11.1" width="36.2" height="89.1"/>
      <polygon class="st0" points="432 100.3 432 11.1 412.5 47.4 412.5 100.3 432 100.3"/>
      <polygon class="st1" points="412.5 100.3 412.5 47.4 412.5 30.6 376.3 30.6 376.3 100.3 412.5 100.3"/>
      <polygon class="st0" points="376.3 30.6 356.8 61.3 356.8 100.3 376.3 100.3 376.3 30.6"/>
      <rect class="st3" x="1.4" y="128.2" width="67.8" height="11.6"/>
      <polygon class="st3" points="100.3 125.6 86.4 125.6 86.4 201.1 100.3 201.1 100.3 163.6 110.2 163.6 110.2 152 100.3 152 100.3 125.6"/>
      <polygon class="st3" points="15.3 146.9 1.4 146.9 1.4 197.3 70.1 197.3 70.1 185.7 15.3 185.7 15.3 146.9"/>
      <path class="st3" d="M162.2,137.4c14.1,0,25.6,10.6,25.6,23.7h13.9c0-19.5-17.8-35.3-39.6-35.3s-39.6,15.9-39.6,35.3h13.9c0-13.1,11.5-23.7,25.6-23.7Z"/>
      <polygon class="st3" points="223.2 125.6 209.3 125.6 209.3 163.9 223.2 163.9 223.2 152 232.5 152 232.5 140.4 223.2 140.4 223.2 125.6"/>
      <polygon class="st3" points="139.1 168.1 125.1 168.1 125.1 201.1 225.1 201.1 225.1 189.4 139.1 189.4 139.1 168.1"/>
      <polygon class="st3" points="424.9 152.1 438.8 152.1 438.8 127 367.2 127 367.2 138.7 424.9 138.7 424.9 152.1"/>
      <rect class="st3" x="454.3" y="125.6" width="13.9" height="27.3"/>
      <polygon class="st3" points="382.3 190.6 382.3 185 468.2 185 468.2 159.1 368.2 159.1 368.2 169.5 454.3 169.5 454.3 175.1 368.4 175.1 368.4 201.1 469.4 201.1 469.4 190.6 382.3 190.6"/>
      <polygon class="st3" points="337 140.4 332.3 140.4 332.3 125.8 319.3 125.8 319.3 161.5 332.3 161.5 332.3 152 337 152 337 161.9 350 161.9 350 125.6 337 125.6 337 140.4"/>
      <polygon class="st3" points="252.5 179.7 336.1 179.7 336.1 201.6 350 201.6 350 168.1 252.5 168.1 252.5 179.7"/>
      <path class="st3" d="M259.5,161.1c0-11.6,8.1-20.9,19.9-20.9s19.9,9.3,19.9,20.9h13.3c0-8-3.3-15.2-8.6-20.7h8.9v-11.1h-26.6v-5.8h-14v5.8h-26.6v11.1h8.9c-5.3,5.4-8.6,12.7-8.6,20.7h13.3Z"/>
    </g>
  </g>
</svg>