<svg width="53" height="29" viewBox="0 0 53 29" fill="none" xmlns="http://www.w3.org/2000/svg">
<g clip-path="url(#clip0_14_155)">
<rect width="53" height="29" fill="white"/>
<path d="M44.6396 1.71164L43.1628 0.247839C42.9987 0.0851948 42.7799 0 42.5533 0H22.6285C17.6981 0 13.6975 3.75632 13.6975 8.39556C13.6975 9.23202 13.8303 10.0375 14.0726 10.7965H16.026C15.7212 10.053 15.5572 9.23976 15.5572 8.39556C15.5572 4.7012 18.7295 1.71164 22.6363 1.71164H44.6474H44.6396Z" fill="#06AC50"/>
<path d="M50.4057 16.7984H52.9999L45.616 8.06984L47.5928 5.7386C47.8819 5.39782 47.8585 4.8944 47.5381 4.5846L46.3661 3.42285H22.6282C19.745 3.42285 17.4087 5.64566 17.4087 8.39513C17.4087 9.27031 17.6431 10.0835 18.0572 10.7961H20.3544C19.6825 10.1997 19.2605 9.34002 19.2605 8.39513C19.2605 6.59829 20.7686 5.13449 22.6282 5.13449H40.3183L30.4497 16.7907H33.0438L42.9124 5.13449H45.5066L35.6379 16.7907H38.2321L41.7326 12.6549L45.2331 16.7907H47.8272L43.0297 11.1291L44.3267 9.5956L50.4214 16.7907L50.4057 16.7984Z" fill="#06AC50"/>
<path d="M31.1921 5.99463H29.2387C29.5434 6.73815 29.7075 7.55137 29.7075 8.39557C29.7075 12.0899 26.5351 15.0795 22.6283 15.0795H3.45361L4.93039 16.5433C5.09448 16.7059 5.31326 16.7911 5.53986 16.7911H22.6283C27.5587 16.7911 31.5593 13.0348 31.5593 8.39557C31.5593 7.55912 31.4265 6.75364 31.1843 5.99463H31.1921Z" fill="#00479C"/>
<path d="M27.1993 5.99462H24.9021C25.5741 6.59098 25.996 7.45067 25.996 8.39556C25.996 10.1924 24.488 11.6562 22.6283 11.6562H5.56332V0H3.71149V11.6562H1.85965V0H0V11.3077C0 11.5323 0.0937638 11.7491 0.250037 11.9118L1.72682 13.3756H22.6283C25.5116 13.3756 27.8479 11.1528 27.8479 8.40331C27.8479 7.52812 27.6134 6.7149 27.1993 6.00236V5.99462Z" fill="#00479C"/>
<path d="M28.4185 20.2764H28.9967L30.325 22.0112V20.2764H30.9423V23.0878H30.4109L29.0357 21.2987V23.0878H28.4185V20.2764Z" fill="#00479C"/>
<path d="M31.364 22.4678C31.364 21.9876 31.7234 21.7708 32.2391 21.7708C32.4579 21.7708 32.6142 21.8095 32.7705 21.856V21.8172C32.7705 21.5616 32.6142 21.4222 32.3017 21.4222C32.0672 21.4222 31.9032 21.4687 31.7 21.5384L31.5437 21.0737C31.786 20.973 32.0204 20.9033 32.3876 20.9033C32.7236 20.9033 32.9658 20.9885 33.1221 21.1434C33.2862 21.3061 33.3565 21.5384 33.3565 21.8327V23.0797H32.7627V22.8473C32.6142 23.01 32.4032 23.1184 32.1063 23.1184C31.7 23.1184 31.364 22.886 31.364 22.4601V22.4678ZM32.7783 22.3284V22.22C32.6767 22.1735 32.5361 22.1425 32.3876 22.1425C32.1219 22.1425 31.9657 22.2432 31.9657 22.4368C31.9657 22.6072 32.1063 22.7079 32.3017 22.7079C32.5908 22.7079 32.7861 22.553 32.7861 22.3284H32.7783Z" fill="#00479C"/>
<path d="M33.833 20.9347H34.4503V21.2367C34.5909 21.0586 34.7785 20.8882 35.091 20.8882C35.3723 20.8882 35.5911 21.0121 35.7005 21.229C35.888 21.0044 36.1146 20.8882 36.4115 20.8882C36.8725 20.8882 37.146 21.1593 37.146 21.6782V23.08H36.5287V21.8795C36.5287 21.593 36.3959 21.4381 36.1693 21.4381C35.9427 21.4381 35.7942 21.5852 35.7942 21.8795V23.08H35.177V21.8795C35.177 21.593 35.0441 21.4381 34.8175 21.4381C34.5909 21.4381 34.4425 21.5852 34.4425 21.8795V23.08H33.8252V20.9269L33.833 20.9347Z" fill="#00479C"/>
<path d="M38.9902 20.9346H39.631L38.7949 23.1419C38.6308 23.5834 38.4511 23.746 38.0838 23.746C37.8573 23.746 37.6932 23.6918 37.5369 23.5988L37.74 23.1574C37.8182 23.2038 37.9198 23.2426 38.0057 23.2426C38.1073 23.2426 38.1698 23.2116 38.2167 23.1032L37.365 20.9423H38.0135L38.5058 22.4061L38.9824 20.9423L38.9902 20.9346Z" fill="#00479C"/>
<path d="M39.7012 22.4678C39.7012 21.9876 40.0606 21.7708 40.5763 21.7708C40.7951 21.7708 40.9514 21.8095 41.1076 21.856V21.8172C41.1076 21.5616 40.9514 21.4222 40.6388 21.4222C40.4044 21.4222 40.2403 21.4687 40.0372 21.5384L39.8809 21.0737C40.1231 20.973 40.3575 20.9033 40.7248 20.9033C41.0607 20.9033 41.303 20.9885 41.4592 21.1434C41.6233 21.3061 41.6937 21.5384 41.6937 21.8327V23.0797H41.0998V22.8473C40.9514 23.01 40.7404 23.1184 40.4435 23.1184C40.0372 23.1184 39.7012 22.886 39.7012 22.4601V22.4678ZM41.1154 22.3284V22.22C41.0139 22.1735 40.8732 22.1425 40.7248 22.1425C40.4591 22.1425 40.3028 22.2432 40.3028 22.4368C40.3028 22.6072 40.4435 22.7079 40.6388 22.7079C40.9279 22.7079 41.1233 22.553 41.1233 22.3284H41.1154Z" fill="#00479C"/>
<path d="M42.1702 20.9347H42.7874V21.2367C42.9281 21.0586 43.1078 20.8882 43.4204 20.8882C43.8892 20.8882 44.1548 21.1902 44.1548 21.6859V23.08H43.5376V21.8795C43.5376 21.593 43.3969 21.4381 43.1625 21.4381C42.9281 21.4381 42.7796 21.5852 42.7796 21.8795V23.08H42.1624V20.9269L42.1702 20.9347Z" fill="#00479C"/>
<path d="M44.6472 23.5137L44.8582 23.0568C45.0848 23.1807 45.3036 23.2504 45.5927 23.2504C46.0146 23.2504 46.21 23.049 46.21 22.6618V22.5611C46.0302 22.778 45.8271 22.9096 45.4989 22.9096C44.991 22.9096 44.5378 22.5456 44.5378 21.9028C44.5378 21.2522 45.0067 20.8882 45.4989 20.8882C45.8349 20.8882 46.0303 21.0276 46.2022 21.2057V20.9269H46.8194V22.5921C46.8194 22.9793 46.7257 23.2581 46.546 23.4363C46.3428 23.6377 46.0302 23.7228 45.6083 23.7228C45.2567 23.7228 44.9207 23.6454 44.6472 23.4982V23.5137ZM46.21 21.9028C46.21 21.6007 45.9756 21.3994 45.6786 21.3994C45.3817 21.3994 45.1551 21.6007 45.1551 21.895C45.1551 22.1971 45.3817 22.3985 45.6786 22.3985C45.9756 22.3985 46.21 22.1971 46.21 21.9028Z" fill="#00479C"/>
<path d="M46.9915 23.715V23.2348C47.0383 23.2426 47.0774 23.2503 47.1242 23.2503C47.257 23.2503 47.3429 23.1806 47.3429 23.0025V20.9346H47.9599V23.049C47.9599 23.5214 47.7178 23.7383 47.2648 23.7383C47.1477 23.7383 47.0852 23.7305 46.9993 23.715H46.9915ZM47.3195 20.1523H47.9677V20.6945H47.3195V20.1523Z" fill="#00479C"/>
<path d="M48.4602 22.3287V20.9346H49.0775V22.135C49.0775 22.4216 49.2181 22.5765 49.4525 22.5765C49.6869 22.5765 49.8354 22.4294 49.8354 22.135V20.9346H50.4527V23.0877H49.8354V22.7856C49.6948 22.9638 49.515 23.1341 49.2025 23.1341C48.7337 23.1341 48.468 22.8321 48.468 22.3364L48.4602 22.3287Z" fill="#00479C"/>
<path d="M28.2932 26.5112C28.2932 25.7057 28.9027 25.0474 29.77 25.0474C30.3013 25.0474 30.6217 25.2255 30.8873 25.4811L30.4889 25.938C30.2701 25.7444 30.0435 25.6205 29.7622 25.6205C29.2855 25.6205 28.9417 26.0155 28.9417 26.4957C28.9417 26.9836 29.2777 27.3863 29.7622 27.3863C30.0825 27.3863 30.2857 27.2547 30.5045 27.0533L30.903 27.4483C30.6139 27.7581 30.2857 27.9517 29.7387 27.9517C28.9027 27.9517 28.2854 27.3166 28.2854 26.5034L28.2932 26.5112Z" fill="#00479C"/>
<path d="M31.2937 24.978H31.9419V25.5202H31.2937V24.978ZM31.3093 25.7525H31.9263V27.9056H31.3093V25.7525Z" fill="#00479C"/>
<path d="M32.5517 27.3016V26.2793H32.2939V25.7603H32.5517V25.2104H33.1687V25.7603H33.6763V26.2793H33.1687V27.2009C33.1687 27.3403 33.2312 27.41 33.3639 27.41C33.4811 27.41 33.5748 27.379 33.6685 27.3326V27.8205C33.5358 27.898 33.3874 27.9444 33.1843 27.9444C32.8094 27.9444 32.5517 27.7973 32.5517 27.3016Z" fill="#00479C"/>
<path d="M35.4976 25.752H36.1383L35.3022 27.9593C35.1381 28.4007 34.9584 28.5634 34.5912 28.5634C34.3646 28.5634 34.2005 28.5092 34.0442 28.4162L34.2474 27.9748C34.3255 28.0212 34.4271 28.06 34.513 28.06C34.6146 28.06 34.6771 28.029 34.724 27.9205L33.8723 25.7597H34.5208L35.0131 27.2235L35.4897 25.7597L35.4976 25.752Z" fill="#00479C"/>
<path d="M15.6115 20.4931C15.6115 20.3072 15.4553 20.1523 15.2677 20.1523H14.3926V24.8535C14.041 24.6909 13.6347 24.598 13.2049 24.598C11.8766 24.598 10.7983 25.4886 10.7983 26.5807C10.7983 27.6727 11.8766 28.5634 13.2049 28.5634C14.5333 28.5634 15.6115 27.6727 15.6115 26.5807V23.5137H16.8149V22.6307H15.6115V21.9647H16.8149V21.0817H15.6115V20.5009V20.4931ZM13.2049 27.7114C12.5486 27.7114 12.0173 27.208 12.0173 26.5807C12.0173 25.9533 12.5486 25.4499 13.2049 25.4499C13.8613 25.4499 14.3926 25.9533 14.3926 26.5807C14.3926 27.208 13.8613 27.7114 13.2049 27.7114Z" fill="#00479C"/>
<path d="M13.705 22.2982C13.705 21.1751 12.6971 20.2612 11.4469 20.2612C10.1967 20.2612 9.18872 21.1751 9.18872 22.2982C9.18872 23.4212 10.1967 24.3351 11.4469 24.3351C12.6971 24.3351 13.705 23.4212 13.705 22.2982ZM10.4077 22.2982C10.4077 21.6398 10.8765 21.1054 11.4469 21.1054C12.0173 21.1054 12.4861 21.6398 12.4861 22.2982C12.4861 22.9565 12.0173 23.4909 11.4469 23.4909C10.8765 23.4909 10.4077 22.9565 10.4077 22.2982Z" fill="#00479C"/>
<path d="M17.5103 25.6905H20.6592V28.4323H21.8781V25.6905H25.027V24.8076H17.5103V25.6905Z" fill="#00479C"/>
<path d="M7.10247 20.4931C7.10247 20.3072 6.95401 20.1523 6.75867 20.1523H5.88354V23.0412C5.88354 23.0412 5.50849 23.2348 4.53178 23.2348H2.47679C2.28927 23.2348 2.13299 23.0877 2.13299 22.8941V20.346H0.914062V22.956C0.914062 23.5989 1.43758 24.11 2.0783 24.11H4.32863C5.44598 24.11 5.87573 23.8932 5.87573 23.8932V24.7993H2.14081V27.2622C2.14081 27.9051 2.66432 28.4162 3.30504 28.4162H7.10247V22.7237H8.30578V21.8407H7.10247V20.4776V20.4931ZM5.89136 27.5488H3.70354C3.51601 27.5488 3.35974 27.4016 3.35974 27.208V25.69H5.89136V27.5411V27.5488Z" fill="#00479C"/>
<path d="M21.8939 21.2369H24.113V20.354H18.4246V21.2369H20.6437C20.5343 23.1964 18.073 23.1577 18.073 23.1577L18.4324 24.0174C20.4718 23.8547 21.2688 22.6698 21.2688 22.6698C21.2688 22.6698 22.0658 23.8547 24.1051 24.0174L24.4646 23.1577C24.4646 23.1577 22.0033 23.1887 21.8939 21.2369Z" fill="#00479C"/>
</g>
<defs>
<clipPath id="clip0_14_155">
<rect width="53" height="29" fill="white"/>
</clipPath>
</defs>
</svg>
