<?xml version="1.0" encoding="UTF-8"?>
<svg id="_레이어_1" xmlns="http://www.w3.org/2000/svg" version="1.1" viewBox="0 0 51.6 27.8">
  <!-- Generator: Adobe Illustrator 30.0.0, SVG Export Plug-In . SVG Version: 2.1.1 Build 123)  -->
  <defs>
    <style>
      .st0 {
        fill: #06ac50;
      }

      .st1 {
        fill: #00479c;
      }
    </style>
  </defs>
  <path class="st0" d="M43.4,1.7l-1.4-1.4c-.2-.2-.4-.2-.6-.2h-19.4C17.2.1,13.3,3.8,13.3,8.3s.1,1.6.4,2.3h1.9c-.3-.7-.5-1.5-.5-2.3,0-3.6,3.1-6.5,6.9-6.5h21.4Z"/>
  <path class="st0" d="M49.1,16.3h2.5l-7.2-8.5,1.9-2.3c.3-.3.3-.8,0-1.1l-1.1-1.1h-23.1c-2.8,0-5.1,2.2-5.1,4.8s.2,1.6.6,2.3h2.2c-.7-.6-1.1-1.4-1.1-2.3,0-1.7,1.5-3.2,3.3-3.2h17.2l-9.6,11.3h2.5l9.6-11.3h2.5l-9.6,11.3h2.5l3.4-4,3.4,4h2.5l-4.7-5.5,1.3-1.5,5.9,7h.2Z"/>
  <path class="st1" d="M30.4,5.8h-1.9c.3.7.5,1.5.5,2.3,0,3.6-3.1,6.5-6.9,6.5H3.4l1.4,1.4c.2.2.4.2.6.2h16.6c4.8,0,8.7-3.7,8.7-8.2s-.1-1.6-.4-2.3h0Z"/>
  <path class="st1" d="M26.5,5.8h-2.2c.7.6,1.1,1.4,1.1,2.3,0,1.7-1.5,3.2-3.3,3.2H5.4V0h-1.8v11.3h-1.8V0H0v11c0,.2,0,.4.2.6l1.4,1.4h20.3c2.8,0,5.1-2.2,5.1-4.8s-.2-1.6-.6-2.3h.1Z"/>
  <path class="st1" d="M27.7,19.7h.6l1.3,1.7v-1.7h.6v2.7h-.5l-1.3-1.7v1.7h-.6v-2.7h-.1Z"/>
  <path class="st1" d="M30.5,21.9c0-.5.3-.7.9-.7s.4,0,.5,0h0c0-.3-.2-.4-.5-.4s-.4,0-.6.1l-.2-.5c.2,0,.5-.2.8-.2s.6,0,.7.2c.2.2.2.4.2.7v1.2h-.6v-.2c-.1.2-.3.3-.6.3s-.7-.2-.7-.6h.1ZM31.9,21.7h0c0-.2-.2-.2-.4-.2-.3,0-.4,0-.4.3s.1.3.3.3c.3,0,.5-.2.5-.4h0Z"/>
  <path class="st1" d="M32.9,20.4h.6v.3c0-.2.3-.3.6-.3s.5.1.6.3c.2-.2.4-.3.7-.3s.7.3.7.8v1.4h-.6v-1.2c0-.3,0-.4-.3-.4s-.4.1-.4.4v1.2h-.6v-1.2c0-.3,0-.4-.3-.4s-.4.1-.4.4v1.2h-.6v-2.1h0Z"/>
  <path class="st1" d="M37.9,20.4h.6l-.8,2.1c-.2.4-.3.6-.7.6s-.4,0-.5-.1l.2-.4h.3c0,0,.2,0,.2-.1l-.8-2.1h.6l.5,1.4.5-1.4h0Z"/>
  <path class="st1" d="M38.6,21.9c0-.5.3-.7.9-.7s.4,0,.5,0h0c0-.3-.2-.4-.5-.4s-.4,0-.6.1l-.2-.5c.2,0,.5-.2.8-.2s.6,0,.7.2c.2.2.2.4.2.7v1.2h-.6v-.2c0,.2-.3.3-.6.3s-.7-.2-.7-.6h0ZM40,21.7h0c0-.2-.2-.2-.4-.2-.3,0-.4,0-.4.3s0,.3.3.3c.3,0,.5-.2.5-.4h0Z"/>
  <path class="st1" d="M41,20.4h.6v.3c0-.2.3-.3.6-.3.5,0,.7.3.7.8v1.4h-.6v-1.2c0-.3,0-.4-.4-.4s-.4.1-.4.4v1.2h-.6v-2.1h.1Z"/>
  <path class="st1" d="M43.4,22.9l.2-.4c.2.1.4.2.7.2s.6-.2.6-.6h0c-.2.1-.4.2-.7.2-.5,0-.9-.4-.9-1s.5-1,.9-1,.5.1.7.3v-.3h.6v1.6c0,.4,0,.6-.3.8-.2.2-.5.3-.9.3s-.7,0-.9-.2h0ZM45,21.3c0-.3-.2-.5-.5-.5s-.5.2-.5.5.2.5.5.5.5-.2.5-.5Z"/>
  <path class="st1" d="M45.7,23.1v-.5h0c0,0,.2,0,.2-.2v-2h.6v2.1c0,.5-.2.7-.7.7s-.2,0-.3,0h.1ZM46,19.6h.6v.5h-.6v-.5Z"/>
  <path class="st1" d="M47.2,21.7v-1.4h.6v1.2c0,.3,0,.4.4.4s.4-.1.4-.4v-1.2h.6v2.1h-.6v-.3c0,.2-.3.3-.6.3-.5,0-.7-.3-.7-.8h-.1Z"/>
  <path class="st1" d="M27.5,25.8c0-.8.6-1.4,1.4-1.4s.8.2,1.1.4l-.4.4c-.2-.2-.4-.3-.7-.3-.5,0-.8.4-.8.9s.3.9.8.9.5-.1.7-.3l.4.4c-.3.3-.6.5-1.1.5-.8,0-1.4-.6-1.4-1.4h0Z"/>
  <path class="st1" d="M30.5,24.3h.6v.5h-.6v-.5ZM30.5,25.1h.6v2.1h-.6v-2.1Z"/>
  <path class="st1" d="M31.7,26.6v-1h-.3v-.5h.3v-.5h.6v.5h.5v.5h-.5v.9c0,.1,0,.2.2.2h.3v.5c0,0-.3.1-.5.1-.4,0-.6-.1-.6-.6h0Z"/>
  <path class="st1" d="M34.5,25.1h.6l-.8,2.1c-.2.4-.3.6-.7.6s-.4,0-.5-.1l.2-.4h.3c0,0,.2,0,.2-.1l-.8-2.1h.6l.5,1.4.5-1.4h0Z"/>
  <path class="st1" d="M15.2,19.9c0-.2-.2-.3-.3-.3h-.9v4.6c-.3-.2-.7-.2-1.2-.2-1.3,0-2.3.9-2.3,1.9s1,1.9,2.3,1.9,2.3-.9,2.3-1.9v-3h1.2v-.9h-1.2v-.6h1.2v-.9h-1.2v-.6h0ZM12.9,27c-.6,0-1.2-.5-1.2-1.1s.5-1.1,1.2-1.1,1.2.5,1.2,1.1-.5,1.1-1.2,1.1Z"/>
  <path class="st1" d="M13.3,21.7c0-1.1-1-2-2.2-2s-2.2.9-2.2,2,1,2,2.2,2,2.2-.9,2.2-2ZM10.1,21.7c0-.6.5-1.2,1-1.2s1,.5,1,1.2-.5,1.2-1,1.2-1-.5-1-1.2Z"/>
  <path class="st1" d="M17,25h3.1v2.7h1.2v-2.7h3.1v-.9h-7.3v.9h-.1Z"/>
  <path class="st1" d="M6.9,19.9c0-.2,0-.3-.3-.3h-.9v2.8s-.4.2-1.3.2h-2c-.2,0-.3-.1-.3-.3v-2.5H.9v2.5c0,.6.5,1.1,1.1,1.1h2.2c1.1,0,1.5-.2,1.5-.2v.9h-3.6v2.4c0,.6.5,1.1,1.1,1.1h3.7v-5.5h1.2v-.9h-1.2v-1.3h0ZM5.7,26.8h-2.1c-.2,0-.3-.1-.3-.3v-1.5h2.5v1.8h-.1Z"/>
  <path class="st1" d="M21.3,20.7h2.2v-.9h-5.5v.9h2.2c-.1,1.9-2.5,1.9-2.5,1.9l.3.8c2-.2,2.8-1.3,2.8-1.3,0,0,.8,1.2,2.8,1.3l.3-.8s-2.4,0-2.5-1.9h0Z"/>
</svg>