<?xml version="1.0" encoding="UTF-8"?>
<svg id="_레이어_1" data-name="레이어_1" xmlns="http://www.w3.org/2000/svg" version="1.1" viewBox="0 0 109.8 13.8">
  <!-- Generator: Adobe Illustrator 30.0.0, SVG Export Plug-In . SVG Version: 2.1.1 Build 123)  -->
  <defs>
    <style>
      .st0 {
        fill: #0a090f;
      }
    </style>
  </defs>
  <path class="st0" d="M9.4,0l.4,3.3h-5.8v2.2h5.2v3.2h-5.2v5.1H0V0h9.4Z"/>
  <path class="st0" d="M24.4,13.4v.4h-4.4l-3.1-4.8h-.7v4.8h-4.1V0h5.4c3.7,0,5.5,1.5,5.5,4.6s-.8,3-2.3,3.7l3.6,5.1ZM16.2,6h1.1c1.2,0,1.8-.5,1.8-1.4s-.6-1.5-1.8-1.5h-1.1v2.9Z"/>
  <path class="st0" d="M25.2,6.9c0-4.3,3.3-7.2,7.6-7.2s7.6,3,7.6,7.2-3.3,7.2-7.6,7.2-7.6-3.1-7.6-7.2ZM36.2,6.9c0-2.1-1.5-3.6-3.4-3.6s-3.4,1.5-3.4,3.6,1.5,3.6,3.4,3.6,3.4-1.5,3.4-3.6Z"/>
  <path class="st0" d="M42.9,0h4.2l3.2,4.4c.6.8,1.1,1.6,2,3h0c-.3-1.4-.3-2.2-.3-3.4V0h4v13.8h-3.7l-3.6-4.7c-.6-.8-1.2-1.6-2.1-3h0c.3,1.4.3,2.2.3,3.4v4.3h-4V0Z"/>
  <path class="st0" d="M58.1,3.6V0h12.3v3.6h-4.1v10.2h-4.1V3.6h-4.1Z"/>
  <path class="st0" d="M81.6,8.8l-1.6,1.7v3.2h-4V0h4v2c0,1.1,0,2.8-.2,4h0c.7-1,1.2-1.8,2-2.7L84.5,0h4.8l-5,5.7,5.1,8h-4.8l-3.1-4.9Z"/>
  <path class="st0" d="M95.3,0v13.8h-4V0h4Z"/>
  <path class="st0" d="M97.5,3.6V0h12.3v3.6h-4.1v10.2h-4.1V3.6h-4.1Z"/>
</svg>