<?xml version="1.0" encoding="UTF-8"?>
<svg id="_레이어_1" data-name="레이어_1" xmlns="http://www.w3.org/2000/svg" version="1.1" viewBox="0 0 136.9 20">
  <!-- Generator: Adobe Illustrator 30.0.0, SVG Export Plug-In . SVG Version: 2.1.1 Build 123)  -->
  <defs>
    <style>
      .st0 {
        fill: #00ade6;
      }

      .st1 {
        fill: #005e98;
      }
    </style>
  </defs>
  <path class="st1" d="M27.4,12.7l-.8.7c-.5-.5-1-.8-1.7-.8s-1,.2-1.4.5c-.4.4-.6.8-.6,1.3s.2,1,.6,1.4c.4.4.9.6,1.4.6s.7,0,.9-.2c.3-.2.5-.4.6-.7h-1.6v-1h2.9v.2c0,.5-.1,1-.4,1.4-.3.4-.6.8-1,1-.4.2-.9.4-1.4.4s-1.1-.1-1.6-.4c-.5-.3-.8-.6-1.1-1.1-.3-.5-.4-1-.4-1.5s.2-1.4.7-1.9c.6-.6,1.4-1,2.3-1s1,0,1.4.3c.4.2.7.4,1.1.8"/>
  <path class="st1" d="M28,13.3h1.1l1.1,2.6,1.2-2.6h1.1l-2.6,5.7h-1.1l.8-1.8-1.6-3.8Z"/>
  <path class="st1" d="M37,15.6h-3.4c0,.3.2.5.4.7.2.2.5.3.8.3s.7-.1,1-.4l.9.4c-.2.3-.5.5-.8.7-.3.1-.7.2-1.1.2-.7,0-1.2-.2-1.6-.6-.4-.4-.6-.9-.6-1.5s.2-1.2.6-1.6c.4-.4.9-.6,1.6-.6s1.2.2,1.6.6c.4.4.6,1,.6,1.7v.2h0ZM35.9,14.8c0-.2-.2-.4-.4-.6s-.4-.2-.7-.2-.6,0-.8.2c-.1.1-.3.3-.4.5h2.3"/>
  <path class="st1" d="M39.6,13.1c.4,0,.8,0,1.1.3.3.2.6.5.8.8.2.3.3.7.3,1.1s0,.8-.3,1.1c-.2.3-.5.6-.8.8-.3.2-.7.3-1.1.3-.6,0-1.1-.2-1.5-.6-.4-.4-.6-.9-.6-1.5s.2-1.2.7-1.6c.4-.4.9-.6,1.4-.6h0ZM39.6,14.1c-.3,0-.6.1-.8.3-.2.2-.3.5-.3.9s.1.7.3.9c.2.2.5.3.8.3s.6-.1.8-.3c.2-.2.3-.5.3-.9s-.1-.6-.3-.9c-.2-.2-.5-.3-.8-.3"/>
  <path class="st1" d="M42.5,13.3h1.1v.4c.2-.2.5-.3.6-.4.2,0,.4-.1.6-.1.4,0,.8.1,1.1.4.2.2.4.6.4,1.1v2.7h-1.1v-1.8c0-.5,0-.8,0-1,0-.2-.1-.3-.2-.4-.1,0-.2-.1-.4-.1s-.4,0-.5.2c-.1.1-.3.3-.3.6,0,.1,0,.4,0,.8v1.7h-1.1v-4.2"/>
  <path class="st1" d="M50.1,13.3h1v3.6c0,.7-.1,1.2-.4,1.5-.4.4-1,.7-1.7.7s-.7,0-1-.2c-.3-.1-.5-.2-.7-.4-.2-.2-.3-.4-.4-.7h1.2c.1.1.2.2.4.3.2,0,.4,0,.6,0s.5,0,.7-.1c.2,0,.3-.2.4-.3,0-.1.1-.4.1-.7-.2.2-.4.3-.6.4-.2,0-.4.1-.7.1-.6,0-1-.2-1.4-.6-.4-.4-.6-.9-.6-1.5s.2-1.2.6-1.6c.4-.4.8-.5,1.3-.5s.5,0,.7.1c.2,0,.4.2.6.4v-.5h0ZM49,14.1c-.3,0-.6.1-.8.3-.2.2-.3.5-.3.8s.1.6.3.8c.2.2.5.3.8.3s.6-.1.8-.3c.2-.2.3-.5.3-.8s-.1-.6-.3-.8c-.2-.2-.5-.3-.8-.3"/>
  <path class="st1" d="M55.1,13.3h1v3.6c0,.7-.1,1.2-.4,1.5-.4.4-1,.7-1.7.7s-.7,0-1-.2c-.3-.1-.5-.2-.7-.4-.2-.2-.3-.4-.4-.7h1.2c.1.1.2.2.4.3.2,0,.4,0,.6,0s.5,0,.7-.1c.2,0,.3-.2.4-.3,0-.1.1-.4.1-.7-.2.2-.4.3-.6.4-.2,0-.4.1-.7.1-.6,0-1-.2-1.4-.6-.4-.4-.6-.9-.6-1.5s.2-1.2.6-1.6c.4-.4.8-.5,1.3-.5s.5,0,.7.1c.2,0,.4.2.6.4v-.5h0ZM54,14.1c-.3,0-.6.1-.8.3-.2.2-.3.5-.3.8s.1.6.3.8c.2.2.5.3.8.3s.6-.1.8-.3c.2-.2.3-.5.3-.8s-.1-.6-.3-.8c-.2-.2-.5-.3-.8-.3"/>
  <path class="st1" d="M57.4,11.5c.2,0,.3,0,.5.2.1.1.2.3.2.5s0,.4-.2.5c-.1.1-.3.2-.5.2s-.3,0-.5-.2c-.1-.1-.2-.3-.2-.5s0-.3.2-.5c.1-.1.3-.2.5-.2h0ZM56.9,13.3h1.1v4.2h-1.1v-4.2Z"/>
  <path class="st1" d="M60.8,11.8h1.3c.8,0,1.4.1,1.8.3.4.2.7.5,1,1,.3.5.4,1,.4,1.6s0,.8-.2,1.2c-.1.4-.3.7-.6.9-.2.2-.5.4-.8.5-.3,0-.8.1-1.5.1h-1.3v-5.6ZM61.9,12.8v3.6h.5c.5,0,.8,0,1.1-.2.2-.1.4-.3.5-.6s.2-.6.2-1c0-.6-.2-1.1-.5-1.4-.3-.3-.8-.4-1.5-.4h-.4"/>
  <path class="st1" d="M69.1,13.3h1.1v4.2h-1.1v-.4c-.2.2-.4.3-.6.4-.2,0-.4.1-.7.1-.5,0-1-.2-1.4-.6-.4-.4-.6-.9-.6-1.6s.2-1.2.6-1.6c.4-.4.8-.6,1.4-.6s.5,0,.7.1c.2,0,.4.2.6.4v-.5h0ZM68,14.1c-.3,0-.6.1-.8.3-.2.2-.3.5-.3.9s.1.7.3.9c.2.2.5.4.8.4s.6-.1.8-.3c.2-.2.3-.5.3-.9s-.1-.7-.3-.9c-.2-.2-.5-.3-.8-.3Z"/>
  <path class="st1" d="M75.2,15.6h-3.4c0,.3.2.5.4.7.2.2.5.3.8.3s.7-.1,1-.4l.9.4c-.2.3-.5.5-.8.7-.3.1-.7.2-1.1.2-.7,0-1.2-.2-1.6-.6-.4-.4-.6-.9-.6-1.5s.2-1.2.6-1.6c.4-.4.9-.6,1.5-.6s1.2.2,1.6.6c.4.4.6,1,.6,1.7v.2h0ZM74.2,14.8c0-.2-.2-.4-.4-.6s-.4-.2-.7-.2-.6,0-.8.2c-.1.1-.3.3-.4.5h2.3"/>
  <path class="st1" d="M75.8,13.3h1.1v4.3c0,.4,0,.7-.1.9,0,.2-.2.3-.4.4-.2.1-.4.2-.6.2s-.5,0-.8-.2v-.8c.2,0,.3.1.4.1s.2,0,.3-.1c0,0,.1-.2.1-.4v-4.4h0ZM76.4,11.5c.2,0,.3,0,.5.2.1.1.2.3.2.5s0,.3-.2.5c-.1.1-.3.2-.5.2s-.3,0-.5-.2c-.1-.1-.2-.3-.2-.5s0-.3.2-.5c.1-.1.3-.2.5-.2"/>
  <path class="st1" d="M78.1,11.5c.2,0,.3,0,.5.2.1.1.2.3.2.5s0,.4-.2.5c-.1.1-.3.2-.5.2s-.3,0-.5-.2c-.1-.1-.2-.3-.2-.5s0-.3.2-.5c.1-.1.3-.2.5-.2ZM77.6,13.3h1.1v4.2h-1.1v-4.2Z"/>
  <path class="st1" d="M79.4,13.3h1.1v.4c.2-.2.5-.3.6-.4.2,0,.4-.1.6-.1.4,0,.8.1,1.1.4.2.2.4.6.4,1.1v2.7h-1.1v-1.8c0-.5,0-.8,0-1,0-.2-.1-.3-.2-.4-.1,0-.2-.1-.4-.1s-.4,0-.5.2c-.1.1-.3.3-.3.6,0,.1,0,.4,0,.8v1.7h-1.1v-4.2"/>
  <path class="st1" d="M85.5,11.8h3.1v1.1h-1v4.6h-1.1v-4.6h-1v-1.1Z"/>
  <path class="st1" d="M93.2,15.6h-3.4c0,.3.2.5.4.7.2.2.5.3.8.3s.7-.1,1-.4l.9.4c-.2.3-.5.5-.8.7-.3.1-.7.2-1.1.2-.7,0-1.2-.2-1.6-.6-.4-.4-.6-.9-.6-1.5s.2-1.2.6-1.6c.4-.4.9-.6,1.6-.6s1.2.2,1.6.6c.4.4.6,1,.6,1.7v.2h0ZM92.2,14.8c0-.2-.2-.4-.4-.6-.2-.1-.4-.2-.7-.2s-.6,0-.8.2c-.1.1-.3.3-.4.5h2.3"/>
  <path class="st1" d="M98,14.1l-.9.5c-.2-.2-.3-.3-.5-.4-.2,0-.3,0-.6,0-.4,0-.7.1-.9.4-.2.2-.4.5-.4.9s.1.6.4.9c.2.2.5.3.9.3s.8-.2,1.1-.5l.8.6c-.4.6-1.1.9-1.9.9s-1.3-.2-1.7-.6c-.4-.4-.6-.9-.6-1.5s.1-.8.3-1.1c.2-.3.5-.6.8-.8.4-.2.8-.3,1.2-.3s.8,0,1.1.2c.3.2.6.4.8.7"/>
  <path class="st1" d="M98.7,11.7h1.1v2c.2-.2.4-.3.6-.4.2,0,.4-.1.6-.1.4,0,.8.1,1.1.4.2.2.4.6.4,1.1v2.7h-1.1v-1.8c0-.5,0-.8,0-1,0-.2-.1-.3-.2-.4-.1,0-.2-.1-.4-.1s-.4,0-.5.2c-.1.1-.3.3-.3.6,0,.1,0,.4,0,.9v1.7h-1.1v-5.7"/>
  <path class="st1" d="M103.3,13.3h1.1v.4c.2-.2.5-.3.6-.4.2,0,.4-.1.6-.1.4,0,.8.1,1.1.4.2.2.4.6.4,1.1v2.7h-1.1v-1.8c0-.5,0-.8,0-1,0-.2-.1-.3-.2-.4-.1,0-.2-.1-.4-.1s-.4,0-.5.2c-.2.1-.3.3-.3.6,0,.1,0,.4,0,.8v1.7h-1.1v-4.2"/>
  <path class="st1" d="M109.8,13.1c.4,0,.8,0,1.1.3.3.2.6.5.8.8.2.3.3.7.3,1.1s0,.8-.3,1.1c-.2.3-.5.6-.8.8-.3.2-.7.3-1.1.3-.6,0-1.1-.2-1.5-.6-.4-.4-.6-.9-.6-1.5s.2-1.2.7-1.6c.4-.4.9-.6,1.4-.6h0ZM109.8,14.1c-.3,0-.6.1-.8.3-.2.2-.3.5-.3.9s.1.7.3.9c.2.2.5.3.8.3s.6-.1.8-.3c.2-.2.3-.5.3-.9s-.1-.6-.3-.9c-.2-.2-.5-.3-.8-.3"/>
  <path class="st1" d="M113.7,13.3v.5c.2-.2.4-.3.6-.4.2,0,.5-.1.7-.1.5,0,1,.2,1.4.6.4.4.6.9.6,1.6s-.2,1.1-.6,1.6c-.4.4-.9.6-1.4.6s-.5,0-.7-.1c-.2,0-.4-.2-.6-.4v1.9h-1.1v-5.7h1.1ZM114.8,14.1c-.3,0-.6.1-.8.3-.2.2-.3.5-.3.9s.1.7.3.9c.2.2.5.3.8.3s.6-.1.8-.4c.2-.2.3-.5.3-.9s-.1-.6-.3-.9c-.2-.2-.5-.3-.8-.3"/>
  <path class="st1" d="M120.7,13.3h1.1v4.2h-1.1v-.4c-.2.2-.4.3-.6.4-.2,0-.4.1-.7.1-.5,0-1-.2-1.4-.6-.4-.4-.6-.9-.6-1.6s.2-1.2.6-1.6c.4-.4.8-.6,1.4-.6s.5,0,.7.1c.2,0,.4.2.6.4v-.5h0ZM119.6,14.1c-.3,0-.6.1-.8.3-.2.2-.3.5-.3.9s.1.7.3.9c.2.2.5.4.8.4s.6-.1.8-.3c.2-.2.3-.5.3-.9s-.1-.7-.3-.9c-.2-.2-.5-.3-.8-.3Z"/>
  <path class="st1" d="M122.4,13.3h.9v.5c0-.2.2-.4.4-.5.2-.1.3-.2.5-.2s.3,0,.4.1l-.3.9c-.1,0-.2,0-.3,0-.2,0-.3.1-.4.3-.1.2-.2.6-.2,1.2v1.9h-1.1v-4.2Z"/>
  <path class="st1" d="M125,11.7h1.1v3.3l1.6-1.7h1.3l-1.8,2,2,2.2h-1.3l-1.8-1.9v1.9h-1.1v-5.7Z"/>
  <path class="st1" d="M14.8,19h-4.1V1.4h4.1v17.6Z"/>
  <path class="st1" d="M8.4,1.4v17.6h-3.7V5.1H0V1.4h8.4Z"/>
  <path class="st0" d="M14.8,1.4l6.5,6.4-.5.5L14.3,1.9l.5-.5Z"/>
  <path class="st0" d="M14,2.3l6.5,6.4-.5.5-6.5-6.4.5-.5Z"/>
  <path class="st0" d="M13.1,3.1l6.5,6.4-.5.5-6.5-6.4.5-.5Z"/>
  <path class="st0" d="M12.3,4l6.5,6.4-.5.5-6.5-6.4.5-.5Z"/>
  <path class="st0" d="M14.8,8.2l3.1,3-.5.5-3.1-3,.5-.5Z"/>
  <path class="st0" d="M14,9.1l3.1,3-.5.5-3.1-3,.5-.5Z"/>
  <path class="st0" d="M13.1,9.9l3.1,3-.5.5-3.1-3,.5-.5Z"/>
  <path class="st0" d="M12.3,10.8l3.1,3-.5.5-3.1-3,.5-.5Z"/>
  <path class="st1" d="M27.6,1.4v4.9h-1.6v-3.5h-4.1v-1.4h5.7ZM29.5,7.4c.5.5.7,1.1.7,1.7s-.2,1.2-.7,1.7c-.5.5-1.1.7-1.7.7s-1.3-.2-1.7-.7c-.5-.5-.7-1-.7-1.7s.2-1.3.7-1.7c.5-.5,1.1-.7,1.7-.7s1.2.2,1.7.7ZM27.1,8.5c-.2.2-.3.4-.3.6s0,.4.3.6c.2.2.4.3.6.3s.4,0,.6-.3c.2-.2.3-.4.3-.6s0-.5-.3-.6c-.2-.2-.4-.3-.6-.3s-.5,0-.6.3ZM32.2,1.4v4.9h-1.6v-.5h-1.7v-1.5h1.7v-.8h-1.7v-1.5h1.7v-.5h1.6Z"/>
  <path class="st1" d="M39.3,1.4v4.9h-1.6v-3.5h-4.1v-1.4h5.7ZM42.3,1.4h1.6v4.9h-1.6V1.4Z"/>
  <path class="st1" d="M51.5,1.4v1.4h-4.2v2.1h4.2v1.4h-5.9V1.4h5.8ZM54.3,3h.8v-1.6h1.6v4.9h-1.6v-1.8h-.8v1.8h-1.6V1.4h1.6v1.6Z"/>
  <path class="st1" d="M64.1,1.4v1.4h-2.6l3.1,2.3-1.2,1.2-2.3-1.8-2.3,1.8-1.1-1.2,3-2.3h-2.6v-1.4h6ZM60,8.3h8.5v1.4h-10.1v-2.7h1.6v1.3ZM66.8,1.4h1.6v4.9h-1.6V1.4Z"/>
  <path class="st1" d="M75.7,1.3v1.3h-4.1v.5h4.1v1.3h-4.1v.5h4.2v1.3h-5.8V1.3h5.7ZM78.6,6.2h-1.6v-1.9h-1v-1.4h1v-1.6h1.6v4.9h0ZM81,6.2h-1.6V1.3h1.6v4.9Z"/>
  <path class="st1" d="M93.3,7.1v1.4h-11.5v-1.4h11.5ZM92.5,1.3v4.9h-1.6v-1.1h-8.2v-1.3h8.2v-1.1h-7.4v-1.4h9Z"/>
  <path class="st1" d="M99.2,7.1v-1.2h1.6v1.2h4.9v1.5h-11.5v-1.4h4.9ZM96.8,4h8.2v1.4h-9.8V1.3h1.6v2.7"/>
  <path class="st1" d="M112.5,1.4v1.4h-.7v2h.7v1.4h-6.1v-1.4h.6v-2h-.6v-1.4h6.1ZM108.6,4.8h1.6v-2h-1.6v2ZM116.5,3h1.3v1.4h-1.3v1.8h-1.6V1.3h1.6v1.6"/>
  <path class="st1" d="M129.6,7.1v1.4h-11.5v-1.4h11.5ZM128.8,1.3v4.9h-1.6v-1.1h-8.2v-1.3h8.2v-1.1h-7.4v-1.4h9Z"/>
</svg>