<?xml version="1.0" encoding="UTF-8"?>
<svg id="_레이어_2" data-name="레이어 2" xmlns="http://www.w3.org/2000/svg" viewBox="0 0 893.71 765.75">
  <defs>
    <style>
      .cls-1 {
        fill: #ff9bac;
      }

      .cls-2 {
        fill: #3a4149;
      }

      .cls-3 {
        fill: #87de20;
      }

      .cls-4 {
        fill: #6bbbff;
      }
    </style>
  </defs>
  <g id="_레이어_1-2" data-name="레이어 1">
    <g>
      <g>
        <polygon class="cls-3" points="597.07 445.42 794.98 163.93 893.71 236.41 710.78 484.46 597.07 445.42"/>
        <circle class="cls-3" cx="458.1" cy="504.1" r="261.66"/>
        <path class="cls-2" d="M638.4,559.44c0,60.93-46.08,110.32-102.93,110.32s-102.93-49.39-102.93-110.32h205.86Z"/>
        <rect class="cls-2" x="454.88" y="464.83" width="62.66" height="39.26"/>
        <rect class="cls-2" x="568.17" y="464.83" width="57.8" height="39.26"/>
        <polygon class="cls-3" points="321.11 489.4 88.56 235.78 0 320.38 243.29 573.96 321.11 489.4"/>
      </g>
      <g>
        <path class="cls-1" d="M577.26,119.62c-9.8,0-19.25,1.49-28.15,4.22,2.74-8.9,4.22-18.35,4.22-28.15,0-52.85-42.85-95.7-95.7-95.7s-95.7,42.85-95.7,95.7c0,9.8,1.49,19.25,4.22,28.15-8.9-2.74-18.35-4.22-28.15-4.22-52.85,0-95.7,42.84-95.7,95.7s42.84,95.7,95.7,95.7c9.8,0,19.25-1.49,28.15-4.22-2.74,8.9-4.22,18.35-4.22,28.15,0,52.85,42.84,95.7,95.7,95.7s95.7-42.85,95.7-95.7c0-9.8-1.49-19.25-4.22-28.15,8.9,2.74,18.35,4.22,28.15,4.22,52.85,0,95.7-42.85,95.7-95.7s-42.84-95.7-95.7-95.7Z"/>
        <circle class="cls-4" cx="457.64" cy="215.32" r="69.11" transform="translate(-18.21 386.66) rotate(-45)"/>
      </g>
    </g>
  </g>
</svg>